<?xml version="1.0" encoding="utf-8"?>
<!-- Generator: Adobe Illustrator 18.1.1, SVG Export Plug-In . SVG Version: 6.00 Build 0)  -->
<svg version="1.1" id="Layer_1" xmlns="http://www.w3.org/2000/svg" xmlns:xlink="http://www.w3.org/1999/xlink" x="0px" y="0px"
	 width="59.3px" height="101px" viewBox="18 -31.3 59.3 101" enable-background="new 18 -31.3 59.3 101" xml:space="preserve">
<path fill="none" stroke="#FFFFFF" stroke-width="8" stroke-miterlimit="10" d="M47.7-20.5c-5-10.7-23.7-7.1-22.5,6.2
	C26.3-1.8,46.7,9,46.7,9c0.5,0.3,1.4,0.3,1.9,0c0,0,20.4-10.8,21.5-23.3C71.3-27.6,52.6-31.2,47.7-20.5z"/>
<path fill="#FF8063" d="M47.7-20.5c-5-10.7-23.7-7.1-22.5,6.2C26.3-1.8,46.7,9,46.7,9c0.5,0.3,1.4,0.3,1.9,0
	c0,0,20.4-10.8,21.5-23.3C71.3-27.6,52.6-31.2,47.7-20.5z"/>
<path fill="none" stroke="#FFFFFF" stroke-width="8" stroke-miterlimit="10" d="M47.7,31.5c-5-10.7-23.7-7.1-22.5,6.2
	C26.3,50.2,46.7,61,46.7,61c0.5,0.3,1.4,0.3,1.9,0c0,0,20.4-10.8,21.5-23.3C71.3,24.4,52.6,20.8,47.7,31.5z"/>
<path fill="#FF5B35" d="M47.7,31.5c-5-10.7-23.7-7.1-22.5,6.2C26.3,50.2,46.7,61,46.7,61c0.5,0.3,1.4,0.3,1.9,0
	c0,0,20.4-10.8,21.5-23.3C71.3,24.4,52.6,20.8,47.7,31.5z"/>
</svg>
