<?xml version="1.0" encoding="utf-8"?>
<!-- Generator: Adobe Illustrator 18.1.1, SVG Export Plug-In . SVG Version: 6.00 Build 0)  -->
<svg version="1.1" id="Layer_1" xmlns="http://www.w3.org/2000/svg" xmlns:xlink="http://www.w3.org/1999/xlink" x="0px" y="0px"
	 width="38px" height="70px" viewBox="0 0 38 70" enable-background="new 0 0 38 70" xml:space="preserve">
<path fill="#E6E6E6" d="M32.3,20.7C29.7,16,24.5,11,16.2,11V7.4c0-1.7-2.1-2.5-3.3-1.3l-7.9,7.6c-0.8,0.7-0.8,2,0,2.7l7.9,7.6
	c1.2,1.2,3.3,0.3,3.3-1.3v-4c5.3-0.8,10.7,0.5,14.4,3.5C31.6,22.9,33,21.8,32.3,20.7z"/>
<path fill="#2CA1DB" d="M32.3,60.1c-2.7-4.7-7.8-9.7-16.1-9.7v-3.6c0-1.7-2.1-2.5-3.3-1.3L5.1,53c-0.8,0.7-0.8,2,0,2.7l7.9,7.6
	c1.2,1.2,3.3,0.3,3.3-1.3v-4c5.3-0.8,10.7,0.5,14.4,3.5C31.6,62.3,33,61.2,32.3,60.1z"/>
</svg>
