<?xml version="1.0" standalone="no"?>
<!DOCTYPE svg PUBLIC "-//W3C//DTD SVG 1.1//EN" "http://www.w3.org/Graphics/SVG/1.1/DTD/svg11.dtd" >
<svg xmlns="http://www.w3.org/2000/svg" xmlns:xlink="http://www.w3.org/1999/xlink" version="1.1">
<metadata></metadata>
<defs>
<font id="apex_roundedbook" horiz-adv-x="570" >
<font-face units-per-em="1000" ascent="750" descent="-250" />
<missing-glyph horiz-adv-x="200" />
<glyph unicode="&#x21;&#x3f;" horiz-adv-x="470" d="M206 335l-6 -107q-2 -18 -19 -18h-4q-17 0 -19 18l-26 468q-36 -3 -77 -12q-15 -3 -22.5 3t-7.5 17v10q0 21 22 28q52 18 132 18q75 0 126 -16t76 -45.5t34.5 -61.5t9.5 -75q0 -46 -12 -78.5t-40 -56.5t-55.5 -38.5t-76.5 -34.5q-24 -10 -35 -19zM358 561q0 60 -28 93.5 t-104 41.5l-17 -296q12 4 18 7q33 12 50 20.5t39 26t32 44t10 63.5zM129 40q0 21 14.5 35.5t35.5 14.5t35.5 -14.5t14.5 -35.5t-14.5 -35.5t-35.5 -14.5t-35.5 14.5t-14.5 35.5z" />
<glyph unicode="fi" horiz-adv-x="615" d="M120 503v107q0 150 180 150q25 0 46 -3q24 -4 24 -27v-12q0 -26 -32 -22q-16 2 -38 2q-113 0 -113 -88v-110h131q27 0 27 -26v-3q0 -26 -27 -26h-131v-413q0 -32 -30 -32h-7q-30 0 -30 32v413h-82q-22 0 -22 18q0 15 22 21zM440 650q0 21 14.5 35.5t35.5 14.5t35.5 -14.5 t14.5 -35.5t-14.5 -35.5t-35.5 -14.5t-35.5 14.5t-14.5 35.5zM524 468v-393q0 -24 23 -27t23 -24v-6q0 -24 -28 -24q-45 0 -65.5 22.5t-20.5 59.5v392q0 32 30 32h8q30 0 30 -32z" />
<glyph unicode="fl" horiz-adv-x="615" d="M120 503v107q0 150 180 150q25 0 46 -3q24 -4 24 -27v-12q0 -26 -32 -22q-16 2 -38 2q-113 0 -113 -88v-110h131q27 0 27 -26v-3q0 -26 -27 -26h-131v-413q0 -32 -30 -32h-7q-30 0 -30 32v413h-82q-22 0 -22 18q0 15 22 21zM524 718v-643q0 -24 23 -27t23 -24v-6 q0 -24 -28 -24q-45 0 -65.5 22.5t-20.5 59.5v642q0 32 30 32h8q30 0 30 -32z" />
<glyph unicode="&#xa1;&#xbf;" horiz-adv-x="470" d="M264 165l6 107q2 18 19 18h4q17 0 19 -18l26 -468q37 4 77 12q15 3 22.5 -3t7.5 -17v-10q0 -21 -22 -28q-52 -18 -132 -18q-75 0 -126 16t-76 45.5t-34.5 61.5t-9.5 75q0 46 12 78.5t40 56.5t55.5 38.5t76.5 34.5q24 10 35 19zM112 -61q0 -60 28 -93.5t104 -41.5l17 296 q-12 -4 -18 -7q-33 -12 -50 -20.5t-39 -26t-32 -44t-10 -63.5zM341 460q0 -21 -14.5 -35.5t-35.5 -14.5t-35.5 14.5t-14.5 35.5t14.5 35.5t35.5 14.5t35.5 -14.5t14.5 -35.5z" />
<glyph unicode="f&#x131;" horiz-adv-x="615" d="M120 503v107q0 150 180 150q25 0 46 -3q24 -4 24 -27v-12q0 -26 -32 -22q-16 2 -38 2q-113 0 -113 -88v-110h131q27 0 27 -26v-3q0 -26 -27 -26h-131v-413q0 -32 -30 -32h-7q-30 0 -30 32v413h-82q-22 0 -22 18q0 15 22 21zM524 468v-393q0 -24 23 -27t23 -24v-6 q0 -24 -28 -24q-45 0 -65.5 22.5t-20.5 59.5v392q0 32 30 32h8q30 0 30 -32z" />
<glyph unicode=" "  horiz-adv-x="200" />
<glyph unicode="&#x09;" horiz-adv-x="200" />
<glyph unicode="&#xa0;" horiz-adv-x="200" />
<glyph unicode="!" horiz-adv-x="190" d="M93 210q-17 0 -19 18l-27 490q-1 14 7 23t23 9h36q15 0 23 -9t7 -23l-27 -490q-2 -18 -19 -18h-4zM45 40q0 21 14.5 35.5t35.5 14.5t35.5 -14.5t14.5 -35.5t-14.5 -35.5t-35.5 -14.5t-35.5 14.5t-14.5 35.5z" />
<glyph unicode="&#x22;" horiz-adv-x="330" d="M93 500q-17 0 -19 18l-25 200q-3 32 30 32h32q33 0 30 -32l-25 -200q-2 -18 -19 -18h-4zM233 500q-17 0 -19 18l-25 200q-3 32 30 32h32q33 0 30 -32l-25 -200q-2 -18 -19 -18h-4z" />
<glyph unicode="#" d="M73 529l4 13q7 24 33 24h74l36 160q6 24 31 24h9q13 0 19.5 -9t3.5 -20l-35 -155h157l36 160q6 24 31 24h9q13 0 19.5 -9t3.5 -20l-35 -155h61q13 0 19 -9t2 -20l-4 -13q-7 -24 -33 -24h-59l-55 -250h76q13 0 19 -9t2 -20l-4 -13q-7 -24 -33 -24h-75l-35 -160 q-6 -24 -31 -24h-9q-13 0 -19.5 9t-3.5 20l34 155h-157l-35 -160q-6 -24 -31 -24h-9q-13 0 -19.5 9t-3.5 20l34 155h-60q-13 0 -19 9t-2 20l4 13q8 24 33 24h58l56 250h-76q-13 0 -19 9t-2 20zM234 500l-55 -250h156l56 250h-157z" />
<glyph unicode="$" d="M465 557q-83 18 -170 18q-90 0 -135.5 -19.5t-45.5 -72.5q0 -21 11 -34t33.5 -20t49 -10t64.5 -6q11 -1 17 -1q127 -11 179 -37.5t52 -103.5t-65.5 -116.5t-190.5 -39.5h-20l-31 -90q-8 -24 -33 -24h-22q-12 0 -17 9t0 20l35 91q-57 7 -96 17q-20 5 -20 27v12q0 25 28 18 q86 -20 177 -20q189 0 189 95q0 24 -11 39.5t-36 24.5t-51 13t-72 7q-53 4 -84 8.5t-63.5 13t-49 21.5t-27 34.5t-10.5 51.5q0 152 246 152q19 0 30 -1l31 92q8 24 33 24h22q12 0 17 -9t0 -20l-35 -92q47 -6 81 -15q20 -5 20 -27v-12q0 -25 -30 -18z" />
<glyph unicode="%" horiz-adv-x="895" d="M221 370q-89 0 -130 48.5t-41 146.5t41 146.5t130 48.5t130 -48.5t41 -146.5t-41 -146.5t-130 -48.5zM674 380q89 0 130 -48.5t41 -146.5t-41 -146.5t-130 -48.5t-130 48.5t-41 146.5t41 146.5t130 48.5zM674 320q-57 0 -82 -30.5t-25 -104.5t25 -104.5t82 -30.5t82 30.5 t25 104.5t-25 104.5t-82 30.5zM221 430q57 0 82 30.5t25 104.5t-25 104.5t-82 30.5t-82 -30.5t-25 -104.5t25 -104.5t82 -30.5zM725 713l-487 -689q-17 -24 -41 -24h-12q-13 0 -19 12t3 25l487 689q17 24 41 24h12q13 0 19 -12t-3 -25z" />
<glyph unicode="&#x26;" horiz-adv-x="705" d="M278 269q-34 42 -63 87q-49 -26 -74.5 -60.5t-25.5 -97.5q0 -78 48 -111t116 -33q98 0 173 55q-99 67 -174 160zM210 592q0 -76 35 -152l27 13q39 17 56.5 26.5t43.5 27.5t37 38.5t11 46.5q0 46 -24.5 76t-80.5 30t-80.5 -30t-24.5 -76zM655 1q-75 31 -141 70 q-101 -81 -235 -81q-104 0 -169 49.5t-65 158.5q0 87 36 134t103 80q-43 88 -43 180q0 70 42 119t132 49t131.5 -49t41.5 -119q0 -31 -11.5 -57.5t-25.5 -43.5t-43.5 -36.5t-49 -29.5t-58.5 -28l-26 -12q25 -39 53 -73q77 -94 175 -159q103 112 112 315q2 32 30 32h8 q32 0 30 -32q-9 -222 -122 -352q55 -30 116 -57q29 -12 19 -38l-2 -5q-9 -27 -38 -15z" />
<glyph unicode="'" horiz-adv-x="190" d="M93 500q-17 0 -19 18l-25 200q-3 32 30 32h32q33 0 30 -32l-25 -200q-2 -18 -19 -18h-4z" />
<glyph unicode="(" horiz-adv-x="280" d="M50 305q0 282 111 489q12 22 30 22h20q12 0 19.5 -9.5t-0.5 -23.5q-106 -207 -106 -478t106 -478q8 -14 0.5 -23.5t-19.5 -9.5h-20q-18 0 -30 22q-111 207 -111 489z" />
<glyph unicode=")" horiz-adv-x="280" d="M230 305q0 -282 -111 -489q-12 -22 -30 -22h-20q-12 0 -19.5 9.5t0.5 23.5q106 207 106 478t-106 478q-8 14 -0.5 23.5t19.5 9.5h20q18 0 30 -22q111 -207 111 -489z" />
<glyph unicode="*" horiz-adv-x="355" d="M62 469l64 67q14 14 27 4l5 -3q13 -10 4 -27l-43 -82q-15 -26 -41 -8l-11 9q-26 18 -5 40zM230 536l64 -67q21 -22 -5 -40l-11 -9q-26 -18 -41 8l-43 82q-9 17 4 27l5 3q13 10 27 -4zM213 720l-13 -92q-3 -19 -19 -19h-6q-17 0 -19 19l-13 92q-3 30 28 30h14q31 0 28 -30 zM45 649l84 -40q17 -8 12 -24l-2 -6q-4 -15 -24 -12l-91 16q-30 5 -20 36l4 13q10 31 37 17zM227 609l84 40q27 14 37 -17l4 -13q10 -31 -20 -36l-91 -16q-20 -3 -24 12l-2 6q-5 16 12 24z" />
<glyph unicode="+" horiz-adv-x="490" d="M75 374h137v137q0 30 29 30h8q29 0 29 -30v-137h137q30 0 30 -29v-8q0 -29 -30 -29h-137v-137q0 -30 -29 -30h-8q-29 0 -29 30v137h-137q-30 0 -30 29v8q0 29 30 29z" />
<glyph unicode="," horiz-adv-x="190" d="M28 -101l18 137q2 14 11.5 22t24.5 8h24q14 0 20.5 -9.5t2.5 -23.5l-46 -134q-7 -24 -32 -24h-3q-23 0 -20 24z" />
<glyph unicode="-" horiz-adv-x="310" d="M60 338h190q30 0 30 -29v-8q0 -29 -30 -29h-190q-30 0 -30 29v8q0 29 30 29z" />
<glyph unicode="." horiz-adv-x="190" d="M45 40q0 21 14.5 35.5t35.5 14.5t35.5 -14.5t14.5 -35.5t-14.5 -35.5t-35.5 -14.5t-35.5 14.5t-14.5 35.5z" />
<glyph unicode="/" horiz-adv-x="390" d="M395 787l-329 -969q-8 -24 -33 -24h-21q-12 0 -16.5 8.5t-0.5 20.5l329 969q8 24 33 24h21q12 0 16.5 -8.5t0.5 -20.5z" />
<glyph unicode="0" horiz-adv-x="600" d="M530 375q0 -68 -2 -111t-9.5 -92.5t-22.5 -78.5t-40 -54.5t-64 -37t-92 -11.5t-91.5 11.5t-63.5 37t-40.5 55t-22.5 78t-9.5 92.5t-2.5 111t2.5 111t9.5 92.5t22.5 78t40.5 55t63.5 37t91.5 11.5t92 -11.5t64 -37t40 -54.5t22.5 -78.5t9.5 -92.5t2 -111zM460 375 q0 44 -0.5 69.5t-2.5 61t-6.5 56.5t-12 46t-19.5 39t-28.5 27t-39 18.5t-51.5 5.5q-26 0 -47 -5.5t-37 -13t-28 -23t-20 -29.5t-13.5 -39t-8.5 -43.5t-4 -52t-1.5 -55.5t-0.5 -62t0.5 -62t1.5 -55.5t4 -52t8.5 -43.5t13.5 -39t20 -29.5t28 -23t37 -13t47 -5.5q29 0 51.5 5.5 t39 18.5t28.5 27t19.5 39t12 46t6.5 56.5t2.5 61t0.5 69.5z" />
<glyph unicode="1" horiz-adv-x="600" d="M489 0h-360q-19 0 -19 18v4q0 17 20 19l145 9v638l-155 -14q-15 -2 -15 13v3q0 10 14 14l164 47q30 9 39 9h1q20 0 20 -21v-689l145 -9q20 -2 20 -19v-4q0 -18 -19 -18z" />
<glyph unicode="2" horiz-adv-x="600" d="M303 760q240 0 240 -200q0 -67 -31.5 -128t-116 -147t-248.5 -222l366 2q30 0 30 -29v-7q0 -29 -30 -29h-426q-30 0 -30 29v8q0 12 12 24q116 97 195 172.5t119.5 121.5t61 88.5t24 63t3.5 54.5q0 65 -35.5 100t-132.5 35q-75 0 -158 -27q-12 -4 -21 3t-9 18v17 q0 18 22 27q69 26 165 26z" />
<glyph unicode="3" horiz-adv-x="600" d="M257 -10q-104 0 -173 26q-22 9 -22 27v17q0 11 9 18t21 3q83 -27 166 -27q116 0 161 42.5t45 114.5q0 78 -43.5 111.5t-137.5 33.5h-106q-30 0 -30 29v8q0 29 30 29h106q79 0 117.5 40t38.5 96q0 65 -41 101.5t-148 36.5q-75 0 -158 -27q-12 -4 -21 3t-9 18v17 q0 18 22 27q69 26 165 26q264 0 264 -202q0 -53 -31.5 -99.5t-80.5 -64.5q63 -14 100 -65t37 -118q0 -221 -281 -221z" />
<glyph unicode="4" horiz-adv-x="600" d="M375 281l2 361l-248 -363zM375 32v187h-298q-27 0 -27 26v5q0 12 15 34l312 454q14 22 33 22h3q30 0 30 -32v-447h80q27 0 27 -26v-10q0 -26 -27 -26h-80v-187q0 -32 -30 -32h-8q-30 0 -30 32z" />
<glyph unicode="5" horiz-adv-x="600" d="M244 -10q-78 0 -142 23q-22 7 -22 27v13q0 11 8.5 18t21.5 3q73 -22 135 -22q203 0 203 181q0 44 -12.5 74t-28 44.5t-47.5 22t-51 8.5t-59 1h-110q-30 0 -30 32v303q0 32 30 32h335q30 0 30 -29v-4q0 -29 -30 -29h-297v-245q52 5 95 5q41 0 72.5 -4t66 -17t57 -35.5 t37 -63t14.5 -95.5q0 -243 -276 -243z" />
<glyph unicode="6" horiz-adv-x="600" d="M139 231q0 -179 170 -179q48 0 81 17.5t48.5 47t21 57t5.5 57.5q0 179 -156 179q-50 0 -85.5 -16.5t-53 -44.5t-24.5 -56.5t-7 -61.5zM340 696q-211 0 -211 -322q21 40 66.5 69t113.5 29q59 0 102 -16t66.5 -39t37 -58t17 -63.5t3.5 -64.5q0 -241 -226 -241 q-63 0 -108 17.5t-71 45.5t-41 76t-19.5 96.5t-4.5 119.5q0 98 12.5 169.5t42 129t85 87t135.5 29.5q88 0 152 -23q23 -8 23 -28v-15q0 -11 -8.5 -18t-21.5 -3q-75 23 -145 23z" />
<glyph unicode="7" horiz-adv-x="600" d="M134 35l346 653h-403q-27 0 -27 26v10q0 26 27 26h446q27 0 27 -26v-9q0 -14 -14 -42l-320 -647q-14 -26 -40 -26h-24q-14 0 -19.5 11.5t1.5 23.5z" />
<glyph unicode="8" horiz-adv-x="600" d="M300 -10q-131 0 -192 62t-61 159q0 62 31.5 114t92.5 70q-47 22 -73 64.5t-26 92.5q0 91 54.5 149.5t173.5 58.5t173.5 -58.5t54.5 -149.5q0 -50 -26 -92.5t-73 -64.5q61 -18 92.5 -70t31.5 -114q0 -97 -61 -159t-192 -62zM300 358q-179 0 -179 -147q0 -65 41.5 -112 t137.5 -47t137.5 47t41.5 112q0 147 -179 147zM300 420q78 0 116 39t38 93q0 61 -34 103.5t-120 42.5t-120 -42.5t-34 -103.5q0 -54 38 -93t116 -39z" />
<glyph unicode="9" horiz-adv-x="600" d="M461 519q0 179 -170 179q-48 0 -81 -17.5t-48.5 -47t-21 -57t-5.5 -57.5q0 -179 156 -179q50 0 85.5 16.5t53 44.5t24.5 56.5t7 61.5zM260 54q211 0 211 322q-21 -40 -66.5 -69t-113.5 -29q-59 0 -102 16t-66.5 39t-37 58t-17 63.5t-3.5 64.5q0 241 226 241 q63 0 108 -17.5t71 -45.5t41 -76t19.5 -96.5t4.5 -119.5q0 -98 -12.5 -169.5t-42 -129t-85 -87t-135.5 -29.5q-88 0 -152 23q-23 8 -23 28v15q0 11 8.5 18t21.5 3q75 -23 145 -23z" />
<glyph unicode=":" horiz-adv-x="190" d="M45 40q0 21 14.5 35.5t35.5 14.5t35.5 -14.5t14.5 -35.5t-14.5 -35.5t-35.5 -14.5t-35.5 14.5t-14.5 35.5zM45 375q0 21 14.5 35.5t35.5 14.5t35.5 -14.5t14.5 -35.5t-14.5 -35.5t-35.5 -14.5t-35.5 14.5t-14.5 35.5z" />
<glyph unicode=";" horiz-adv-x="190" d="M45 375q0 21 14.5 35.5t35.5 14.5t35.5 -14.5t14.5 -35.5t-14.5 -35.5t-35.5 -14.5t-35.5 14.5t-14.5 35.5zM28 -101l18 137q2 14 11.5 22t24.5 8h24q14 0 20.5 -9.5t2.5 -23.5l-46 -134q-7 -24 -32 -24h-3q-23 0 -20 24z" />
<glyph unicode="&#x3c;" horiz-adv-x="490" d="M416 92l-347 202q-24 13 -24 41v12q0 28 24 41l347 202q11 7 20 3.5t9 -16.5v-20q0 -23 -24 -37l-307 -179l307 -179q24 -14 24 -37v-20q0 -13 -9 -16.5t-20 3.5z" />
<glyph unicode="=" horiz-adv-x="490" d="M75 440h340q30 0 30 -29v-8q0 -29 -30 -29h-340q-30 0 -30 29v8q0 29 30 29zM75 308h340q30 0 30 -29v-8q0 -29 -30 -29h-340q-30 0 -30 29v8q0 29 30 29z" />
<glyph unicode="&#x3e;" horiz-adv-x="490" d="M421 294l-347 -202q-11 -7 -20 -3.5t-9 16.5v20q0 23 24 37l307 179l-307 179q-24 14 -24 37v20q0 13 9 16.5t20 -3.5l347 -202q24 -13 24 -41v-12q0 -28 -24 -41z" />
<glyph unicode="?" horiz-adv-x="470" d="M179 760q75 0 126 -16t76 -45.5t34.5 -61.5t9.5 -75q0 -46 -12 -78.5t-40 -56.5t-55.5 -38.5t-76.5 -34.5q-26 -11 -41 -23t-22 -30.5t-8.5 -31.5t-2.5 -41q0 -18 -20 -18h-1q-17 0 -20 20q-4 22 -4 44q0 47 21.5 79.5t83.5 56.5q28 11 40 16t34 18t31 26.5t17.5 37 t8.5 53.5q0 69 -37 103t-141 34q-69 0 -125 -14q-15 -3 -22.5 3t-7.5 17v10q0 21 22 28q52 18 132 18zM118 40q0 21 14.5 35.5t35.5 14.5t35.5 -14.5t14.5 -35.5t-14.5 -35.5t-35.5 -14.5t-35.5 14.5t-14.5 35.5z" />
<glyph unicode="@" horiz-adv-x="870" d="M427 102q51 0 110 32v232q-59 32 -110 32q-65 0 -95 -36.5t-30 -111.5t30 -111.5t95 -36.5zM607 50h-24q-10 0 -14.5 5.5t-10.5 19.5l-5 12q-63 -47 -136 -47q-80 0 -132.5 53.5t-52.5 156.5t52.5 156.5t132.5 53.5q73 0 136 -47l5 12q6 14 10.5 19.5t14.5 5.5h3 q21 0 21 -23v-320q86 -1 122.5 50t36.5 156q0 141 -78 202t-248 61t-250.5 -77t-80.5 -249t80.5 -249t250.5 -77q133 0 223 31q15 5 24 -0.5t9 -16.5v-13q0 -19 -22 -28q-29 -11 -96.5 -21.5t-137.5 -10.5q-400 0 -400 385t400 385q193 0 291.5 -82.5t98.5 -244.5 q0 -35 -4.5 -66.5t-19 -68t-37.5 -62.5t-65 -43.5t-97 -17.5z" />
<glyph unicode="A" horiz-adv-x="630" d="M26 32l255 702q9 26 31 26h6q22 0 31 -26l255 -702q6 -15 -1 -23.5t-19 -8.5h-20q-26 0 -35 27l-63 183h-302l-63 -183q-9 -27 -35 -27h-20q-12 0 -19 8.5t-1 23.5zM315 646l-130 -377h260z" />
<glyph unicode="B" horiz-adv-x="615" d="M105 0q-30 0 -30 32v686q0 32 30 32h207q123 0 178 -54t55 -144q0 -51 -25.5 -93.5t-72.5 -62.5q61 -16 92 -68t31 -117q0 -96 -59.5 -153.5t-191.5 -57.5h-214zM143 359v-296h185q168 0 168 148q0 77 -38 112.5t-128 35.5h-187zM471 552q0 60 -31.5 97.5t-117.5 37.5 h-179v-265h187q141 0 141 130z" />
<glyph unicode="C" horiz-adv-x="610" d="M60 375q0 84 15 151t48 121t92 83.5t140 29.5q100 0 169 -25q26 -9 26 -34v-14q0 -10 -8 -16t-23 -1q-75 27 -164 27q-116 0 -169.5 -87.5t-53.5 -234.5t53.5 -234.5t169.5 -87.5q89 0 164 27q15 5 23 -1t8 -16v-14q0 -25 -26 -34q-69 -25 -169 -25q-81 0 -140 29.5 t-92 83.5t-48 121t-15 151z" />
<glyph unicode="D" horiz-adv-x="655" d="M279 0h-174q-30 0 -30 32v686q0 32 30 32h174q89 0 152 -28t98 -80.5t50.5 -117.5t15.5 -149t-15.5 -149t-50.5 -117.5t-98 -80.5t-152 -28zM143 687v-624h140q240 0 240 312t-240 312h-140z" />
<glyph unicode="E" d="M143 687v-265h302q30 0 30 -29v-5q0 -29 -30 -29h-302v-296h337q30 0 30 -29v-5q0 -29 -30 -29h-375q-30 0 -30 32v686q0 32 30 32h375q30 0 30 -29v-5q0 -29 -30 -29h-337z" />
<glyph unicode="F" horiz-adv-x="550" d="M435 359h-292v-327q0 -32 -30 -32h-8q-30 0 -30 32v686q0 32 30 32h365q30 0 30 -29v-5q0 -29 -30 -29h-327v-265h292q30 0 30 -29v-5q0 -29 -30 -29z" />
<glyph unicode="G" horiz-adv-x="660" d="M390 394h165q30 0 30 -32v-309q0 -24 -26 -33q-83 -30 -204 -30q-81 0 -140 29.5t-92 83.5t-48 121t-15 151t15 151t48 121t92 83.5t140 29.5q101 0 184 -30q26 -9 26 -33v-17q0 -11 -8 -17.5t-23 -0.5q-87 35 -179 35q-116 0 -169.5 -87.5t-53.5 -234.5t53.5 -234.5 t169.5 -87.5q117 0 162 22v256h-127q-30 0 -30 29v5q0 29 30 29z" />
<glyph unicode="H" horiz-adv-x="660" d="M517 32v327h-374v-327q0 -32 -30 -32h-8q-30 0 -30 32v686q0 32 30 32h8q30 0 30 -32v-296h374v296q0 32 30 32h8q30 0 30 -32v-686q0 -32 -30 -32h-8q-30 0 -30 32z" />
<glyph unicode="I" horiz-adv-x="260" d="M165 718v-686q0 -32 -30 -32h-10q-30 0 -30 32v686q0 32 30 32h10q30 0 30 -32z" />
<glyph unicode="J" horiz-adv-x="379" d="M284 718v-578q0 -150 -179 -150q-17 0 -41 2q-29 3 -29 30v9q0 12 8.5 19t20.5 5q16 -2 41 -2q109 0 109 85v580q0 32 30 32h10q30 0 30 -32z" />
<glyph unicode="K" horiz-adv-x="595" d="M143 718v-348l307 346q19 22 29 28t27 6h13q13 0 18 -12.5t-5 -23.5l-272 -303l303 -373q10 -11 5.5 -24.5t-20.5 -13.5h-8q-25 0 -35.5 7t-30.5 32l-259 322l-72 -80v-249q0 -32 -30 -32h-8q-30 0 -30 32v686q0 32 30 32h8q30 0 30 -32z" />
<glyph unicode="L" horiz-adv-x="530" d="M460 0h-355q-30 0 -30 32v686q0 32 30 32h8q30 0 30 -32v-655h317q30 0 30 -29v-5q0 -29 -30 -29z" />
<glyph unicode="M" horiz-adv-x="840" d="M412 115q-20 0 -27 15l-246 531l4 -629q0 -32 -30 -32h-8q-30 0 -30 32v686q0 32 30 32h42q20 0 28 -17l245 -535l245 535q8 17 28 17h42q30 0 30 -32v-686q0 -32 -30 -32h-8q-30 0 -30 32l4 629l-246 -531q-7 -15 -27 -15h-16z" />
<glyph unicode="N" horiz-adv-x="670" d="M135 736l394 -597l-2 579q0 32 30 32h8q30 0 30 -32v-686q0 -32 -30 -32h-5q-16 0 -25 14l-394 597l2 -579q0 -32 -30 -32h-8q-30 0 -30 32v686q0 32 30 32h5q16 0 25 -14z" />
<glyph unicode="O" horiz-adv-x="680" d="M340 53q53 0 91 17t60.5 44t35.5 70.5t17 87t4 103.5t-4 103.5t-17 87t-35.5 70.5t-60.5 44t-91 17t-91 -17t-60.5 -44t-35.5 -70.5t-17 -87t-4 -103.5t4 -103.5t17 -87t35.5 -70.5t60.5 -44t91 -17zM340 -10q-71 0 -123 22t-81.5 56.5t-47 87.5t-23 103t-5.5 116 t5.5 116t23 103t47 87.5t81.5 56.5t123 22t123 -22t81.5 -56.5t47 -87.5t23 -103t5.5 -116t-5.5 -116t-23 -103t-47 -87.5t-81.5 -56.5t-123 -22z" />
<glyph unicode="P" horiz-adv-x="590" d="M143 300v-268q0 -32 -30 -32h-8q-30 0 -30 32v686q0 32 30 32h199q131 0 191 -63.5t60 -161.5t-60 -161.5t-191 -63.5h-161zM143 687v-324h170q50 0 85 14.5t52 40t24 51t7 56.5t-7 56.5t-24 51t-52 40t-85 14.5h-170z" />
<glyph unicode="Q" horiz-adv-x="680" d="M423 6l258 -52q29 -6 29 -32v-15q0 -13 -10 -19.5t-24 -2.5l-428 115q-59 16 -98 51.5t-58 89t-25.5 107.5t-6.5 127q0 70 6 123t23.5 104.5t48 84.5t81.5 53t121 20q71 0 122.5 -20t81.5 -53t47.5 -85t23 -104t5.5 -123q0 -62 -3.5 -107t-15.5 -92.5t-33 -78.5 t-57.5 -55.5t-87.5 -34.5v-1zM340 53q53 0 91 17t60.5 44t35.5 70.5t17 87t4 103.5t-4 103.5t-17 87t-35.5 70.5t-60.5 44t-91 17t-91 -17t-60.5 -44t-35.5 -70.5t-17 -87t-4 -103.5t4 -103.5t17 -87t35.5 -70.5t60.5 -44t91 -17z" />
<glyph unicode="R" horiz-adv-x="621" d="M417 340l160 -304q7 -14 -0.5 -25t-20.5 -11h-8q-31 0 -47 31l-152 298q-11 -1 -33 -1h-173v-296q0 -32 -30 -32h-8q-30 0 -30 32v686q0 32 30 32h205q134 0 189.5 -54t55.5 -157q0 -163 -138 -199zM143 687v-296h185q91 0 122 38.5t31 109.5t-31 109.5t-122 38.5h-185z " />
<glyph unicode="S" horiz-adv-x="595" d="M265 53q203 0 203 163q0 77 -35 104t-134 40q-137 17 -191 57t-54 134q0 29 6 55.5t22.5 55.5t43.5 50t73.5 34.5t106.5 13.5q96 0 168 -24q27 -9 27 -34v-14q0 -12 -9 -17t-26 1q-63 25 -161 25q-102 0 -142 -39.5t-40 -107.5q0 -32 8.5 -53.5t20 -34.5t38 -22 t48.5 -12.5t65 -9.5q123 -16 180.5 -57.5t57.5 -144.5q0 -42 -12.5 -79t-41.5 -71.5t-86 -55t-137 -20.5q-94 0 -184 30q-26 9 -26 34v11q0 11 8.5 17.5t23.5 1.5q90 -31 179 -31z" />
<glyph unicode="T" horiz-adv-x="560" d="M69 750h422q30 0 30 -29v-5q0 -29 -30 -29h-177v-655q0 -32 -30 -32h-8q-30 0 -30 32v655h-177q-30 0 -30 29v5q0 29 30 29z" />
<glyph unicode="U" horiz-adv-x="670" d="M70 235v483q0 32 30 32h8q30 0 30 -32v-472q0 -193 197 -193t197 193v472q0 32 30 32h8q30 0 30 -32v-483q0 -61 -19.5 -107t-47.5 -71.5t-66.5 -41.5t-69 -20.5t-62.5 -4.5t-62.5 4.5t-69 20.5t-66.5 41.5t-47.5 71.5t-19.5 107z" />
<glyph unicode="V" horiz-adv-x="640" d="M609 718l-255 -702q-9 -26 -31 -26h-6q-22 0 -31 26l-255 702q-6 15 1 23.5t19 8.5h20q26 0 35 -27l214 -619l214 619q9 27 35 27h20q12 0 19 -8.5t1 -23.5z" />
<glyph unicode="W" horiz-adv-x="880" d="M431 750h18q30 0 37 -31l168 -623l128 625q6 29 33 29h13q13 0 20.5 -9t4.5 -24l-156 -698q-7 -29 -37 -29h-12q-29 0 -37 29l-171 641l-171 -641q-8 -29 -37 -29h-12q-30 0 -37 29l-156 698q-3 15 4.5 24t20.5 9h13q27 0 33 -29l128 -625l168 623q7 31 37 31z" />
<glyph unicode="X" horiz-adv-x="630" d="M300 334l-203 -313q-13 -21 -39 -21h-22q-14 0 -19.5 11.5t2.5 24.5l236 344l-230 333q-9 13 -2.5 25t20.5 12h17q26 0 42 -26l198 -300l198 300q16 26 42 26h17q14 0 20.5 -12t-2.5 -25l-230 -333l236 -344q8 -13 2.5 -24.5t-19.5 -11.5h-22q-26 0 -39 21z" />
<glyph unicode="Y" horiz-adv-x="670" d="M634 712l-265 -404v-276q0 -32 -30 -32h-8q-30 0 -30 32v276l-265 404q-9 13 -3 25.5t21 12.5h9q25 0 40 -24l232 -361l232 361q15 24 40 24h9q15 0 21 -12.5t-3 -25.5z" />
<glyph unicode="Z" horiz-adv-x="610" d="M90 750h435q30 0 30 -29v-3q0 -14 -21 -46l-406 -611l412 2q30 0 30 -29v-5q0 -29 -30 -29h-470q-30 0 -30 29v3q0 14 21 46l406 611l-377 -2q-30 0 -30 29v5q0 29 30 29z" />
<glyph unicode="[" horiz-adv-x="230" d="M136 750v-890h34q30 0 30 -29v-8q0 -29 -30 -29h-75q-30 0 -30 32v958q0 32 30 32h75q30 0 30 -29v-8q0 -29 -30 -29h-34z" />
<glyph unicode="\" horiz-adv-x="390" d="M324 -182l-329 969q-4 12 0.5 20.5t16.5 8.5h21q25 0 33 -24l329 -969q4 -12 -0.5 -20.5t-16.5 -8.5h-21q-25 0 -33 24z" />
<glyph unicode="]" horiz-adv-x="230" d="M94 -140v890h-34q-30 0 -30 29v8q0 29 30 29h75q30 0 30 -32v-958q0 -32 -30 -32h-75q-30 0 -30 29v8q0 29 30 29h34z" />
<glyph unicode="^" horiz-adv-x="560" d="M328 736l200 -332q7 -11 3.5 -20t-16.5 -9h-16q-26 0 -41 24l-178 287l-178 -287q-15 -24 -41 -24h-16q-13 0 -16.5 9t3.5 20l200 332q13 24 41 24h14q28 0 41 -24z" />
<glyph unicode="_" horiz-adv-x="280" d="M30 -95h220q30 0 30 -28v-4q0 -28 -30 -28h-220q-30 0 -30 28v4q0 28 30 28z" />
<glyph unicode="`" d="M267 723l37 -149q2 -10 -3 -17t-17 -7h-3q-21 0 -30 23l-56 141q-5 14 1 25t21 11h15q29 0 35 -27z" />
<glyph unicode="a" horiz-adv-x="495" d="M360 266l-137 -13q-102 -10 -102 -102q0 -20 3.5 -35t13.5 -31t32.5 -24.5t56.5 -8.5q64 0 133 40v174zM241 448q-62 0 -119 -17q-17 -5 -27 1.5t-10 17.5v12q0 19 22 28q54 20 134 20q106 0 147.5 -43t41.5 -125v-319q0 -23 -21 -23h-2q-10 0 -14.5 5t-10.5 19l-6 16 q-68 -50 -151 -50q-92 0 -133.5 45.5t-41.5 115.5q0 145 178 156l132 8v28q0 57 -25.5 81t-93.5 24z" />
<glyph unicode="b" horiz-adv-x="535" d="M135 718v-249q63 41 140 41q205 0 205 -260t-205 -260q-76 0 -156 51l-6 -16q-5 -14 -10 -19.5t-15 -5.5h-2q-21 0 -21 23v695q0 32 30 32h10q30 0 30 -32zM275 448q-81 0 -140 -32v-332q59 -32 140 -32q35 0 60 11.5t39.5 29t22.5 45.5t10.5 53t2.5 59t-2.5 59t-10.5 53 t-22.5 45.5t-39.5 29t-60 11.5z" />
<glyph unicode="c" horiz-adv-x="460" d="M125 250q0 -43 4.5 -73.5t18 -61.5t43 -47t74.5 -16q61 0 121 16q16 5 24.5 -1t8.5 -17v-14q0 -21 -22 -28q-54 -18 -131 -18q-49 0 -86.5 13.5t-61 36.5t-38 57t-20 70.5t-5.5 82.5t5.5 82.5t20 70.5t38 57t61 36.5t86.5 13.5q77 0 131 -18q22 -7 22 -28v-14 q0 -11 -8.5 -17t-24.5 -1q-60 16 -121 16q-45 0 -74.5 -16t-43 -47t-18 -61.5t-4.5 -73.5z" />
<glyph unicode="d" horiz-adv-x="535" d="M400 469v249q0 32 30 32h10q30 0 30 -32v-695q0 -23 -21 -23h-2q-10 0 -15 5.5t-10 19.5l-6 16q-80 -51 -156 -51q-205 0 -205 260t205 260q77 0 140 -41zM260 448q-35 0 -60 -11.5t-39.5 -29t-22.5 -45.5t-10.5 -53t-2.5 -59t2.5 -59t10.5 -53t22.5 -45.5t39.5 -29 t60 -11.5q81 0 140 32v332q-59 32 -140 32z" />
<glyph unicode="e" horiz-adv-x="510" d="M265 448q-42 0 -70 -13.5t-42.5 -40t-20.5 -54t-7 -65.5h260q0 33 -1.5 53t-8 45.5t-18.5 40t-35.5 24.5t-56.5 10zM265 -10q-61 0 -103.5 19.5t-65 57t-32 81.5t-9.5 102t9.5 102t32 81.5t65 57t103.5 19.5q50 0 85 -14t55.5 -35.5t31.5 -57.5t14.5 -70t3.5 -83 q0 -32 -30 -32h-300q4 -77 33.5 -121.5t106.5 -44.5q78 0 138 20q15 5 23 0t8 -16v-16q0 -18 -22 -27q-61 -23 -147 -23z" />
<glyph unicode="f" horiz-adv-x="375" d="M120 503v107q0 150 180 150q25 0 46 -3q24 -4 24 -27v-12q0 -26 -32 -22q-16 2 -38 2q-113 0 -113 -88v-110h131q27 0 27 -26v-3q0 -26 -27 -26h-131v-413q0 -32 -30 -32h-7q-30 0 -30 32v413h-82q-22 0 -22 18q0 15 22 21z" />
<glyph unicode="g" horiz-adv-x="510" d="M351 -12l-146 17q-122 -28 -122 -110q0 -53 38.5 -74t120.5 -21q194 0 194 110q0 38 -19.5 55.5t-65.5 22.5zM242 195q79 0 104.5 33.5t25.5 93.5t-25.5 93.5t-104.5 33.5t-104.5 -33.5t-25.5 -93.5t25.5 -93.5t104.5 -33.5zM322 500h150q24 0 24 -19q0 -18 -25 -25 l-63 -18q29 -44 29 -116q0 -188 -195 -188q-38 0 -66 6q-19 -19 -19 -37q0 -35 38 -39l170 -20q72 -8 104.5 -39t32.5 -95q0 -86 -73.5 -128t-186.5 -42q-224 0 -224 151q0 48 29 82.5t74 49.5v1q-32 22 -32 66q0 37 38 68q-80 44 -80 164q0 188 195 188q42 0 80 -10z" />
<glyph unicode="h" horiz-adv-x="500" d="M65 32v686q0 32 30 32h10q30 0 30 -32v-249q64 41 135 41q170 0 170 -150v-328q0 -32 -30 -32h-10q-30 0 -30 32v331q0 47 -25.5 66t-74.5 19q-77 0 -135 -32v-384q0 -32 -30 -32h-10q-30 0 -30 32z" />
<glyph unicode="i" horiz-adv-x="240" d="M65 650q0 21 14.5 35.5t35.5 14.5t35.5 -14.5t14.5 -35.5t-14.5 -35.5t-35.5 -14.5t-35.5 14.5t-14.5 35.5zM149 468v-393q0 -24 23 -27t23 -24v-6q0 -24 -28 -24q-45 0 -65.5 22.5t-20.5 59.5v392q0 32 30 32h8q30 0 30 -32z" />
<glyph unicode="j" horiz-adv-x="230" d="M65 650q0 21 14.5 35.5t35.5 14.5t35.5 -14.5t14.5 -35.5t-14.5 -35.5t-35.5 -14.5t-35.5 14.5t-14.5 35.5zM-15 -255q-32 0 -32 27v5q0 27 32 27q96 0 96 96v568q0 32 30 32h8q30 0 30 -32v-573q0 -72 -45 -111t-119 -39z" />
<glyph unicode="k" horiz-adv-x="500" d="M133 718v-451l233 213q23 20 43 20h21q13 0 19 -12t-5 -23l-195 -172l228 -257q8 -9 3 -22.5t-21 -13.5h-15q-25 0 -43 20l-199 231l-69 -60v-159q0 -32 -30 -32h-8q-30 0 -30 32v686q0 32 30 32h8q30 0 30 -32z" />
<glyph unicode="l" horiz-adv-x="240" d="M149 718v-643q0 -24 23 -27t23 -24v-6q0 -24 -28 -24q-45 0 -65.5 22.5t-20.5 59.5v642q0 32 30 32h8q30 0 30 -32z" />
<glyph unicode="m" horiz-adv-x="785" d="M360 32v331q0 85 -95 85q-71 0 -130 -30v-386q0 -32 -30 -32h-10q-30 0 -30 32v445q0 23 21 23h2q10 0 15 -5.5t10 -19.5l6 -16q70 51 146 51q101 0 140 -57q82 57 155 57q165 0 165 -150v-328q0 -32 -30 -32h-10q-30 0 -30 32v331q0 85 -95 85q-73 0 -136 -33 q6 -24 6 -52v-331q0 -32 -30 -32h-10q-30 0 -30 32z" />
<glyph unicode="n" horiz-adv-x="500" d="M65 32v445q0 23 21 23h2q10 0 15 -5.5t10 -19.5l6 -17q70 52 151 52q170 0 170 -150v-328q0 -32 -30 -32h-10q-30 0 -30 32v331q0 47 -25.5 66t-74.5 19q-77 0 -135 -32v-384q0 -32 -30 -32h-10q-30 0 -30 32z" />
<glyph unicode="o" horiz-adv-x="530" d="M475 250q0 -127 -45 -193.5t-165 -66.5t-165 66.5t-45 193.5t45 193.5t165 66.5t165 -66.5t45 -193.5zM405 250q0 50 -4 80t-17 60t-42.5 44t-76.5 14q-39 0 -65.5 -10.5t-41 -26t-22 -44t-9.5 -53t-2 -64.5t2 -64.5t9.5 -53t22 -44t41 -26t65.5 -10.5q47 0 76.5 14 t42.5 44t17 60t4 80z" />
<glyph unicode="p" horiz-adv-x="535" d="M135 31v-249q0 -32 -30 -32h-10q-30 0 -30 32v695q0 23 21 23h2q10 0 15 -5.5t10 -19.5l6 -16q80 51 156 51q205 0 205 -260t-205 -260q-77 0 -140 41zM275 52q35 0 60 11.5t39.5 29t22.5 45.5t10.5 53t2.5 59t-2.5 59t-10.5 53t-22.5 45.5t-39.5 29t-60 11.5 q-81 0 -140 -32v-332q59 -32 140 -32z" />
<glyph unicode="q" horiz-adv-x="535" d="M400 -218v249q-63 -41 -140 -41q-205 0 -205 260t205 260q76 0 156 -51l6 16q5 14 10 19.5t15 5.5h2q21 0 21 -23v-695q0 -32 -30 -32h-10q-30 0 -30 32zM260 52q81 0 140 32v332q-59 32 -140 32q-35 0 -60 -11.5t-39.5 -29t-22.5 -45.5t-10.5 -53t-2.5 -59t2.5 -59 t10.5 -53t22.5 -45.5t39.5 -29t60 -11.5z" />
<glyph unicode="r" horiz-adv-x="363" d="M280 510q18 0 36 -2q27 -3 27 -28v-11q0 -27 -29 -23q-20 2 -34 2q-89 0 -145 -32v-384q0 -32 -30 -32h-10q-30 0 -30 32v445q0 23 21 23h2q10 0 15 -5.5t10 -19.5l6 -17q70 52 161 52z" />
<glyph unicode="s" horiz-adv-x="460" d="M208 52q132 0 132 91q0 39 -22 59.5t-91 26.5q-101 9 -138 42t-37 91q0 61 45 104.5t142 43.5q76 0 130 -19q22 -7 22 -29v-11q0 -12 -9.5 -18t-24.5 -2q-65 17 -119 17q-69 0 -94.5 -22.5t-25.5 -63.5q0 -35 23 -52t91 -23q101 -9 138.5 -43t37.5 -100t-48 -110 t-153 -44q-75 0 -135 21q-22 7 -22 29v12q0 11 8 18t22 3q84 -21 128 -21z" />
<glyph unicode="t" horiz-adv-x="375" d="M120 445h-82q-22 0 -22 18q0 15 22 21l82 19v119q0 22 21 28l18 5q12 4 21.5 -2t9.5 -17v-136h128q27 0 27 -26v-3q0 -26 -27 -26h-128v-311q0 -86 96 -86h19q24 0 24 -23v-10q0 -21 -25 -24q-4 -1 -24 -1q-69 0 -114.5 33.5t-45.5 102.5v319z" />
<glyph unicode="u" horiz-adv-x="500" d="M435 468v-445q0 -23 -21 -23h-2q-10 0 -15 5.5t-10 19.5l-6 17q-70 -52 -151 -52q-170 0 -170 150v328q0 32 30 32h10q30 0 30 -32v-331q0 -47 25.5 -66t74.5 -19q77 0 135 32v384q0 32 30 32h10q30 0 30 -32z" />
<glyph unicode="v" horiz-adv-x="480" d="M243 -10h-6q-22 0 -31 23l-176 451q-5 13 1 24.5t21 11.5h15q26 0 34 -23l139 -387l139 387q8 23 34 23h15q15 0 21 -11.5t1 -24.5l-176 -451q-9 -23 -31 -23z" />
<glyph unicode="w" horiz-adv-x="700" d="M362 500q25 0 33 -26l118 -368l89 366q6 28 31 28h19q14 0 20.5 -9.5t2.5 -23.5l-127 -452q-7 -25 -31 -25h-4q-24 0 -32 25l-131 410l-131 -410q-8 -25 -32 -25h-4q-24 0 -31 25l-127 452q-4 14 2.5 23.5t20.5 9.5h19q25 0 31 -28l89 -366l118 368q8 26 33 26h24z" />
<glyph unicode="x" horiz-adv-x="490" d="M245 210l-140 -192q-12 -18 -35 -18h-16q-15 0 -20.5 13t3.5 24l168 220l-158 206q-9 11 -3 24t20 13h16q21 0 35 -18l130 -178l130 178q13 18 35 18h16q14 0 20 -13t-3 -24l-158 -206l168 -220q9 -11 3.5 -24t-20.5 -13h-16q-23 0 -35 18z" />
<glyph unicode="y" horiz-adv-x="480" d="M210 13l-182 451q-5 13 1 24.5t21 11.5h18q26 0 34 -23l138 -387l138 387q8 23 34 23h18q15 0 21 -11.5t1 -24.5l-271 -691q-8 -23 -34 -23h-12q-15 0 -21 11.5t-1 24.5z" />
<glyph unicode="z" horiz-adv-x="450" d="M395 435l-278 -376h276q27 0 27 -26v-7q0 -26 -27 -26h-336q-27 0 -27 26v5q0 15 15 34l278 376h-251q-27 0 -27 26v7q0 26 27 26h311q27 0 27 -26v-5q0 -15 -15 -34z" />
<glyph unicode="{" horiz-adv-x="210" d="M18 311q0 24 30 29q23 4 22 37l-18 330q-3 54 26 81.5t72 27.5q30 0 30 -29v-8q0 -27 -30 -30q-28 -4 -27 -38l18 -330q1 -46 -33 -76q34 -30 33 -76l-18 -330q-1 -34 27 -38q30 -3 30 -30v-8q0 -29 -30 -29q-43 0 -72 27.5t-26 81.5l18 330q1 33 -22 37q-30 5 -30 29v12 z" />
<glyph unicode="|" horiz-adv-x="245" d="M158 784v-958q0 -32 -30 -32h-11q-30 0 -30 32v958q0 32 30 32h11q30 0 30 -32z" />
<glyph unicode="}" horiz-adv-x="210" d="M192 299q0 -24 -30 -29q-23 -4 -22 -37l18 -330q3 -54 -26 -81.5t-72 -27.5q-30 0 -30 29v8q0 27 30 30q28 4 27 38l-18 330q-1 46 33 76q-34 30 -33 76l18 330q1 34 -27 38q-30 3 -30 30v8q0 29 30 29q43 0 72 -27.5t26 -81.5l-18 -330q-1 -33 22 -37q30 -5 30 -29v-12z " />
<glyph unicode="~" horiz-adv-x="490" d="M342 334q35 0 74 19q16 6 22.5 2t6.5 -15v-13q0 -22 -22 -33q-35 -19 -79 -19q-34 0 -62.5 11.5t-44.5 25t-39.5 25t-49.5 11.5q-35 0 -74 -19q-16 -6 -22.5 -2t-6.5 15v13q0 22 22 33q35 19 79 19q34 0 62.5 -11.5t44.5 -25t39.5 -25t49.5 -11.5z" />
<glyph unicode="&#xa1;" horiz-adv-x="190" d="M97 290q17 0 19 -18l27 -490q1 -14 -7 -23t-23 -9h-36q-15 0 -23 9t-7 23l27 490q2 18 19 18h4zM145 460q0 -21 -14.5 -35.5t-35.5 -14.5t-35.5 14.5t-14.5 35.5t14.5 35.5t35.5 14.5t35.5 -14.5t14.5 -35.5z" />
<glyph unicode="&#xa2;" d="M196 29l37 97q-85 23 -131.5 86.5t-46.5 162.5q0 126 73.5 193t202.5 67l31 91q8 24 33 24h22q12 0 17 -9t0 -20l-35 -91q43 -6 82 -18q19 -6 19 -28v-12q0 -11 -7.5 -16.5t-22.5 -1.5q-71 19 -140 19q-95 0 -150 -52t-55 -146t55 -146t150 -52q69 0 140 19 q15 4 22.5 -1.5t7.5 -16.5v-13q0 -21 -21 -28q-73 -22 -148 -22q-22 0 -32 1l-31 -92q-8 -24 -33 -24h-22q-12 0 -17 9t0 20z" />
<glyph unicode="&#xa3;" horiz-adv-x="579" d="M65 422h50v140q0 90 57.5 144t173.5 54q91 0 163 -23q25 -8 25 -31v-10q0 -11 -8 -17t-23 -2q-84 21 -157 21q-86 0 -123.5 -31.5t-37.5 -103.5v-141h249q30 0 30 -28v-5q0 -28 -30 -28h-249v-300h339q30 0 30 -28v-5q0 -28 -30 -28h-459q-30 0 -30 28v5q0 28 30 28h50 v300h-50q-30 0 -30 28v5q0 28 30 28z" />
<glyph unicode="&#xa4;" horiz-adv-x="640" d="M320 52q-94 0 -151 28l-59 -70q-19 -22 -42 -4l-6 5q-22 19 -3 42l56 67q-60 63 -60 192t60 192l-56 67q-19 23 3 42l6 5q23 18 42 -4l59 -70q57 28 151 28t151 -28l59 70q19 22 42 4l6 -5q22 -19 3 -42l-56 -67q60 -63 60 -192t-60 -192l56 -67q19 -23 -3 -42l-6 -5 q-23 -18 -42 4l-59 70q-57 -28 -151 -28zM320 114q48 0 80.5 7.5t61 27.5t42.5 60.5t14 102.5t-14 102.5t-42.5 60.5t-61 27.5t-80.5 7.5t-80.5 -7.5t-61 -27.5t-42.5 -60.5t-14 -102.5t14 -102.5t42.5 -60.5t61 -27.5t80.5 -7.5z" />
<glyph unicode="&#xa5;" d="M70 484h82l-122 228q-8 13 -3 25.5t21 12.5h19q28 0 40 -24l178 -361l178 361q12 24 40 24h19q16 0 21 -12.5t-3 -25.5l-122 -228h82q30 0 30 -28v-10q0 -28 -30 -28h-118l-46 -86h164q30 0 30 -28v-10q0 -28 -30 -28h-180v-234q0 -32 -30 -32h-10q-30 0 -30 32v234h-180 q-30 0 -30 28v10q0 28 30 28h163l-46 86h-117q-30 0 -30 28v10q0 28 30 28z" />
<glyph unicode="&#xa6;" horiz-adv-x="245" d="M158 784v-414q0 -32 -30 -32h-11q-30 0 -30 32v414q0 32 30 32h11q30 0 30 -32zM158 240v-414q0 -32 -30 -32h-11q-30 0 -30 32v414q0 32 30 32h11q30 0 30 -32z" />
<glyph unicode="&#xa7;" horiz-adv-x="619" d="M512 228q0 36 -9 58.5t-30.5 35.5t-47 19.5t-69.5 14.5q-9 1 -13 2q-109 18 -155 43q-81 -34 -81 -129q0 -36 9 -58.5t30.5 -35.5t47 -19.5t69.5 -14.5q4 0 7 -0.5t6 -1.5q111 -20 154 -43q82 34 82 129zM266 -260q-96 0 -168 24q-27 9 -27 34v14q0 12 9 17t26 -1 q63 -25 161 -25q103 0 143.5 38t40.5 105q0 29 -9.5 50.5t-22 34t-40.5 23t-49 15t-64 12.5q-135 23 -181 61.5t-46 130.5q0 115 92 171q-32 38 -32 111q0 29 6 55t23 54.5t44.5 49t74 33.5t106.5 13q96 0 168 -24q27 -9 27 -34v-14q0 -12 -9 -17t-26 1q-63 25 -161 25 q-103 0 -143.5 -38t-40.5 -105q0 -29 9.5 -50.5t22 -34t40.5 -23t49 -15t64 -12.5q135 -23 181 -61.5t46 -130.5q0 -115 -92 -171q32 -41 32 -111q0 -29 -6 -55t-23 -54.5t-44.5 -49t-74 -33.5t-106.5 -13z" />
<glyph unicode="&#xa8;" d="M140 650q0 21 14.5 35.5t35.5 14.5t35.5 -14.5t14.5 -35.5t-14.5 -35.5t-35.5 -14.5t-35.5 14.5t-14.5 35.5zM330 650q0 21 14.5 35.5t35.5 14.5t35.5 -14.5t14.5 -35.5t-14.5 -35.5t-35.5 -14.5t-35.5 14.5t-14.5 35.5z" />
<glyph unicode="&#xa9;" horiz-adv-x="774" d="M387 52q121 0 191 68.5t70 192.5q0 123 -70 191.5t-191 68.5t-191 -68.5t-70 -191.5q0 -124 70 -192.5t191 -68.5zM387 -10q-143 0 -237.5 86.5t-94.5 236.5t94.5 236t237.5 86t237.5 -86t94.5 -236t-94.5 -236.5t-237.5 -86.5zM196 313q0 101 57.5 149.5t143.5 48.5 q56 0 99 -15q21 -7 21 -28v-9q0 -12 -9.5 -18.5t-22.5 -2.5q-40 11 -80 11q-139 0 -139 -136t139 -136q40 0 80 11q13 4 22.5 -2.5t9.5 -18.5v-9q0 -21 -21 -28q-43 -15 -99 -15q-86 0 -143.5 48.5t-57.5 149.5z" />
<glyph unicode="&#xaa;" horiz-adv-x="370" d="M325 632v-234q0 -23 -21 -23h-3q-10 0 -14.5 5t-10.5 19q-59 -34 -109 -34q-137 0 -137 124q0 53 34.5 84t104.5 35l92 5v21q0 36 -17.5 53t-61.5 17q-52 0 -93 -15q-16 -5 -24.5 0.5t-8.5 16.5v11q0 17 20 25q50 18 106 18q81 0 112 -32.5t31 -95.5zM261 564l-93 -8 q-35 -3 -54 -20.5t-19 -46.5t17.5 -48.5t56.5 -19.5q44 0 92 26v117z" />
<glyph unicode="&#xab;" horiz-adv-x="465" d="M201 98l-137 101q-24 17 -24 41v20q0 24 24 41l137 101q11 8 20 4t9 -17v-13q0 -18 -24 -39l-102 -87l102 -87q24 -21 24 -39v-13q0 -13 -9 -17t-20 4zM391 98l-137 101q-24 17 -24 41v20q0 24 24 41l137 101q11 8 20 4t9 -17v-13q0 -18 -24 -39l-102 -87l102 -87 q24 -21 24 -39v-13q0 -13 -9 -17t-20 4z" />
<glyph unicode="&#xac;" horiz-adv-x="646" d="M110 500h370q30 0 30 -32v-222q0 -32 -30 -32h-7q-30 0 -30 32v190h-333q-30 0 -30 29v6q0 29 30 29z" />
<glyph unicode="&#xad;" horiz-adv-x="310" d="M60 338h190q30 0 30 -29v-8q0 -29 -30 -29h-190q-30 0 -30 29v8q0 29 30 29z" />
<glyph unicode="&#xae;" horiz-adv-x="314" d="M157 760q63 0 100 -29t37 -106t-37 -106t-100 -29t-100 29t-37 106t37 106t100 29zM157 728q-50 0 -76 -21t-26 -82t26 -82t76 -21t76 21t26 82t-26 82t-76 21zM183 563l-23 41h-28v-36q0 -15 -14 -15h-4q-14 0 -14 15v114q0 15 14 15h50q50 0 50 -46q0 -31 -21 -41 l24 -43q3 -6 -0.5 -10t-9.5 -4h-6q-12 0 -18 10zM180 651q0 16 -18 16h-30v-32h30q18 0 18 16z" />
<glyph unicode="&#xaf;" d="M177 680h216q29 0 29 -28v-4q0 -28 -29 -28h-216q-29 0 -29 28v4q0 28 29 28z" />
<glyph unicode="&#xb0;" horiz-adv-x="336" d="M168 490q-59 0 -98.5 31.5t-39.5 103.5q0 73 39.5 104t98.5 31t98.5 -31t39.5 -104q0 -72 -39.5 -103.5t-98.5 -31.5zM168 705q-79 0 -79 -80t79 -80t79 80t-79 80z" />
<glyph unicode="&#xb1;" horiz-adv-x="490" d="M75 440h137v137q0 30 29 30h8q29 0 29 -30v-137h137q30 0 30 -29v-8q0 -29 -30 -29h-137v-137q0 -30 -29 -30h-8q-29 0 -29 30v137h-137q-30 0 -30 29v8q0 29 30 29zM75 141h340q30 0 30 -29v-8q0 -29 -30 -29h-340q-30 0 -30 29v8q0 29 30 29z" />
<glyph unicode="&#xb2;" horiz-adv-x="416" d="M191 697q-56 0 -105 -14q-14 -4 -22 3t-8 18v12q0 20 22 27q55 17 112 17q89 0 129.5 -36.5t40.5 -96.5q0 -38 -32.5 -77.5t-66 -63t-117.5 -77.5q-8 -5 -12 -8h214q30 0 30 -29v-2q0 -29 -30 -29h-281q-30 0 -30 29v4q0 18 21 31q151 99 194.5 138.5t43.5 84.5 q0 69 -103 69z" />
<glyph unicode="&#xb3;" horiz-adv-x="430" d="M208 392q58 0 88.5 18t30.5 50q0 37 -19 51.5t-71 14.5h-88q-29 0 -29 28v2q0 28 29 28h87q42 0 58.5 14t16.5 45q0 55 -105 55q-81 0 -124 -13q-13 -4 -21.5 2.5t-8.5 17.5v13q0 22 22 28q54 14 131 14q171 0 171 -117q0 -30 -12.5 -51t-30.5 -29q62 -23 62 -104 q0 -59 -47.5 -93.5t-140.5 -34.5q-77 0 -140 15q-22 5 -22 28v13q0 11 8 17.5t22 2.5q58 -15 133 -15z" />
<glyph unicode="&#xb4;" d="M266 574l37 149q6 27 35 27h15q15 0 21 -11t1 -25l-56 -141q-9 -23 -30 -23h-3q-12 0 -17 7t-3 17z" />
<glyph unicode="&#xb6;" horiz-adv-x="590" d="M447 32v268h-77v-268q0 -32 -30 -32h-8q-30 0 -30 32v268h-16q-131 0 -191 63.5t-60 161.5t60 161.5t191 63.5h199q30 0 30 -32v-686q0 -32 -30 -32h-8q-30 0 -30 32zM109 525q0 -31 7 -56.5t24 -51t52 -40t85 -14.5h25v324h-25q-50 0 -85 -14.5t-52 -40t-24 -51 t-7 -56.5zM447 363v324h-77v-324h77z" />
<glyph unicode="&#xb7;" horiz-adv-x="160" d="M45 305q0 21 14.5 35.5t35.5 14.5t35.5 -14.5t14.5 -35.5t-14.5 -35.5t-35.5 -14.5t-35.5 14.5t-14.5 35.5z" />
<glyph unicode="&#xb8;" d="M306 -13l4 -51q95 -24 95 -97q0 -41 -29.5 -65t-81.5 -24q-42 0 -72 9q-22 7 -22 27v5q0 9 6.5 14t18.5 2q27 -6 52 -6q67 0 67 36q0 47 -64 59q-25 4 -22 31l6 60q2 18 19 18h4q17 0 19 -18z" />
<glyph unicode="&#xb9;" horiz-adv-x="290" d="M145 689l-91 -3q-17 0 -17 15v4q0 12 14 17l102 30q27 8 37 8h2q21 0 21 -22v-365q0 -32 -30 -32h-8q-30 0 -30 32v316z" />
<glyph unicode="&#xba;" horiz-adv-x="419" d="M35 563q0 98 41 147.5t130 49.5q178 0 178 -197q0 -198 -178 -198q-89 0 -130 50t-41 148zM97 563q0 -74 26 -107t83 -33q117 0 117 140q0 72 -29 105.5t-88 33.5q-57 0 -83 -32.5t-26 -106.5z" />
<glyph unicode="&#xbb;" horiz-adv-x="465" d="M401 199l-137 -101q-10 -8 -19.5 -4t-9.5 17v13q0 18 24 39l102 87l-102 87q-24 21 -24 39v13q0 13 9.5 17t19.5 -4l137 -101q24 -17 24 -41v-20q0 -24 -24 -41zM211 199l-137 -101q-10 -8 -19.5 -4t-9.5 17v13q0 18 24 39l102 87l-102 87q-24 21 -24 39v13q0 13 9.5 17 t19.5 -4l137 -101q24 -17 24 -41v-20q0 -24 -24 -41z" />
<glyph unicode="&#xbc;" horiz-adv-x="933" d="M701 713l-487 -689q-17 -24 -41 -24h-12q-13 0 -19 12t3 25l487 689q17 24 41 24h12q13 0 19 -12t-3 -25zM145 689l-91 -3q-17 0 -17 15v4q0 12 14 17l102 30q27 8 37 8h2q21 0 21 -22v-365q0 -32 -30 -32h-8q-30 0 -30 32v316zM608 179h135v139zM808 179h53q32 0 32 -29 v-3q0 -29 -32 -29h-53v-91q0 -27 -26 -27h-13q-26 0 -26 27v91h-201q-32 0 -32 27v2q0 11 24 37l206 214q21 21 37 21h5q26 0 26 -27v-213z" />
<glyph unicode="&#xbd;" horiz-adv-x="946" d="M701 713l-487 -689q-17 -24 -41 -24h-12q-13 0 -19 12t3 25l487 689q17 24 41 24h12q13 0 19 -12t-3 -25zM145 689l-91 -3q-17 0 -17 15v4q0 12 14 17l102 30q27 8 37 8h2q21 0 21 -22v-365q0 -32 -30 -32h-8q-30 0 -30 32v316zM731 356q-56 0 -105 -14q-14 -4 -22 3 t-8 18v12q0 20 22 27q55 17 112 17q89 0 129.5 -36.5t40.5 -96.5q0 -38 -32.5 -77.5t-66 -63t-117.5 -77.5q-8 -5 -12 -8h214q30 0 30 -29v-2q0 -29 -30 -29h-281q-30 0 -30 29v4q0 18 21 31q151 99 194.5 138.5t43.5 84.5q0 69 -103 69z" />
<glyph unicode="&#xbe;" horiz-adv-x="1063" d="M832 713l-487 -689q-17 -24 -41 -24h-12q-13 0 -19 12t3 25l487 689q17 24 41 24h12q13 0 19 -12t-3 -25zM208 392q58 0 88.5 18t30.5 50q0 37 -19 51.5t-71 14.5h-88q-29 0 -29 28v2q0 28 29 28h87q42 0 58.5 14t16.5 45q0 55 -105 55q-81 0 -124 -13q-13 -4 -21.5 2.5 t-8.5 17.5v13q0 22 22 28q54 14 131 14q171 0 171 -117q0 -30 -12.5 -51t-30.5 -29q62 -23 62 -104q0 -59 -47.5 -93.5t-140.5 -34.5q-77 0 -140 15q-22 5 -22 28v13q0 11 8 17.5t22 2.5q58 -15 133 -15zM738 179h135v139zM938 179h53q32 0 32 -29v-3q0 -29 -32 -29h-53v-91 q0 -27 -26 -27h-13q-26 0 -26 27v91h-201q-32 0 -32 27v2q0 11 24 37l206 214q21 21 37 21h5q26 0 26 -27v-213z" />
<glyph unicode="&#xbf;" horiz-adv-x="470" d="M352 460q0 -21 -14.5 -35.5t-35.5 -14.5t-35.5 14.5t-14.5 35.5t14.5 35.5t35.5 14.5t35.5 -14.5t14.5 -35.5zM291 -260q-75 0 -126 16t-76 45.5t-34.5 61.5t-9.5 75q0 46 12 78.5t40 56.5t55.5 38.5t76.5 34.5q26 11 41 23t22 30.5t8.5 31.5t2.5 41q0 18 20 18h1 q17 0 20 -20q4 -22 4 -44q0 -47 -21.5 -79.5t-83.5 -56.5q-28 -11 -40 -16t-34 -18t-31 -26.5t-17.5 -37t-8.5 -53.5q0 -69 37 -103t141 -34q69 0 125 14q15 3 22.5 -3t7.5 -17v-10q0 -21 -22 -28q-52 -18 -132 -18z" />
<glyph unicode="&#xc0;" horiz-adv-x="630" d="M302 876l25 -49q5 -10 0.5 -18.5t-15.5 -8.5h-9q-13 0 -28 17l-42 47q-10 11 -4.5 23.5t18.5 12.5h19q24 0 36 -24zM26 32l255 702q9 26 31 26h6q22 0 31 -26l255 -702q6 -15 -1 -23.5t-19 -8.5h-20q-26 0 -35 27l-63 183h-302l-63 -183q-9 -27 -35 -27h-20 q-12 0 -19 8.5t-1 23.5zM315 646l-130 -377h260z" />
<glyph unicode="&#xc1;" horiz-adv-x="630" d="M303 827l25 49q12 24 36 24h19q13 0 18.5 -12.5t-4.5 -23.5l-42 -47q-15 -17 -28 -17h-9q-11 0 -15.5 8.5t0.5 18.5zM26 32l255 702q9 26 31 26h6q22 0 31 -26l255 -702q6 -15 -1 -23.5t-19 -8.5h-20q-26 0 -35 27l-63 183h-302l-63 -183q-9 -27 -35 -27h-20 q-12 0 -19 8.5t-1 23.5zM315 646l-130 -377h260z" />
<glyph unicode="&#xc2;" horiz-adv-x="630" d="M381 878l60 -53q8 -7 5.5 -16t-11.5 -9h-5q-15 0 -37 12l-78 44l-78 -44q-22 -12 -37 -12h-5q-9 0 -11.5 9t5.5 16l60 53q26 22 47 22h38q21 0 47 -22zM26 32l255 702q9 26 31 26h6q22 0 31 -26l255 -702q6 -15 -1 -23.5t-19 -8.5h-20q-26 0 -35 27l-63 183h-302 l-63 -183q-9 -27 -35 -27h-20q-12 0 -19 8.5t-1 23.5zM315 646l-130 -377h260z" />
<glyph unicode="&#xc3;" horiz-adv-x="630" d="M239 910q35 0 62 -15t48 -30.5t42 -15.5q36 0 45 27q8 24 30 24h2q13 0 20.5 -9t5.5 -23q-4 -34 -31.5 -56t-71.5 -22q-35 0 -62 15t-48 30.5t-42 15.5q-36 0 -45 -27q-8 -24 -30 -24h-2q-13 0 -20.5 9t-5.5 23q4 34 31.5 56t71.5 22zM26 32l255 702q9 26 31 26h6 q22 0 31 -26l255 -702q6 -15 -1 -23.5t-19 -8.5h-20q-26 0 -35 27l-63 183h-302l-63 -183q-9 -27 -35 -27h-20q-12 0 -19 8.5t-1 23.5zM315 646l-130 -377h260z" />
<glyph unicode="&#xc4;" horiz-adv-x="630" d="M170 850q0 21 14.5 35.5t35.5 14.5t35.5 -14.5t14.5 -35.5t-14.5 -35.5t-35.5 -14.5t-35.5 14.5t-14.5 35.5zM360 850q0 21 14.5 35.5t35.5 14.5t35.5 -14.5t14.5 -35.5t-14.5 -35.5t-35.5 -14.5t-35.5 14.5t-14.5 35.5zM26 32l255 702q9 26 31 26h6q22 0 31 -26 l255 -702q6 -15 -1 -23.5t-19 -8.5h-20q-26 0 -35 27l-63 183h-302l-63 -183q-9 -27 -35 -27h-20q-12 0 -19 8.5t-1 23.5zM315 646l-130 -377h260z" />
<glyph unicode="&#xc5;" horiz-adv-x="630" d="M315 921q94 0 94 -71t-94 -71t-94 71t94 71zM315 828q44 0 44 22t-44 22t-44 -22t44 -22zM26 32l255 702q9 26 31 26h6q22 0 31 -26l255 -702q6 -15 -1 -23.5t-19 -8.5h-20q-26 0 -35 27l-63 183h-302l-63 -183q-9 -27 -35 -27h-20q-12 0 -19 8.5t-1 23.5zM315 646 l-130 -377h260z" />
<glyph unicode="&#xc6;" horiz-adv-x="975" d="M518 422h332q30 0 30 -29v-5q0 -29 -30 -29h-321l48 -296h308q30 0 30 -29v-5q0 -29 -30 -29h-336q-30 0 -35 31l-30 179h-294l-97 -194q-8 -16 -30 -16h-17q-15 0 -20.5 11.5t1.5 22.5l355 688q14 28 41 28h462q30 0 30 -29v-5q0 -29 -30 -29h-410zM475 269l-63 386 l-193 -386h256z" />
<glyph unicode="&#xc7;" horiz-adv-x="610" d="M60 375q0 84 15 151t48 121t92 83.5t140 29.5q100 0 169 -25q26 -9 26 -34v-14q0 -10 -8 -16t-23 -1q-75 27 -164 27q-116 0 -169.5 -87.5t-53.5 -234.5t53.5 -234.5t169.5 -87.5q89 0 164 27q15 5 23 -1t8 -16v-14q0 -25 -26 -34q-57 -22 -148 -25l4 -54q95 -24 95 -97 q0 -41 -29.5 -65t-81.5 -24q-42 0 -72 9q-22 7 -22 27v5q0 9 6.5 14t18.5 2q27 -6 52 -6q67 0 67 36q0 47 -64 59q-25 4 -22 31l6 64q-274 13 -274 384z" />
<glyph unicode="&#xc8;" d="M287 876l25 -49q5 -10 0.5 -18.5t-15.5 -8.5h-9q-13 0 -28 17l-42 47q-10 11 -4.5 23.5t18.5 12.5h19q24 0 36 -24zM143 687v-265h302q30 0 30 -29v-5q0 -29 -30 -29h-302v-296h337q30 0 30 -29v-5q0 -29 -30 -29h-375q-30 0 -30 32v686q0 32 30 32h375q30 0 30 -29v-5 q0 -29 -30 -29h-337z" />
<glyph unicode="&#xc9;" d="M288 827l25 49q12 24 36 24h19q13 0 18.5 -12.5t-4.5 -23.5l-42 -47q-15 -17 -28 -17h-9q-11 0 -15.5 8.5t0.5 18.5zM143 687v-265h302q30 0 30 -29v-5q0 -29 -30 -29h-302v-296h337q30 0 30 -29v-5q0 -29 -30 -29h-375q-30 0 -30 32v686q0 32 30 32h375q30 0 30 -29v-5 q0 -29 -30 -29h-337z" />
<glyph unicode="&#xca;" d="M366 878l60 -53q8 -7 5.5 -16t-11.5 -9h-5q-15 0 -37 12l-78 44l-78 -44q-22 -12 -37 -12h-5q-9 0 -11.5 9t5.5 16l60 53q26 22 47 22h38q21 0 47 -22zM143 687v-265h302q30 0 30 -29v-5q0 -29 -30 -29h-302v-296h337q30 0 30 -29v-5q0 -29 -30 -29h-375q-30 0 -30 32 v686q0 32 30 32h375q30 0 30 -29v-5q0 -29 -30 -29h-337z" />
<glyph unicode="&#xcb;" d="M155 850q0 21 14.5 35.5t35.5 14.5t35.5 -14.5t14.5 -35.5t-14.5 -35.5t-35.5 -14.5t-35.5 14.5t-14.5 35.5zM345 850q0 21 14.5 35.5t35.5 14.5t35.5 -14.5t14.5 -35.5t-14.5 -35.5t-35.5 -14.5t-35.5 14.5t-14.5 35.5zM143 687v-265h302q30 0 30 -29v-5q0 -29 -30 -29 h-302v-296h337q30 0 30 -29v-5q0 -29 -30 -29h-375q-30 0 -30 32v686q0 32 30 32h375q30 0 30 -29v-5q0 -29 -30 -29h-337z" />
<glyph unicode="&#xcc;" horiz-adv-x="260" d="M117 876l25 -49q5 -10 0.5 -18.5t-15.5 -8.5h-9q-13 0 -28 17l-42 47q-10 11 -4.5 23.5t18.5 12.5h19q24 0 36 -24zM165 718v-686q0 -32 -30 -32h-10q-30 0 -30 32v686q0 32 30 32h10q30 0 30 -32z" />
<glyph unicode="&#xcd;" horiz-adv-x="260" d="M118 827l25 49q12 24 36 24h19q13 0 18.5 -12.5t-4.5 -23.5l-42 -47q-15 -17 -28 -17h-9q-11 0 -15.5 8.5t0.5 18.5zM165 718v-686q0 -32 -30 -32h-10q-30 0 -30 32v686q0 32 30 32h10q30 0 30 -32z" />
<glyph unicode="&#xce;" horiz-adv-x="260" d="M196 878l60 -53q8 -7 5.5 -16t-11.5 -9h-5q-15 0 -37 12l-78 44l-78 -44q-22 -12 -37 -12h-5q-9 0 -11.5 9t5.5 16l60 53q26 22 47 22h38q21 0 47 -22zM165 718v-686q0 -32 -30 -32h-10q-30 0 -30 32v686q0 32 30 32h10q30 0 30 -32z" />
<glyph unicode="&#xcf;" horiz-adv-x="260" d="M5 850q0 21 14.5 35.5t35.5 14.5t35.5 -14.5t14.5 -35.5t-14.5 -35.5t-35.5 -14.5t-35.5 14.5t-14.5 35.5zM155 850q0 21 14.5 35.5t35.5 14.5t35.5 -14.5t14.5 -35.5t-14.5 -35.5t-35.5 -14.5t-35.5 14.5t-14.5 35.5zM165 718v-686q0 -32 -30 -32h-10q-30 0 -30 32v686 q0 32 30 32h10q30 0 30 -32z" />
<glyph unicode="&#xd0;" horiz-adv-x="685" d="M40 415h65v303q0 32 30 32h174q89 0 152 -28t98 -80.5t50.5 -117.5t15.5 -149t-15.5 -149t-50.5 -117.5t-98 -80.5t-152 -28h-174q-30 0 -30 32v330h-65q-25 0 -25 24v5q0 24 25 24zM173 687v-272h158q25 0 25 -24v-5q0 -24 -25 -24h-158v-299h140q240 0 240 312 t-240 312h-140z" />
<glyph unicode="&#xd1;" horiz-adv-x="670" d="M259 910q35 0 62 -15t48 -30.5t42 -15.5q36 0 45 27q8 24 30 24h2q13 0 20.5 -9t5.5 -23q-4 -34 -31.5 -56t-71.5 -22q-35 0 -62 15t-48 30.5t-42 15.5q-36 0 -45 -27q-8 -24 -30 -24h-2q-13 0 -20.5 9t-5.5 23q4 34 31.5 56t71.5 22zM135 736l394 -597l-2 579 q0 32 30 32h8q30 0 30 -32v-686q0 -32 -30 -32h-5q-16 0 -25 14l-394 597l2 -579q0 -32 -30 -32h-8q-30 0 -30 32v686q0 32 30 32h5q16 0 25 -14z" />
<glyph unicode="&#xd2;" horiz-adv-x="680" d="M327 876l25 -49q5 -10 0.5 -18.5t-15.5 -8.5h-9q-13 0 -28 17l-42 47q-10 11 -4.5 23.5t18.5 12.5h19q24 0 36 -24zM340 53q53 0 91 17t60.5 44t35.5 70.5t17 87t4 103.5t-4 103.5t-17 87t-35.5 70.5t-60.5 44t-91 17t-91 -17t-60.5 -44t-35.5 -70.5t-17 -87t-4 -103.5 t4 -103.5t17 -87t35.5 -70.5t60.5 -44t91 -17zM340 -10q-71 0 -123 22t-81.5 56.5t-47 87.5t-23 103t-5.5 116t5.5 116t23 103t47 87.5t81.5 56.5t123 22t123 -22t81.5 -56.5t47 -87.5t23 -103t5.5 -116t-5.5 -116t-23 -103t-47 -87.5t-81.5 -56.5t-123 -22z" />
<glyph unicode="&#xd3;" horiz-adv-x="680" d="M328 827l25 49q12 24 36 24h19q13 0 18.5 -12.5t-4.5 -23.5l-42 -47q-15 -17 -28 -17h-9q-11 0 -15.5 8.5t0.5 18.5zM340 53q53 0 91 17t60.5 44t35.5 70.5t17 87t4 103.5t-4 103.5t-17 87t-35.5 70.5t-60.5 44t-91 17t-91 -17t-60.5 -44t-35.5 -70.5t-17 -87t-4 -103.5 t4 -103.5t17 -87t35.5 -70.5t60.5 -44t91 -17zM340 -10q-71 0 -123 22t-81.5 56.5t-47 87.5t-23 103t-5.5 116t5.5 116t23 103t47 87.5t81.5 56.5t123 22t123 -22t81.5 -56.5t47 -87.5t23 -103t5.5 -116t-5.5 -116t-23 -103t-47 -87.5t-81.5 -56.5t-123 -22z" />
<glyph unicode="&#xd4;" horiz-adv-x="680" d="M406 878l60 -53q8 -7 5.5 -16t-11.5 -9h-5q-15 0 -37 12l-78 44l-78 -44q-22 -12 -37 -12h-5q-9 0 -11.5 9t5.5 16l60 53q26 22 47 22h38q21 0 47 -22zM340 53q53 0 91 17t60.5 44t35.5 70.5t17 87t4 103.5t-4 103.5t-17 87t-35.5 70.5t-60.5 44t-91 17t-91 -17 t-60.5 -44t-35.5 -70.5t-17 -87t-4 -103.5t4 -103.5t17 -87t35.5 -70.5t60.5 -44t91 -17zM340 -10q-71 0 -123 22t-81.5 56.5t-47 87.5t-23 103t-5.5 116t5.5 116t23 103t47 87.5t81.5 56.5t123 22t123 -22t81.5 -56.5t47 -87.5t23 -103t5.5 -116t-5.5 -116t-23 -103 t-47 -87.5t-81.5 -56.5t-123 -22z" />
<glyph unicode="&#xd5;" horiz-adv-x="680" d="M264 910q35 0 62 -15t48 -30.5t42 -15.5q36 0 45 27q8 24 30 24h2q13 0 20.5 -9t5.5 -23q-4 -34 -31.5 -56t-71.5 -22q-35 0 -62 15t-48 30.5t-42 15.5q-36 0 -45 -27q-8 -24 -30 -24h-2q-13 0 -20.5 9t-5.5 23q4 34 31.5 56t71.5 22zM340 53q53 0 91 17t60.5 44 t35.5 70.5t17 87t4 103.5t-4 103.5t-17 87t-35.5 70.5t-60.5 44t-91 17t-91 -17t-60.5 -44t-35.5 -70.5t-17 -87t-4 -103.5t4 -103.5t17 -87t35.5 -70.5t60.5 -44t91 -17zM340 -10q-71 0 -123 22t-81.5 56.5t-47 87.5t-23 103t-5.5 116t5.5 116t23 103t47 87.5t81.5 56.5 t123 22t123 -22t81.5 -56.5t47 -87.5t23 -103t5.5 -116t-5.5 -116t-23 -103t-47 -87.5t-81.5 -56.5t-123 -22z" />
<glyph unicode="&#xd6;" horiz-adv-x="680" d="M195 850q0 21 14.5 35.5t35.5 14.5t35.5 -14.5t14.5 -35.5t-14.5 -35.5t-35.5 -14.5t-35.5 14.5t-14.5 35.5zM385 850q0 21 14.5 35.5t35.5 14.5t35.5 -14.5t14.5 -35.5t-14.5 -35.5t-35.5 -14.5t-35.5 14.5t-14.5 35.5zM340 53q53 0 91 17t60.5 44t35.5 70.5t17 87 t4 103.5t-4 103.5t-17 87t-35.5 70.5t-60.5 44t-91 17t-91 -17t-60.5 -44t-35.5 -70.5t-17 -87t-4 -103.5t4 -103.5t17 -87t35.5 -70.5t60.5 -44t91 -17zM340 -10q-71 0 -123 22t-81.5 56.5t-47 87.5t-23 103t-5.5 116t5.5 116t23 103t47 87.5t81.5 56.5t123 22t123 -22 t81.5 -56.5t47 -87.5t23 -103t5.5 -116t-5.5 -116t-23 -103t-47 -87.5t-81.5 -56.5t-123 -22z" />
<glyph unicode="&#xd7;" horiz-adv-x="490" d="M70 212l129 129l-129 129q-23 21 -1 41l6 6q20 22 41 -1l129 -129l129 129q21 23 41 1l6 -6q22 -20 -1 -41l-129 -129l129 -129q23 -21 1 -41l-6 -6q-20 -22 -41 1l-129 129l-129 -129q-21 -23 -41 -1l-6 6q-22 20 1 41z" />
<glyph unicode="&#xd8;" horiz-adv-x="660" d="M582 716l-29 -47q67 -89 67 -294q0 -66 -5.5 -116t-23 -103t-47 -87.5t-81.5 -56.5t-123 -22q-108 0 -173 49l-14 -22q-10 -17 -32 -17h-8q-13 0 -18 10t3 24l28 46q-66 89 -66 295q0 66 5.5 116t23 103t47 87.5t81.5 56.5t123 22q107 0 173 -50l14 23q10 17 32 17h8 q13 0 18 -10t-3 -24zM340 53q53 0 91 17t60.5 44t35.5 70.5t17 87t4 103.5q0 155 -36 227l-309 -504q48 -45 137 -45zM132 375q0 -158 35 -228l310 504q-49 46 -137 46q-53 0 -91 -17t-60.5 -44t-35.5 -70.5t-17 -87t-4 -103.5z" />
<glyph unicode="&#xd9;" horiz-adv-x="670" d="M322 876l25 -49q5 -10 0.5 -18.5t-15.5 -8.5h-9q-13 0 -28 17l-42 47q-10 11 -4.5 23.5t18.5 12.5h19q24 0 36 -24zM70 235v483q0 32 30 32h8q30 0 30 -32v-472q0 -193 197 -193t197 193v472q0 32 30 32h8q30 0 30 -32v-483q0 -61 -19.5 -107t-47.5 -71.5t-66.5 -41.5 t-69 -20.5t-62.5 -4.5t-62.5 4.5t-69 20.5t-66.5 41.5t-47.5 71.5t-19.5 107z" />
<glyph unicode="&#xda;" horiz-adv-x="670" d="M323 827l25 49q12 24 36 24h19q13 0 18.5 -12.5t-4.5 -23.5l-42 -47q-15 -17 -28 -17h-9q-11 0 -15.5 8.5t0.5 18.5zM70 235v483q0 32 30 32h8q30 0 30 -32v-472q0 -193 197 -193t197 193v472q0 32 30 32h8q30 0 30 -32v-483q0 -61 -19.5 -107t-47.5 -71.5t-66.5 -41.5 t-69 -20.5t-62.5 -4.5t-62.5 4.5t-69 20.5t-66.5 41.5t-47.5 71.5t-19.5 107z" />
<glyph unicode="&#xdb;" horiz-adv-x="670" d="M401 878l60 -53q8 -7 5.5 -16t-11.5 -9h-5q-15 0 -37 12l-78 44l-78 -44q-22 -12 -37 -12h-5q-9 0 -11.5 9t5.5 16l60 53q26 22 47 22h38q21 0 47 -22zM70 235v483q0 32 30 32h8q30 0 30 -32v-472q0 -193 197 -193t197 193v472q0 32 30 32h8q30 0 30 -32v-483 q0 -61 -19.5 -107t-47.5 -71.5t-66.5 -41.5t-69 -20.5t-62.5 -4.5t-62.5 4.5t-69 20.5t-66.5 41.5t-47.5 71.5t-19.5 107z" />
<glyph unicode="&#xdc;" horiz-adv-x="670" d="M190 850q0 21 14.5 35.5t35.5 14.5t35.5 -14.5t14.5 -35.5t-14.5 -35.5t-35.5 -14.5t-35.5 14.5t-14.5 35.5zM380 850q0 21 14.5 35.5t35.5 14.5t35.5 -14.5t14.5 -35.5t-14.5 -35.5t-35.5 -14.5t-35.5 14.5t-14.5 35.5zM70 235v483q0 32 30 32h8q30 0 30 -32v-472 q0 -193 197 -193t197 193v472q0 32 30 32h8q30 0 30 -32v-483q0 -61 -19.5 -107t-47.5 -71.5t-66.5 -41.5t-69 -20.5t-62.5 -4.5t-62.5 4.5t-69 20.5t-66.5 41.5t-47.5 71.5t-19.5 107z" />
<glyph unicode="&#xdd;" horiz-adv-x="670" d="M323 827l25 49q12 24 36 24h19q13 0 18.5 -12.5t-4.5 -23.5l-42 -47q-15 -17 -28 -17h-9q-11 0 -15.5 8.5t0.5 18.5zM634 712l-265 -404v-276q0 -32 -30 -32h-8q-30 0 -30 32v276l-265 404q-9 13 -3 25.5t21 12.5h9q25 0 40 -24l232 -361l232 361q15 24 40 24h9 q15 0 21 -12.5t-3 -25.5z" />
<glyph unicode="&#xde;" d="M143 718v-118h161q131 0 191 -63.5t60 -161.5t-60 -161.5t-191 -63.5h-161v-118q0 -32 -30 -32h-8q-30 0 -30 32v686q0 32 30 32h8q30 0 30 -32zM143 537v-324h170q50 0 85 14.5t52 40t24 51t7 56.5t-7 56.5t-24 51t-52 40t-85 14.5h-170z" />
<glyph unicode="&#xdf;" horiz-adv-x="538" d="M84 32v578q0 73 45.5 111.5t134.5 38.5q177 0 177 -150q0 -43 -16 -74t-38.5 -48t-45.5 -32t-39 -35.5t-16 -48.5q0 -32 17 -48t66 -32q80 -26 112 -57t32 -92q0 -65 -40.5 -109t-126.5 -44q-55 0 -100 17q-22 9 -22 27v15q0 25 29 18q60 -15 93 -15q100 0 100 90 q0 37 -18.5 55.5t-74.5 35.5q-76 23 -104 53.5t-28 85.5q0 39 16 66t39 43.5t46 31.5t39 39t16 58q0 88 -113 88t-113 -88v-578q0 -32 -30 -32h-7q-30 0 -30 32z" />
<glyph unicode="&#xe0;" horiz-adv-x="495" d="M223 723l37 -149q2 -10 -3 -17t-17 -7h-3q-21 0 -30 23l-56 141q-5 14 1 25t21 11h15q29 0 35 -27zM360 266l-137 -13q-102 -10 -102 -102q0 -20 3.5 -35t13.5 -31t32.5 -24.5t56.5 -8.5q64 0 133 40v174zM241 448q-62 0 -119 -17q-17 -5 -27 1.5t-10 17.5v12q0 19 22 28 q54 20 134 20q106 0 147.5 -43t41.5 -125v-319q0 -23 -21 -23h-2q-10 0 -14.5 5t-10.5 19l-6 16q-68 -50 -151 -50q-92 0 -133.5 45.5t-41.5 115.5q0 145 178 156l132 8v28q0 57 -25.5 81t-93.5 24z" />
<glyph unicode="&#xe1;" horiz-adv-x="495" d="M222 574l37 149q6 27 35 27h15q15 0 21 -11t1 -25l-56 -141q-9 -23 -30 -23h-3q-12 0 -17 7t-3 17zM360 266l-137 -13q-102 -10 -102 -102q0 -20 3.5 -35t13.5 -31t32.5 -24.5t56.5 -8.5q64 0 133 40v174zM241 448q-62 0 -119 -17q-17 -5 -27 1.5t-10 17.5v12q0 19 22 28 q54 20 134 20q106 0 147.5 -43t41.5 -125v-319q0 -23 -21 -23h-2q-10 0 -14.5 5t-10.5 19l-6 16q-68 -50 -151 -50q-92 0 -133.5 45.5t-41.5 115.5q0 145 178 156l132 8v28q0 57 -25.5 81t-93.5 24z" />
<glyph unicode="&#xe2;" horiz-adv-x="495" d="M294 731l114 -155q7 -9 3 -17.5t-14 -8.5h-6q-20 0 -36 17l-114 124l-114 -124q-16 -17 -36 -17h-6q-10 0 -14 8.5t3 17.5l114 155q13 19 35 19h36q22 0 35 -19zM360 266l-137 -13q-102 -10 -102 -102q0 -20 3.5 -35t13.5 -31t32.5 -24.5t56.5 -8.5q64 0 133 40v174z M241 448q-62 0 -119 -17q-17 -5 -27 1.5t-10 17.5v12q0 19 22 28q54 20 134 20q106 0 147.5 -43t41.5 -125v-319q0 -23 -21 -23h-2q-10 0 -14.5 5t-10.5 19l-6 16q-68 -50 -151 -50q-92 0 -133.5 45.5t-41.5 115.5q0 145 178 156l132 8v28q0 57 -25.5 81t-93.5 24z" />
<glyph unicode="&#xe3;" horiz-adv-x="495" d="M165 715q28 0 51 -11t36.5 -24.5t30.5 -24.5t34 -11q36 0 45 27q8 24 30 24h2q13 0 20.5 -9t5.5 -23q-4 -34 -31.5 -56t-71.5 -22q-28 0 -51 11t-36.5 24.5t-30.5 24.5t-34 11q-36 0 -45 -27q-8 -24 -30 -24h-2q-13 0 -20.5 9t-5.5 23q4 34 31.5 56t71.5 22zM360 266 l-137 -13q-102 -10 -102 -102q0 -20 3.5 -35t13.5 -31t32.5 -24.5t56.5 -8.5q64 0 133 40v174zM241 448q-62 0 -119 -17q-17 -5 -27 1.5t-10 17.5v12q0 19 22 28q54 20 134 20q106 0 147.5 -43t41.5 -125v-319q0 -23 -21 -23h-2q-10 0 -14.5 5t-10.5 19l-6 16 q-68 -50 -151 -50q-92 0 -133.5 45.5t-41.5 115.5q0 145 178 156l132 8v28q0 57 -25.5 81t-93.5 24z" />
<glyph unicode="&#xe4;" horiz-adv-x="495" d="M96 650q0 21 14.5 35.5t35.5 14.5t35.5 -14.5t14.5 -35.5t-14.5 -35.5t-35.5 -14.5t-35.5 14.5t-14.5 35.5zM286 650q0 21 14.5 35.5t35.5 14.5t35.5 -14.5t14.5 -35.5t-14.5 -35.5t-35.5 -14.5t-35.5 14.5t-14.5 35.5zM360 266l-137 -13q-102 -10 -102 -102 q0 -20 3.5 -35t13.5 -31t32.5 -24.5t56.5 -8.5q64 0 133 40v174zM241 448q-62 0 -119 -17q-17 -5 -27 1.5t-10 17.5v12q0 19 22 28q54 20 134 20q106 0 147.5 -43t41.5 -125v-319q0 -23 -21 -23h-2q-10 0 -14.5 5t-10.5 19l-6 16q-68 -50 -151 -50q-92 0 -133.5 45.5 t-41.5 115.5q0 145 178 156l132 8v28q0 57 -25.5 81t-93.5 24z" />
<glyph unicode="&#xe5;" horiz-adv-x="495" d="M241 702q-54 0 -54 -52t54 -52t54 52t-54 52zM241 549q-47 0 -75.5 25.5t-28.5 75.5t28.5 75.5t75.5 25.5t75.5 -25.5t28.5 -75.5t-28.5 -75.5t-75.5 -25.5zM360 266l-137 -13q-102 -10 -102 -102q0 -20 3.5 -35t13.5 -31t32.5 -24.5t56.5 -8.5q64 0 133 40v174zM241 448 q-62 0 -119 -17q-17 -5 -27 1.5t-10 17.5v12q0 19 22 28q54 20 134 20q106 0 147.5 -43t41.5 -125v-319q0 -23 -21 -23h-2q-10 0 -14.5 5t-10.5 19l-6 16q-68 -50 -151 -50q-92 0 -133.5 45.5t-41.5 115.5q0 145 178 156l132 8v28q0 57 -25.5 81t-93.5 24z" />
<glyph unicode="&#xe6;" horiz-adv-x="835" d="M380 224h-151q-60 0 -84 -21.5t-24 -61.5q0 -89 120 -89q87 0 141 45l17 15q-16 48 -19 111v1zM590 448q-54 0 -86 -25t-42 -58.5t-12 -83.5h260q0 31 -2 51t-8.5 44.5t-19 38.5t-35.5 23.5t-55 9.5zM249 510q134 0 177 -69q51 69 164 69q49 0 84.5 -14t56 -35.5 t31.5 -56.5t14.5 -68t3.5 -80q0 -32 -30 -32h-300v-6q3 -77 33.5 -121.5t106.5 -44.5q78 0 138 20q15 5 23 0t8 -16v-16q0 -18 -22 -27q-61 -23 -147 -23q-111 0 -163 68l-31 -24q-60 -44 -157 -44q-96 0 -142.5 41.5t-46.5 109.5q0 65 40.5 102.5t143.5 37.5h146v62 q0 56 -30 80.5t-101 24.5q-70 0 -127 -17q-17 -5 -27 1.5t-10 17.5v12q0 19 22 28q54 20 142 20z" />
<glyph unicode="&#xe7;" horiz-adv-x="460" d="M125 250q0 -43 4.5 -73.5t18 -61.5t43 -47t74.5 -16q61 0 121 16q16 5 24.5 -1t8.5 -17v-14q0 -21 -22 -28q-48 -17 -120 -18l4 -54q95 -24 95 -97q0 -41 -29.5 -65t-81.5 -24q-42 0 -72 9q-22 7 -22 27v5q0 9 6.5 14t18.5 2q27 -6 52 -6q67 0 67 36q0 47 -64 59 q-25 4 -22 31l6 65q-52 5 -88 26.5t-55.5 57.5t-28 78t-8.5 96q0 46 5.5 82.5t20 70.5t38 57t61 36.5t86.5 13.5q77 0 131 -18q22 -7 22 -28v-14q0 -11 -8.5 -17t-24.5 -1q-60 16 -121 16q-45 0 -74.5 -16t-43 -47t-18 -61.5t-4.5 -73.5z" />
<glyph unicode="&#xe8;" horiz-adv-x="510" d="M247 723l37 -149q2 -10 -3 -17t-17 -7h-3q-21 0 -30 23l-56 141q-5 14 1 25t21 11h15q29 0 35 -27zM265 448q-42 0 -70 -13.5t-42.5 -40t-20.5 -54t-7 -65.5h260q0 33 -1.5 53t-8 45.5t-18.5 40t-35.5 24.5t-56.5 10zM265 -10q-61 0 -103.5 19.5t-65 57t-32 81.5 t-9.5 102t9.5 102t32 81.5t65 57t103.5 19.5q50 0 85 -14t55.5 -35.5t31.5 -57.5t14.5 -70t3.5 -83q0 -32 -30 -32h-300q4 -77 33.5 -121.5t106.5 -44.5q78 0 138 20q15 5 23 0t8 -16v-16q0 -18 -22 -27q-61 -23 -147 -23z" />
<glyph unicode="&#xe9;" horiz-adv-x="510" d="M246 574l37 149q6 27 35 27h15q15 0 21 -11t1 -25l-56 -141q-9 -23 -30 -23h-3q-12 0 -17 7t-3 17zM265 448q-42 0 -70 -13.5t-42.5 -40t-20.5 -54t-7 -65.5h260q0 33 -1.5 53t-8 45.5t-18.5 40t-35.5 24.5t-56.5 10zM265 -10q-61 0 -103.5 19.5t-65 57t-32 81.5 t-9.5 102t9.5 102t32 81.5t65 57t103.5 19.5q50 0 85 -14t55.5 -35.5t31.5 -57.5t14.5 -70t3.5 -83q0 -32 -30 -32h-300q4 -77 33.5 -121.5t106.5 -44.5q78 0 138 20q15 5 23 0t8 -16v-16q0 -18 -22 -27q-61 -23 -147 -23z" />
<glyph unicode="&#xea;" horiz-adv-x="510" d="M318 731l114 -155q7 -9 3 -17.5t-14 -8.5h-6q-20 0 -36 17l-114 124l-114 -124q-16 -17 -36 -17h-6q-10 0 -14 8.5t3 17.5l114 155q13 19 35 19h36q22 0 35 -19zM265 448q-42 0 -70 -13.5t-42.5 -40t-20.5 -54t-7 -65.5h260q0 33 -1.5 53t-8 45.5t-18.5 40t-35.5 24.5 t-56.5 10zM265 -10q-61 0 -103.5 19.5t-65 57t-32 81.5t-9.5 102t9.5 102t32 81.5t65 57t103.5 19.5q50 0 85 -14t55.5 -35.5t31.5 -57.5t14.5 -70t3.5 -83q0 -32 -30 -32h-300q4 -77 33.5 -121.5t106.5 -44.5q78 0 138 20q15 5 23 0t8 -16v-16q0 -18 -22 -27 q-61 -23 -147 -23z" />
<glyph unicode="&#xeb;" horiz-adv-x="510" d="M120 650q0 21 14.5 35.5t35.5 14.5t35.5 -14.5t14.5 -35.5t-14.5 -35.5t-35.5 -14.5t-35.5 14.5t-14.5 35.5zM310 650q0 21 14.5 35.5t35.5 14.5t35.5 -14.5t14.5 -35.5t-14.5 -35.5t-35.5 -14.5t-35.5 14.5t-14.5 35.5zM265 448q-42 0 -70 -13.5t-42.5 -40t-20.5 -54 t-7 -65.5h260q0 33 -1.5 53t-8 45.5t-18.5 40t-35.5 24.5t-56.5 10zM265 -10q-61 0 -103.5 19.5t-65 57t-32 81.5t-9.5 102t9.5 102t32 81.5t65 57t103.5 19.5q50 0 85 -14t55.5 -35.5t31.5 -57.5t14.5 -70t3.5 -83q0 -32 -30 -32h-300q4 -77 33.5 -121.5t106.5 -44.5 q78 0 138 20q15 5 23 0t8 -16v-16q0 -18 -22 -27q-61 -23 -147 -23z" />
<glyph unicode="&#xec;" horiz-adv-x="240" d="M97 723l37 -149q2 -10 -3.5 -17t-16.5 -7h-3q-21 0 -30 23l-56 141q-5 14 1 25t21 11h15q29 0 35 -27zM149 468v-393q0 -24 23 -27t23 -24v-6q0 -24 -28 -24q-45 0 -65.5 22.5t-20.5 59.5v392q0 32 30 32h8q30 0 30 -32z" />
<glyph unicode="&#xed;" horiz-adv-x="240" d="M96 574l37 149q6 27 35 27h15q15 0 21 -11t1 -25l-56 -141q-9 -23 -30 -23h-3q-12 0 -17 7t-3 17zM149 468v-393q0 -24 23 -27t23 -24v-6q0 -24 -28 -24q-45 0 -65.5 22.5t-20.5 59.5v392q0 32 30 32h8q30 0 30 -32z" />
<glyph unicode="&#xee;" horiz-adv-x="240" d="M168 731l114 -155q7 -9 3 -17.5t-14 -8.5h-6q-20 0 -36 17l-114 124l-114 -124q-16 -17 -36 -17h-6q-10 0 -14 8.5t3 17.5l114 155q13 19 35 19h36q22 0 35 -19zM149 468v-393q0 -24 23 -27t23 -24v-6q0 -24 -28 -24q-45 0 -65.5 22.5t-20.5 59.5v392q0 32 30 32h8 q30 0 30 -32z" />
<glyph unicode="&#xef;" horiz-adv-x="240" d="M-10 650q0 21 14.5 35.5t35.5 14.5t35.5 -14.5t14.5 -35.5t-14.5 -35.5t-35.5 -14.5t-35.5 14.5t-14.5 35.5zM140 650q0 21 14.5 35.5t35.5 14.5t35.5 -14.5t14.5 -35.5t-14.5 -35.5t-35.5 -14.5t-35.5 14.5t-14.5 35.5zM149 468v-393q0 -24 23 -27t23 -24v-6 q0 -24 -28 -24q-45 0 -65.5 22.5t-20.5 59.5v392q0 32 30 32h8q30 0 30 -32z" />
<glyph unicode="&#xf0;" horiz-adv-x="550" d="M152 613l93 48q-51 38 -117 62q-9 3 -11.5 9.5t1 12t11.5 5.5h70q28 0 55 -18t52 -40l85 44q13 7 23.5 0.5t10.5 -19.5v-4q0 -20 -17 -30l-61 -31q70 -77 109 -181t39 -221q0 -125 -49.5 -192.5t-170.5 -67.5t-170.5 67.5t-49.5 192.5t49.5 192.5t170.5 67.5 q57 0 106 -26q-39 84 -92 138l-120 -62q-13 -8 -23.5 -1t-10.5 20v4q0 20 17 30zM425 250q0 47 -5.5 79.5t-20.5 61t-46 43t-78 14.5q-48 0 -79 -14t-46 -43.5t-20 -61t-5 -79.5t5 -79.5t20 -61t46 -43.5t79 -14q47 0 78 14.5t46 43t20.5 61t5.5 79.5z" />
<glyph unicode="&#xf1;" horiz-adv-x="500" d="M179 715q28 0 51 -11t36.5 -24.5t30.5 -24.5t34 -11q36 0 45 27q8 24 30 24h2q13 0 20.5 -9t5.5 -23q-4 -34 -31.5 -56t-71.5 -22q-28 0 -51 11t-36.5 24.5t-30.5 24.5t-34 11q-36 0 -45 -27q-8 -24 -30 -24h-2q-13 0 -20.5 9t-5.5 23q4 34 31.5 56t71.5 22zM65 32v445 q0 23 21 23h2q10 0 15 -5.5t10 -19.5l6 -17q70 52 151 52q170 0 170 -150v-328q0 -32 -30 -32h-10q-30 0 -30 32v331q0 47 -25.5 66t-74.5 19q-77 0 -135 -32v-384q0 -32 -30 -32h-10q-30 0 -30 32z" />
<glyph unicode="&#xf2;" horiz-adv-x="530" d="M247 723l37 -149q2 -10 -3 -17t-17 -7h-3q-21 0 -30 23l-56 141q-5 14 1 25t21 11h15q29 0 35 -27zM475 250q0 -127 -45 -193.5t-165 -66.5t-165 66.5t-45 193.5t45 193.5t165 66.5t165 -66.5t45 -193.5zM405 250q0 50 -4 80t-17 60t-42.5 44t-76.5 14q-39 0 -65.5 -10.5 t-41 -26t-22 -44t-9.5 -53t-2 -64.5t2 -64.5t9.5 -53t22 -44t41 -26t65.5 -10.5q47 0 76.5 14t42.5 44t17 60t4 80z" />
<glyph unicode="&#xf3;" horiz-adv-x="530" d="M246 574l37 149q6 27 35 27h15q15 0 21 -11t1 -25l-56 -141q-9 -23 -30 -23h-3q-12 0 -17 7t-3 17zM475 250q0 -127 -45 -193.5t-165 -66.5t-165 66.5t-45 193.5t45 193.5t165 66.5t165 -66.5t45 -193.5zM405 250q0 50 -4 80t-17 60t-42.5 44t-76.5 14q-39 0 -65.5 -10.5 t-41 -26t-22 -44t-9.5 -53t-2 -64.5t2 -64.5t9.5 -53t22 -44t41 -26t65.5 -10.5q47 0 76.5 14t42.5 44t17 60t4 80z" />
<glyph unicode="&#xf4;" horiz-adv-x="530" d="M318 731l114 -155q7 -9 3 -17.5t-14 -8.5h-6q-20 0 -36 17l-114 124l-114 -124q-16 -17 -36 -17h-6q-10 0 -14 8.5t3 17.5l114 155q13 19 35 19h36q22 0 35 -19zM475 250q0 -127 -45 -193.5t-165 -66.5t-165 66.5t-45 193.5t45 193.5t165 66.5t165 -66.5t45 -193.5z M405 250q0 50 -4 80t-17 60t-42.5 44t-76.5 14q-39 0 -65.5 -10.5t-41 -26t-22 -44t-9.5 -53t-2 -64.5t2 -64.5t9.5 -53t22 -44t41 -26t65.5 -10.5q47 0 76.5 14t42.5 44t17 60t4 80z" />
<glyph unicode="&#xf5;" horiz-adv-x="530" d="M189 715q28 0 51 -11t36.5 -24.5t30.5 -24.5t34 -11q36 0 45 27q8 24 30 24h2q13 0 20.5 -9t5.5 -23q-4 -34 -31.5 -56t-71.5 -22q-28 0 -51 11t-36.5 24.5t-30.5 24.5t-34 11q-36 0 -45 -27q-8 -24 -30 -24h-2q-13 0 -20.5 9t-5.5 23q4 34 31.5 56t71.5 22zM475 250 q0 -127 -45 -193.5t-165 -66.5t-165 66.5t-45 193.5t45 193.5t165 66.5t165 -66.5t45 -193.5zM405 250q0 50 -4 80t-17 60t-42.5 44t-76.5 14q-39 0 -65.5 -10.5t-41 -26t-22 -44t-9.5 -53t-2 -64.5t2 -64.5t9.5 -53t22 -44t41 -26t65.5 -10.5q47 0 76.5 14t42.5 44t17 60 t4 80z" />
<glyph unicode="&#xf6;" horiz-adv-x="530" d="M120 650q0 21 14.5 35.5t35.5 14.5t35.5 -14.5t14.5 -35.5t-14.5 -35.5t-35.5 -14.5t-35.5 14.5t-14.5 35.5zM310 650q0 21 14.5 35.5t35.5 14.5t35.5 -14.5t14.5 -35.5t-14.5 -35.5t-35.5 -14.5t-35.5 14.5t-14.5 35.5zM475 250q0 -127 -45 -193.5t-165 -66.5t-165 66.5 t-45 193.5t45 193.5t165 66.5t165 -66.5t45 -193.5zM405 250q0 50 -4 80t-17 60t-42.5 44t-76.5 14q-39 0 -65.5 -10.5t-41 -26t-22 -44t-9.5 -53t-2 -64.5t2 -64.5t9.5 -53t22 -44t41 -26t65.5 -10.5q47 0 76.5 14t42.5 44t17 60t4 80z" />
<glyph unicode="&#xf7;" horiz-adv-x="490" d="M195 181q0 21 14.5 35.5t35.5 14.5t35.5 -14.5t14.5 -35.5t-14.5 -35.5t-35.5 -14.5t-35.5 14.5t-14.5 35.5zM195 501q0 21 14.5 35.5t35.5 14.5t35.5 -14.5t14.5 -35.5t-14.5 -35.5t-35.5 -14.5t-35.5 14.5t-14.5 35.5zM75 374h340q30 0 30 -29v-8q0 -29 -30 -29h-340 q-30 0 -30 29v8q0 29 30 29z" />
<glyph unicode="&#xf8;" horiz-adv-x="530" d="M475 250q0 -127 -45 -193.5t-165 -66.5q-77 0 -124 29l-1 -2q-12 -17 -32 -17h-11q-13 0 -18.5 10t3.5 24l17 24q-44 60 -44 192q0 127 45 193.5t165 66.5q76 0 125 -30l2 3q12 17 32 17h11q13 0 18.5 -10t-3.5 -24l-18 -26q43 -60 43 -190zM125 250q0 -95 15 -131 l213 307q-33 22 -88 22q-39 0 -65.5 -10.5t-41 -26t-22 -44t-9.5 -53t-2 -64.5zM405 250q0 89 -16 128l-211 -306q32 -20 87 -20q47 0 76.5 14t42.5 44t17 60t4 80z" />
<glyph unicode="&#xf9;" horiz-adv-x="500" d="M229 723l37 -149q2 -10 -3 -17t-17 -7h-3q-21 0 -30 23l-56 141q-5 14 1 25t21 11h15q29 0 35 -27zM435 468v-445q0 -23 -21 -23h-2q-10 0 -15 5.5t-10 19.5l-6 17q-70 -52 -151 -52q-170 0 -170 150v328q0 32 30 32h10q30 0 30 -32v-331q0 -47 25.5 -66t74.5 -19 q77 0 135 32v384q0 32 30 32h10q30 0 30 -32z" />
<glyph unicode="&#xfa;" horiz-adv-x="500" d="M228 574l37 149q6 27 35 27h15q15 0 21 -11t1 -25l-56 -141q-9 -23 -30 -23h-3q-12 0 -17 7t-3 17zM435 468v-445q0 -23 -21 -23h-2q-10 0 -15 5.5t-10 19.5l-6 17q-70 -52 -151 -52q-170 0 -170 150v328q0 32 30 32h10q30 0 30 -32v-331q0 -47 25.5 -66t74.5 -19 q77 0 135 32v384q0 32 30 32h10q30 0 30 -32z" />
<glyph unicode="&#xfb;" horiz-adv-x="500" d="M300 731l114 -155q7 -9 3 -17.5t-14 -8.5h-6q-20 0 -36 17l-114 124l-114 -124q-16 -17 -36 -17h-6q-10 0 -14 8.5t3 17.5l114 155q13 19 35 19h36q22 0 35 -19zM435 468v-445q0 -23 -21 -23h-2q-10 0 -15 5.5t-10 19.5l-6 17q-70 -52 -151 -52q-170 0 -170 150v328 q0 32 30 32h10q30 0 30 -32v-331q0 -47 25.5 -66t74.5 -19q77 0 135 32v384q0 32 30 32h10q30 0 30 -32z" />
<glyph unicode="&#xfc;" horiz-adv-x="500" d="M102 650q0 21 14.5 35.5t35.5 14.5t35.5 -14.5t14.5 -35.5t-14.5 -35.5t-35.5 -14.5t-35.5 14.5t-14.5 35.5zM292 650q0 21 14.5 35.5t35.5 14.5t35.5 -14.5t14.5 -35.5t-14.5 -35.5t-35.5 -14.5t-35.5 14.5t-14.5 35.5zM435 468v-445q0 -23 -21 -23h-2q-10 0 -15 5.5 t-10 19.5l-6 17q-70 -52 -151 -52q-170 0 -170 150v328q0 32 30 32h10q30 0 30 -32v-331q0 -47 25.5 -66t74.5 -19q77 0 135 32v384q0 32 30 32h10q30 0 30 -32z" />
<glyph unicode="&#xfd;" horiz-adv-x="480" d="M221 574l37 149q6 27 35 27h15q15 0 21 -11t1 -25l-56 -141q-9 -23 -30 -23h-3q-11 0 -16.5 7t-3.5 17zM210 13l-182 451q-5 13 1 24.5t21 11.5h18q26 0 34 -23l138 -387l138 387q8 23 34 23h18q15 0 21 -11.5t1 -24.5l-271 -691q-8 -23 -34 -23h-12q-15 0 -21 11.5 t-1 24.5z" />
<glyph unicode="&#xfe;" horiz-adv-x="535" d="M480 250q0 -260 -205 -260q-77 0 -140 41v-249q0 -32 -30 -32h-10q-30 0 -30 32v936q0 32 30 32h10q30 0 30 -32v-249q63 41 140 41q205 0 205 -260zM135 416v-332q59 -32 140 -32q35 0 60 11.5t39.5 29t22.5 45.5t10.5 53t2.5 59t-2.5 59t-10.5 53t-22.5 45.5t-39.5 29 t-60 11.5q-81 0 -140 -32z" />
<glyph unicode="&#xff;" horiz-adv-x="480" d="M95 650q0 21 14.5 35.5t35.5 14.5t35.5 -14.5t14.5 -35.5t-14.5 -35.5t-35.5 -14.5t-35.5 14.5t-14.5 35.5zM285 650q0 21 14.5 35.5t35.5 14.5t35.5 -14.5t14.5 -35.5t-14.5 -35.5t-35.5 -14.5t-35.5 14.5t-14.5 35.5zM210 13l-182 451q-5 13 1 24.5t21 11.5h18 q26 0 34 -23l138 -387l138 387q8 23 34 23h18q15 0 21 -11.5t1 -24.5l-271 -691q-8 -23 -34 -23h-12q-15 0 -21 11.5t-1 24.5z" />
<glyph unicode="&#x100;" horiz-adv-x="630" d="M207 880h216q29 0 29 -28v-4q0 -28 -29 -28h-216q-29 0 -29 28v4q0 28 29 28zM26 32l255 702q9 26 31 26h6q22 0 31 -26l255 -702q6 -15 -1 -23.5t-19 -8.5h-20q-26 0 -35 27l-63 183h-302l-63 -183q-9 -27 -35 -27h-20q-12 0 -19 8.5t-1 23.5zM315 646l-130 -377h260z " />
<glyph unicode="&#x101;" horiz-adv-x="495" d="M133 680h216q29 0 29 -28v-4q0 -28 -29 -28h-216q-29 0 -29 28v4q0 28 29 28zM360 266l-137 -13q-102 -10 -102 -102q0 -20 3.5 -35t13.5 -31t32.5 -24.5t56.5 -8.5q64 0 133 40v174zM241 448q-62 0 -119 -17q-17 -5 -27 1.5t-10 17.5v12q0 19 22 28q54 20 134 20 q106 0 147.5 -43t41.5 -125v-319q0 -23 -21 -23h-2q-10 0 -14.5 5t-10.5 19l-6 16q-68 -50 -151 -50q-92 0 -133.5 45.5t-41.5 115.5q0 145 178 156l132 8v28q0 57 -25.5 81t-93.5 24z" />
<glyph unicode="&#x102;" horiz-adv-x="630" d="M315 790q-117 0 -140 77q-4 14 2.5 23.5t18.5 9.5h3q19 0 28 -23q11 -32 88 -32t88 32q9 23 28 23h3q12 0 18.5 -9.5t2.5 -23.5q-23 -77 -140 -77zM26 32l255 702q9 26 31 26h6q22 0 31 -26l255 -702q6 -15 -1 -23.5t-19 -8.5h-20q-26 0 -35 27l-63 183h-302l-63 -183 q-9 -27 -35 -27h-20q-12 0 -19 8.5t-1 23.5zM315 646l-130 -377h260z" />
<glyph unicode="&#x103;" horiz-adv-x="495" d="M241 550q-90 0 -132 51.5t-42 122.5q0 26 24 26h3q22 0 24 -24q4 -58 31.5 -87t91.5 -29t91.5 29t31.5 87q2 24 24 24h3q24 0 24 -26q0 -71 -42 -122.5t-132 -51.5zM360 266l-137 -13q-102 -10 -102 -102q0 -20 3.5 -35t13.5 -31t32.5 -24.5t56.5 -8.5q64 0 133 40v174z M241 448q-62 0 -119 -17q-17 -5 -27 1.5t-10 17.5v12q0 19 22 28q54 20 134 20q106 0 147.5 -43t41.5 -125v-319q0 -23 -21 -23h-2q-10 0 -14.5 5t-10.5 19l-6 16q-68 -50 -151 -50q-92 0 -133.5 45.5t-41.5 115.5q0 145 178 156l132 8v28q0 57 -25.5 81t-93.5 24z" />
<glyph unicode="&#x104;" horiz-adv-x="630" d="M26 32l255 702q9 26 31 26h6q22 0 31 -26l255 -702q7 -21 -9 -30q-33 -21 -64.5 -62t-31.5 -82q0 -57 54 -57q17 0 32 3q25 6 25 -16v-6q0 -22 -22 -27t-49 -5q-48 0 -74.5 26.5t-26.5 68.5q0 96 97 164l-69 201h-302l-63 -183q-9 -27 -35 -27h-20q-12 0 -19 8.5t-1 23.5 zM315 646l-130 -377h260z" />
<glyph unicode="&#x105;" horiz-adv-x="495" d="M383 21q-3 7 -7 19q-68 -50 -151 -50q-92 0 -133.5 45.5t-41.5 115.5q0 145 178 156l132 8v28q0 57 -25.5 81t-93.5 24q-62 0 -119 -17q-17 -5 -27 1.5t-10 17.5v12q0 19 22 28q54 20 134 20q106 0 147.5 -43t41.5 -125v-319q0 -15 -11 -21q-30 -18 -62.5 -60t-32.5 -84 q0 -57 54 -57q17 0 32 3q25 6 25 -16v-6q0 -22 -22 -27t-49 -5q-48 0 -74.5 26.5t-26.5 68.5q0 52 31 98t89 78zM360 266l-137 -13q-102 -10 -102 -102q0 -20 3.5 -35t13.5 -31t32.5 -24.5t56.5 -8.5q64 0 133 40v174z" />
<glyph unicode="&#x106;" horiz-adv-x="610" d="M343 827l25 49q12 24 36 24h19q13 0 18.5 -12.5t-4.5 -23.5l-42 -47q-15 -17 -28 -17h-9q-11 0 -15.5 8.5t0.5 18.5zM60 375q0 84 15 151t48 121t92 83.5t140 29.5q100 0 169 -25q26 -9 26 -34v-14q0 -10 -8 -16t-23 -1q-75 27 -164 27q-116 0 -169.5 -87.5t-53.5 -234.5 t53.5 -234.5t169.5 -87.5q89 0 164 27q15 5 23 -1t8 -16v-14q0 -25 -26 -34q-69 -25 -169 -25q-81 0 -140 29.5t-92 83.5t-48 121t-15 151z" />
<glyph unicode="&#x107;" horiz-adv-x="460" d="M247 574l37 149q6 27 35 27h15q15 0 21 -11t1 -25l-56 -141q-9 -23 -30 -23h-3q-12 0 -17 7t-3 17zM125 250q0 -43 4.5 -73.5t18 -61.5t43 -47t74.5 -16q61 0 121 16q16 5 24.5 -1t8.5 -17v-14q0 -21 -22 -28q-54 -18 -131 -18q-49 0 -86.5 13.5t-61 36.5t-38 57 t-20 70.5t-5.5 82.5t5.5 82.5t20 70.5t38 57t61 36.5t86.5 13.5q77 0 131 -18q22 -7 22 -28v-14q0 -11 -8.5 -17t-24.5 -1q-60 16 -121 16q-45 0 -74.5 -16t-43 -47t-18 -61.5t-4.5 -73.5z" />
<glyph unicode="&#x108;" horiz-adv-x="610" d="M421 878l60 -53q8 -7 5.5 -16t-11.5 -9h-5q-15 0 -37 12l-78 44l-78 -44q-22 -12 -37 -12h-5q-9 0 -11.5 9t5.5 16l60 53q26 22 47 22h38q21 0 47 -22zM60 375q0 84 15 151t48 121t92 83.5t140 29.5q100 0 169 -25q26 -9 26 -34v-14q0 -10 -8 -16t-23 -1q-75 27 -164 27 q-116 0 -169.5 -87.5t-53.5 -234.5t53.5 -234.5t169.5 -87.5q89 0 164 27q15 5 23 -1t8 -16v-14q0 -25 -26 -34q-69 -25 -169 -25q-81 0 -140 29.5t-92 83.5t-48 121t-15 151z" />
<glyph unicode="&#x109;" horiz-adv-x="460" d="M319 731l114 -155q7 -9 3 -17.5t-14 -8.5h-6q-20 0 -36 17l-114 124l-114 -124q-16 -17 -36 -17h-6q-10 0 -14 8.5t3 17.5l114 155q13 19 35 19h36q22 0 35 -19zM125 250q0 -43 4.5 -73.5t18 -61.5t43 -47t74.5 -16q61 0 121 16q16 5 24.5 -1t8.5 -17v-14q0 -21 -22 -28 q-54 -18 -131 -18q-49 0 -86.5 13.5t-61 36.5t-38 57t-20 70.5t-5.5 82.5t5.5 82.5t20 70.5t38 57t61 36.5t86.5 13.5q77 0 131 -18q22 -7 22 -28v-14q0 -11 -8.5 -17t-24.5 -1q-60 16 -121 16q-45 0 -74.5 -16t-43 -47t-18 -61.5t-4.5 -73.5z" />
<glyph unicode="&#x10a;" horiz-adv-x="610" d="M305 850q0 21 14.5 35.5t35.5 14.5t35.5 -14.5t14.5 -35.5t-14.5 -35.5t-35.5 -14.5t-35.5 14.5t-14.5 35.5zM60 375q0 84 15 151t48 121t92 83.5t140 29.5q100 0 169 -25q26 -9 26 -34v-14q0 -10 -8 -16t-23 -1q-75 27 -164 27q-116 0 -169.5 -87.5t-53.5 -234.5 t53.5 -234.5t169.5 -87.5q89 0 164 27q15 5 23 -1t8 -16v-14q0 -25 -26 -34q-69 -25 -169 -25q-81 0 -140 29.5t-92 83.5t-48 121t-15 151z" />
<glyph unicode="&#x10b;" horiz-adv-x="460" d="M216 650q0 21 14.5 35.5t35.5 14.5t35.5 -14.5t14.5 -35.5t-14.5 -35.5t-35.5 -14.5t-35.5 14.5t-14.5 35.5zM125 250q0 -43 4.5 -73.5t18 -61.5t43 -47t74.5 -16q61 0 121 16q16 5 24.5 -1t8.5 -17v-14q0 -21 -22 -28q-54 -18 -131 -18q-49 0 -86.5 13.5t-61 36.5 t-38 57t-20 70.5t-5.5 82.5t5.5 82.5t20 70.5t38 57t61 36.5t86.5 13.5q77 0 131 -18q22 -7 22 -28v-14q0 -11 -8.5 -17t-24.5 -1q-60 16 -121 16q-45 0 -74.5 -16t-43 -47t-18 -61.5t-4.5 -73.5z" />
<glyph unicode="&#x10c;" horiz-adv-x="610" d="M289 822l-60 53q-8 7 -5.5 16t11.5 9h5q15 0 37 -12l78 -44l78 44q22 12 37 12h5q9 0 11.5 -9t-5.5 -16l-60 -53q-26 -22 -47 -22h-38q-21 0 -47 22zM60 375q0 84 15 151t48 121t92 83.5t140 29.5q100 0 169 -25q26 -9 26 -34v-14q0 -10 -8 -16t-23 -1q-75 27 -164 27 q-116 0 -169.5 -87.5t-53.5 -234.5t53.5 -234.5t169.5 -87.5q89 0 164 27q15 5 23 -1t8 -16v-14q0 -25 -26 -34q-69 -25 -169 -25q-81 0 -140 29.5t-92 83.5t-48 121t-15 151z" />
<glyph unicode="&#x10d;" horiz-adv-x="460" d="M213 569l-114 155q-7 9 -3 17.5t14 8.5h6q20 0 36 -17l114 -124l114 124q16 17 36 17h6q10 0 14 -8.5t-3 -17.5l-114 -155q-13 -19 -35 -19h-36q-22 0 -35 19zM125 250q0 -43 4.5 -73.5t18 -61.5t43 -47t74.5 -16q61 0 121 16q16 5 24.5 -1t8.5 -17v-14q0 -21 -22 -28 q-54 -18 -131 -18q-49 0 -86.5 13.5t-61 36.5t-38 57t-20 70.5t-5.5 82.5t5.5 82.5t20 70.5t38 57t61 36.5t86.5 13.5q77 0 131 -18q22 -7 22 -28v-14q0 -11 -8.5 -17t-24.5 -1q-60 16 -121 16q-45 0 -74.5 -16t-43 -47t-18 -61.5t-4.5 -73.5z" />
<glyph unicode="&#x10e;" horiz-adv-x="655" d="M234 822l-60 53q-8 7 -5.5 16t11.5 9h5q15 0 37 -12l78 -44l78 44q22 12 37 12h5q9 0 11.5 -9t-5.5 -16l-60 -53q-26 -22 -47 -22h-38q-21 0 -47 22zM279 0h-174q-30 0 -30 32v686q0 32 30 32h174q89 0 152 -28t98 -80.5t50.5 -117.5t15.5 -149t-15.5 -149t-50.5 -117.5 t-98 -80.5t-152 -28zM143 687v-624h140q240 0 240 312t-240 312h-140z" />
<glyph unicode="&#x10f;" horiz-adv-x="555" d="M522 574l12 148q3 28 31 28h13q16 0 24 -10.5t4 -25.5l-34 -141q-7 -23 -26 -23h-3q-11 0 -17 7t-4 17zM400 469v249q0 32 30 32h10q30 0 30 -32v-695q0 -23 -21 -23h-2q-10 0 -15 5.5t-10 19.5l-6 16q-80 -51 -156 -51q-205 0 -205 260t205 260q77 0 140 -41zM260 448 q-35 0 -60 -11.5t-39.5 -29t-22.5 -45.5t-10.5 -53t-2.5 -59t2.5 -59t10.5 -53t22.5 -45.5t39.5 -29t60 -11.5q81 0 140 32v332q-59 32 -140 32z" />
<glyph unicode="&#x110;" horiz-adv-x="685" d="M40 415h65v303q0 32 30 32h174q89 0 152 -28t98 -80.5t50.5 -117.5t15.5 -149t-15.5 -149t-50.5 -117.5t-98 -80.5t-152 -28h-174q-30 0 -30 32v330h-65q-25 0 -25 24v5q0 24 25 24zM173 687v-272h158q25 0 25 -24v-5q0 -24 -25 -24h-158v-299h140q240 0 240 312 t-240 312h-140z" />
<glyph unicode="&#x111;" horiz-adv-x="535" d="M290 654h110v64q0 32 30 32h10q30 0 30 -32v-64h65q25 0 25 -24v-3q0 -24 -25 -24h-65v-580q0 -23 -21 -23h-2q-10 0 -15 5.5t-10 19.5l-6 16q-80 -51 -156 -51q-205 0 -205 260t205 260q77 0 140 -41v134h-110q-25 0 -25 24v3q0 24 25 24zM260 448q-35 0 -60 -11.5 t-39.5 -29t-22.5 -45.5t-10.5 -53t-2.5 -59t2.5 -59t10.5 -53t22.5 -45.5t39.5 -29t60 -11.5q81 0 140 32v332q-59 32 -140 32z" />
<glyph unicode="&#x112;" d="M192 880h216q29 0 29 -28v-4q0 -28 -29 -28h-216q-29 0 -29 28v4q0 28 29 28zM143 687v-265h302q30 0 30 -29v-5q0 -29 -30 -29h-302v-296h337q30 0 30 -29v-5q0 -29 -30 -29h-375q-30 0 -30 32v686q0 32 30 32h375q30 0 30 -29v-5q0 -29 -30 -29h-337z" />
<glyph unicode="&#x113;" horiz-adv-x="510" d="M157 680h216q29 0 29 -28v-4q0 -28 -29 -28h-216q-29 0 -29 28v4q0 28 29 28zM265 448q-42 0 -70 -13.5t-42.5 -40t-20.5 -54t-7 -65.5h260q0 33 -1.5 53t-8 45.5t-18.5 40t-35.5 24.5t-56.5 10zM265 -10q-61 0 -103.5 19.5t-65 57t-32 81.5t-9.5 102t9.5 102t32 81.5 t65 57t103.5 19.5q50 0 85 -14t55.5 -35.5t31.5 -57.5t14.5 -70t3.5 -83q0 -32 -30 -32h-300q4 -77 33.5 -121.5t106.5 -44.5q78 0 138 20q15 5 23 0t8 -16v-16q0 -18 -22 -27q-61 -23 -147 -23z" />
<glyph unicode="&#x114;" d="M300 790q-117 0 -140 77q-4 14 2.5 23.5t18.5 9.5h3q19 0 28 -23q11 -32 88 -32t88 32q9 23 28 23h3q12 0 18.5 -9.5t2.5 -23.5q-23 -77 -140 -77zM143 687v-265h302q30 0 30 -29v-5q0 -29 -30 -29h-302v-296h337q30 0 30 -29v-5q0 -29 -30 -29h-375q-30 0 -30 32v686 q0 32 30 32h375q30 0 30 -29v-5q0 -29 -30 -29h-337z" />
<glyph unicode="&#x115;" horiz-adv-x="510" d="M265 550q-90 0 -132 51.5t-42 122.5q0 26 24 26h3q22 0 24 -24q4 -58 31.5 -87t91.5 -29t91.5 29t31.5 87q2 24 24 24h3q24 0 24 -26q0 -71 -42 -122.5t-132 -51.5zM265 448q-42 0 -70 -13.5t-42.5 -40t-20.5 -54t-7 -65.5h260q0 33 -1.5 53t-8 45.5t-18.5 40t-35.5 24.5 t-56.5 10zM265 -10q-61 0 -103.5 19.5t-65 57t-32 81.5t-9.5 102t9.5 102t32 81.5t65 57t103.5 19.5q50 0 85 -14t55.5 -35.5t31.5 -57.5t14.5 -70t3.5 -83q0 -32 -30 -32h-300q4 -77 33.5 -121.5t106.5 -44.5q78 0 138 20q15 5 23 0t8 -16v-16q0 -18 -22 -27 q-61 -23 -147 -23z" />
<glyph unicode="&#x116;" d="M250 850q0 21 14.5 35.5t35.5 14.5t35.5 -14.5t14.5 -35.5t-14.5 -35.5t-35.5 -14.5t-35.5 14.5t-14.5 35.5zM143 687v-265h302q30 0 30 -29v-5q0 -29 -30 -29h-302v-296h337q30 0 30 -29v-5q0 -29 -30 -29h-375q-30 0 -30 32v686q0 32 30 32h375q30 0 30 -29v-5 q0 -29 -30 -29h-337z" />
<glyph unicode="&#x117;" horiz-adv-x="510" d="M215 650q0 21 14.5 35.5t35.5 14.5t35.5 -14.5t14.5 -35.5t-14.5 -35.5t-35.5 -14.5t-35.5 14.5t-14.5 35.5zM265 448q-42 0 -70 -13.5t-42.5 -40t-20.5 -54t-7 -65.5h260q0 33 -1.5 53t-8 45.5t-18.5 40t-35.5 24.5t-56.5 10zM265 -10q-61 0 -103.5 19.5t-65 57 t-32 81.5t-9.5 102t9.5 102t32 81.5t65 57t103.5 19.5q50 0 85 -14t55.5 -35.5t31.5 -57.5t14.5 -70t3.5 -83q0 -32 -30 -32h-300q4 -77 33.5 -121.5t106.5 -44.5q78 0 138 20q15 5 23 0t8 -16v-16q0 -18 -22 -27q-61 -23 -147 -23z" />
<glyph unicode="&#x118;" d="M143 687v-265h302q30 0 30 -29v-5q0 -29 -30 -29h-302v-296h337q30 0 30 -29v-5q0 -19 -15 -27q-31 -17 -61 -60.5t-30 -83.5q0 -57 54 -57q17 0 32 3q25 6 25 -16v-6q0 -22 -22 -27t-49 -5q-48 0 -74.5 26.5t-26.5 68.5q0 92 84 155h-322q-30 0 -30 32v686q0 32 30 32 h375q30 0 30 -29v-5q0 -29 -30 -29h-337z" />
<glyph unicode="&#x119;" horiz-adv-x="510" d="M265 448q-42 0 -70 -13.5t-42.5 -40t-20.5 -54t-7 -65.5h260q0 33 -1.5 53t-8 45.5t-18.5 40t-35.5 24.5t-56.5 10zM265 -10q-61 0 -103.5 19.5t-65 57t-32 81.5t-9.5 102t9.5 102t32 81.5t65 57t103.5 19.5q50 0 85 -14t55.5 -35.5t31.5 -57.5t14.5 -70t3.5 -83 q0 -32 -30 -32h-300q4 -77 33.5 -121.5t106.5 -44.5q78 0 138 20q15 5 23 0t8 -16v-16q0 -18 -22 -27q-14 -6 -40 -14q-53 -17 -81.5 -57.5t-28.5 -83.5q0 -57 54 -57q17 0 32 3q25 6 25 -16v-6q0 -22 -22 -27t-49 -5q-48 0 -74.5 26.5t-26.5 68.5q0 84 75 145h-11z" />
<glyph unicode="&#x11a;" d="M234 822l-60 53q-8 7 -5.5 16t11.5 9h5q15 0 37 -12l78 -44l78 44q22 12 37 12h5q9 0 11.5 -9t-5.5 -16l-60 -53q-26 -22 -47 -22h-38q-21 0 -47 22zM143 687v-265h302q30 0 30 -29v-5q0 -29 -30 -29h-302v-296h337q30 0 30 -29v-5q0 -29 -30 -29h-375q-30 0 -30 32v686 q0 32 30 32h375q30 0 30 -29v-5q0 -29 -30 -29h-337z" />
<glyph unicode="&#x11b;" horiz-adv-x="510" d="M212 569l-114 155q-7 9 -3 17.5t14 8.5h6q20 0 36 -17l114 -124l114 124q16 17 36 17h6q10 0 14 -8.5t-3 -17.5l-114 -155q-13 -19 -35 -19h-36q-22 0 -35 19zM265 448q-42 0 -70 -13.5t-42.5 -40t-20.5 -54t-7 -65.5h260q0 33 -1.5 53t-8 45.5t-18.5 40t-35.5 24.5 t-56.5 10zM265 -10q-61 0 -103.5 19.5t-65 57t-32 81.5t-9.5 102t9.5 102t32 81.5t65 57t103.5 19.5q50 0 85 -14t55.5 -35.5t31.5 -57.5t14.5 -70t3.5 -83q0 -32 -30 -32h-300q4 -77 33.5 -121.5t106.5 -44.5q78 0 138 20q15 5 23 0t8 -16v-16q0 -18 -22 -27 q-61 -23 -147 -23z" />
<glyph unicode="&#x11c;" horiz-adv-x="660" d="M421 878l60 -53q8 -7 5.5 -16t-11.5 -9h-5q-15 0 -37 12l-78 44l-78 -44q-22 -12 -37 -12h-5q-9 0 -11.5 9t5.5 16l60 53q26 22 47 22h38q21 0 47 -22zM390 394h165q30 0 30 -32v-309q0 -24 -26 -33q-83 -30 -204 -30q-81 0 -140 29.5t-92 83.5t-48 121t-15 151t15 151 t48 121t92 83.5t140 29.5q101 0 184 -30q26 -9 26 -33v-17q0 -11 -8 -17.5t-23 -0.5q-87 35 -179 35q-116 0 -169.5 -87.5t-53.5 -234.5t53.5 -234.5t169.5 -87.5q117 0 162 22v256h-127q-30 0 -30 29v5q0 29 30 29z" />
<glyph unicode="&#x11d;" horiz-adv-x="510" d="M295 731l114 -155q7 -9 3 -17.5t-14 -8.5h-6q-20 0 -36 17l-114 124l-114 -124q-16 -17 -36 -17h-6q-10 0 -14 8.5t3 17.5l114 155q13 19 35 19h36q22 0 35 -19zM351 -12l-146 17q-122 -28 -122 -110q0 -53 38.5 -74t120.5 -21q194 0 194 110q0 38 -19.5 55.5t-65.5 22.5 zM242 195q79 0 104.5 33.5t25.5 93.5t-25.5 93.5t-104.5 33.5t-104.5 -33.5t-25.5 -93.5t25.5 -93.5t104.5 -33.5zM322 500h150q24 0 24 -19q0 -18 -25 -25l-63 -18q29 -44 29 -116q0 -188 -195 -188q-38 0 -66 6q-19 -19 -19 -37q0 -35 38 -39l170 -20q72 -8 104.5 -39 t32.5 -95q0 -86 -73.5 -128t-186.5 -42q-224 0 -224 151q0 48 29 82.5t74 49.5v1q-32 22 -32 66q0 37 38 68q-80 44 -80 164q0 188 195 188q42 0 80 -10z" />
<glyph unicode="&#x11e;" horiz-adv-x="660" d="M355 790q-117 0 -140 77q-4 14 2.5 23.5t18.5 9.5h3q19 0 28 -23q11 -32 88 -32t88 32q9 23 28 23h3q12 0 18.5 -9.5t2.5 -23.5q-23 -77 -140 -77zM390 394h165q30 0 30 -32v-309q0 -24 -26 -33q-83 -30 -204 -30q-81 0 -140 29.5t-92 83.5t-48 121t-15 151t15 151 t48 121t92 83.5t140 29.5q101 0 184 -30q26 -9 26 -33v-17q0 -11 -8 -17.5t-23 -0.5q-87 35 -179 35q-116 0 -169.5 -87.5t-53.5 -234.5t53.5 -234.5t169.5 -87.5q117 0 162 22v256h-127q-30 0 -30 29v5q0 29 30 29z" />
<glyph unicode="&#x11f;" horiz-adv-x="510" d="M242 550q-90 0 -132 51.5t-42 122.5q0 26 24 26h3q22 0 24 -24q4 -58 31.5 -87t91.5 -29t91.5 29t31.5 87q2 24 24 24h3q24 0 24 -26q0 -71 -42 -122.5t-132 -51.5zM351 -12l-146 17q-122 -28 -122 -110q0 -53 38.5 -74t120.5 -21q194 0 194 110q0 38 -19.5 55.5 t-65.5 22.5zM242 195q79 0 104.5 33.5t25.5 93.5t-25.5 93.5t-104.5 33.5t-104.5 -33.5t-25.5 -93.5t25.5 -93.5t104.5 -33.5zM322 500h150q24 0 24 -19q0 -18 -25 -25l-63 -18q29 -44 29 -116q0 -188 -195 -188q-38 0 -66 6q-19 -19 -19 -37q0 -35 38 -39l170 -20 q72 -8 104.5 -39t32.5 -95q0 -86 -73.5 -128t-186.5 -42q-224 0 -224 151q0 48 29 82.5t74 49.5v1q-32 22 -32 66q0 37 38 68q-80 44 -80 164q0 188 195 188q42 0 80 -10z" />
<glyph unicode="&#x120;" horiz-adv-x="660" d="M305 850q0 21 14.5 35.5t35.5 14.5t35.5 -14.5t14.5 -35.5t-14.5 -35.5t-35.5 -14.5t-35.5 14.5t-14.5 35.5zM390 394h165q30 0 30 -32v-309q0 -24 -26 -33q-83 -30 -204 -30q-81 0 -140 29.5t-92 83.5t-48 121t-15 151t15 151t48 121t92 83.5t140 29.5q101 0 184 -30 q26 -9 26 -33v-17q0 -11 -8 -17.5t-23 -0.5q-87 35 -179 35q-116 0 -169.5 -87.5t-53.5 -234.5t53.5 -234.5t169.5 -87.5q117 0 162 22v256h-127q-30 0 -30 29v5q0 29 30 29z" />
<glyph unicode="&#x121;" horiz-adv-x="510" d="M192 650q0 21 14.5 35.5t35.5 14.5t35.5 -14.5t14.5 -35.5t-14.5 -35.5t-35.5 -14.5t-35.5 14.5t-14.5 35.5zM351 -12l-146 17q-122 -28 -122 -110q0 -53 38.5 -74t120.5 -21q194 0 194 110q0 38 -19.5 55.5t-65.5 22.5zM242 195q79 0 104.5 33.5t25.5 93.5t-25.5 93.5 t-104.5 33.5t-104.5 -33.5t-25.5 -93.5t25.5 -93.5t104.5 -33.5zM322 500h150q24 0 24 -19q0 -18 -25 -25l-63 -18q29 -44 29 -116q0 -188 -195 -188q-38 0 -66 6q-19 -19 -19 -37q0 -35 38 -39l170 -20q72 -8 104.5 -39t32.5 -95q0 -86 -73.5 -128t-186.5 -42 q-224 0 -224 151q0 48 29 82.5t74 49.5v1q-32 22 -32 66q0 37 38 68q-80 44 -80 164q0 188 195 188q42 0 80 -10z" />
<glyph unicode="&#x122;" horiz-adv-x="660" d="M299 -226l19 148q3 28 32 28h16q15 0 22.5 -11t3.5 -25l-40 -141q-7 -23 -28 -23h-3q-11 0 -17.5 7t-4.5 17zM390 394h165q30 0 30 -32v-309q0 -24 -26 -33q-83 -30 -204 -30q-81 0 -140 29.5t-92 83.5t-48 121t-15 151t15 151t48 121t92 83.5t140 29.5q101 0 184 -30 q26 -9 26 -33v-17q0 -11 -8 -17.5t-23 -0.5q-87 35 -179 35q-116 0 -169.5 -87.5t-53.5 -234.5t53.5 -234.5t169.5 -87.5q117 0 162 22v256h-127q-30 0 -30 29v5q0 29 30 29z" />
<glyph unicode="&#x123;" horiz-adv-x="510" d="M351 -12l-146 17q-122 -28 -122 -110q0 -53 38.5 -74t120.5 -21q194 0 194 110q0 38 -19.5 55.5t-65.5 22.5zM242 195q79 0 104.5 33.5t25.5 93.5t-25.5 93.5t-104.5 33.5t-104.5 -33.5t-25.5 -93.5t25.5 -93.5t104.5 -33.5zM322 500h150q24 0 24 -19q0 -18 -25 -25 l-63 -18q29 -44 29 -116q0 -188 -195 -188q-38 0 -66 6q-19 -19 -19 -37q0 -35 38 -39l170 -20q72 -8 104.5 -39t32.5 -95q0 -86 -73.5 -128t-186.5 -42q-224 0 -224 151q0 48 29 82.5t74 49.5v1q-32 22 -32 66q0 37 38 68q-80 44 -80 164q0 188 195 188q42 0 80 -10z M304 726l-19 -149q-3 -27 -35 -27h-16q-15 0 -21.5 10t-2.5 23l41 144q6 23 28 23h5q23 0 20 -24z" />
<glyph unicode="&#x124;" horiz-adv-x="660" d="M396 878l60 -53q8 -7 5.5 -16t-11.5 -9h-5q-15 0 -37 12l-78 44l-78 -44q-22 -12 -37 -12h-5q-9 0 -11.5 9t5.5 16l60 53q26 22 47 22h38q21 0 47 -22zM517 32v327h-374v-327q0 -32 -30 -32h-8q-30 0 -30 32v686q0 32 30 32h8q30 0 30 -32v-296h374v296q0 32 30 32h8 q30 0 30 -32v-686q0 -32 -30 -32h-8q-30 0 -30 32z" />
<glyph unicode="&#x125;" horiz-adv-x="500" d="M165 878l60 -53q8 -7 5.5 -16t-11.5 -9h-5q-15 0 -37 12l-78 44l-78 -44q-22 -12 -37 -12h-5q-9 0 -11.5 9t5.5 16l60 53q26 22 47 22h38q21 0 47 -22zM65 32v686q0 32 30 32h10q30 0 30 -32v-249q64 41 135 41q170 0 170 -150v-328q0 -32 -30 -32h-10q-30 0 -30 32v331 q0 47 -25.5 66t-74.5 19q-77 0 -135 -32v-384q0 -32 -30 -32h-10q-30 0 -30 32z" />
<glyph unicode="&#x126;" horiz-adv-x="660" d="M517 32v327h-374v-327q0 -32 -30 -32h-8q-30 0 -30 32v686q0 32 30 32h8q30 0 30 -32v-112h374v112q0 32 30 32h8q30 0 30 -32v-686q0 -32 -30 -32h-8q-30 0 -30 32zM143 543v-121h374v121h-374z" />
<glyph unicode="&#x127;" horiz-adv-x="500" d="M0 654h65v64q0 32 30 32h10q30 0 30 -32v-64h110q25 0 25 -24v-3q0 -24 -25 -24h-110v-134q64 41 135 41q170 0 170 -150v-328q0 -32 -30 -32h-10q-30 0 -30 32v331q0 47 -25.5 66t-74.5 19q-77 0 -135 -32v-384q0 -32 -30 -32h-10q-30 0 -30 32v571h-65q-25 0 -25 24v3 q0 24 25 24z" />
<glyph unicode="&#x128;" horiz-adv-x="260" d="M54 910q35 0 62 -15t48 -30.5t42 -15.5q36 0 45 27q8 24 30 24h2q13 0 20.5 -9t5.5 -23q-4 -34 -31.5 -56t-71.5 -22q-35 0 -62 15t-48 30.5t-42 15.5q-36 0 -45 -27q-8 -24 -30 -24h-2q-13 0 -20.5 9t-5.5 23q4 34 31.5 56t71.5 22zM165 718v-686q0 -32 -30 -32h-10 q-30 0 -30 32v686q0 32 30 32h10q30 0 30 -32z" />
<glyph unicode="&#x129;" horiz-adv-x="240" d="M39 715q28 0 51 -11t36.5 -24.5t30.5 -24.5t34 -11q36 0 45 27q8 24 30 24h2q13 0 20.5 -9t5.5 -23q-4 -34 -31.5 -56t-71.5 -22q-28 0 -51 11t-36.5 24.5t-30.5 24.5t-34 11q-36 0 -45 -27q-8 -24 -30 -24h-2q-13 0 -20.5 9t-5.5 23q4 34 31.5 56t71.5 22zM149 468v-393 q0 -24 23 -27t23 -24v-6q0 -24 -28 -24q-45 0 -65.5 22.5t-20.5 59.5v392q0 32 30 32h8q30 0 30 -32z" />
<glyph unicode="&#x12a;" horiz-adv-x="260" d="M22 880h216q29 0 29 -28v-4q0 -28 -29 -28h-216q-29 0 -29 28v4q0 28 29 28zM165 718v-686q0 -32 -30 -32h-10q-30 0 -30 32v686q0 32 30 32h10q30 0 30 -32z" />
<glyph unicode="&#x12b;" horiz-adv-x="240" d="M7 680h216q29 0 29 -28v-4q0 -28 -29 -28h-216q-29 0 -29 28v4q0 28 29 28zM149 468v-393q0 -24 23 -27t23 -24v-6q0 -24 -28 -24q-45 0 -65.5 22.5t-20.5 59.5v392q0 32 30 32h8q30 0 30 -32z" />
<glyph unicode="&#x12c;" horiz-adv-x="260" d="M130 790q-117 0 -140 77q-4 14 2.5 23.5t18.5 9.5h3q19 0 28 -23q11 -32 88 -32t88 32q9 23 28 23h3q12 0 18.5 -9.5t2.5 -23.5q-23 -77 -140 -77zM165 718v-686q0 -32 -30 -32h-10q-30 0 -30 32v686q0 32 30 32h10q30 0 30 -32z" />
<glyph unicode="&#x12d;" horiz-adv-x="240" d="M115 550q-90 0 -132 51.5t-42 122.5q0 26 24 26h3q22 0 24 -24q4 -58 31.5 -87t91.5 -29t91.5 29t31.5 87q2 24 24 24h3q24 0 24 -26q0 -71 -42 -122.5t-132 -51.5zM149 468v-393q0 -24 23 -27t23 -24v-6q0 -24 -28 -24q-45 0 -65.5 22.5t-20.5 59.5v392q0 32 30 32h8 q30 0 30 -32z" />
<glyph unicode="&#x12e;" horiz-adv-x="260" d="M165 718v-686q0 -17 -11 -27q-32 -28 -53.5 -67t-21.5 -80q0 -57 54 -57q17 0 32 3q25 6 25 -16v-6q0 -22 -22 -27t-49 -5q-48 0 -74.5 26.5t-26.5 68.5q0 98 77 162v711q0 32 30 32h10q30 0 30 -32z" />
<glyph unicode="&#x12f;" horiz-adv-x="240" d="M149 468v-393q0 -24 23 -27t23 -24v-6q0 -16 -14 -22q-27 -16 -56 -57.5t-29 -80.5q0 -57 54 -57q17 0 32 3q25 6 25 -16v-6q0 -22 -22 -27t-49 -5q-48 0 -74.5 26.5t-26.5 68.5q0 93 87 157q-41 19 -41 74v392q0 32 30 32h8q30 0 30 -32zM65 650q0 21 14.5 35.5 t35.5 14.5t35.5 -14.5t14.5 -35.5t-14.5 -35.5t-35.5 -14.5t-35.5 14.5t-14.5 35.5z" />
<glyph unicode="&#x130;" horiz-adv-x="260" d="M80 850q0 21 14.5 35.5t35.5 14.5t35.5 -14.5t14.5 -35.5t-14.5 -35.5t-35.5 -14.5t-35.5 14.5t-14.5 35.5zM165 718v-686q0 -32 -30 -32h-10q-30 0 -30 32v686q0 32 30 32h10q30 0 30 -32z" />
<glyph unicode="&#x131;" horiz-adv-x="240" d="M149 468v-393q0 -24 23 -27t23 -24v-6q0 -24 -28 -24q-45 0 -65.5 22.5t-20.5 59.5v392q0 32 30 32h8q30 0 30 -32z" />
<glyph unicode="&#x132;" horiz-adv-x="639" d="M165 718v-686q0 -32 -30 -32h-10q-30 0 -30 32v686q0 32 30 32h10q30 0 30 -32zM544 718v-578q0 -150 -179 -150q-17 0 -41 2q-29 3 -29 30v9q0 12 8.5 19t20.5 5q16 -2 41 -2q109 0 109 85v580q0 32 30 32h10q30 0 30 -32z" />
<glyph unicode="&#x133;" horiz-adv-x="420" d="M255 650q0 21 14.5 35.5t35.5 14.5t35.5 -14.5t14.5 -35.5t-14.5 -35.5t-35.5 -14.5t-35.5 14.5t-14.5 35.5zM175 -255q-32 0 -32 27v5q0 27 32 27q96 0 96 96v568q0 32 30 32h8q30 0 30 -32v-573q0 -72 -45 -111t-119 -39zM65 650q0 21 14.5 35.5t35.5 14.5t35.5 -14.5 t14.5 -35.5t-14.5 -35.5t-35.5 -14.5t-35.5 14.5t-14.5 35.5zM149 468v-393q0 -24 23 -27t23 -24v-6q0 -24 -28 -24q-45 0 -65.5 22.5t-20.5 59.5v392q0 32 30 32h8q30 0 30 -32z" />
<glyph unicode="&#x134;" horiz-adv-x="379" d="M315 878l60 -53q8 -7 5.5 -16t-11.5 -9h-5q-15 0 -37 12l-78 44l-78 -44q-22 -12 -37 -12h-5q-9 0 -11.5 9t5.5 16l60 53q26 22 47 22h38q21 0 47 -22zM284 718v-578q0 -150 -179 -150q-17 0 -41 2q-29 3 -29 30v9q0 12 8.5 19t20.5 5q16 -2 41 -2q109 0 109 85v580 q0 32 30 32h10q30 0 30 -32z" />
<glyph unicode="&#x135;" horiz-adv-x="230" d="M168 731l114 -155q7 -9 3 -17.5t-14 -8.5h-6q-20 0 -36 17l-114 124l-114 -124q-16 -17 -36 -17h-6q-10 0 -14 8.5t3 17.5l114 155q13 19 35 19h36q22 0 35 -19zM-15 -255q-32 0 -32 27v5q0 27 32 27q96 0 96 96v568q0 32 30 32h8q30 0 30 -32v-573q0 -72 -45 -111 t-119 -39z" />
<glyph unicode="&#x136;" horiz-adv-x="595" d="M239 -226l19 148q3 28 32 28h16q15 0 22.5 -11t3.5 -25l-40 -141q-7 -23 -28 -23h-3q-11 0 -17.5 7t-4.5 17zM143 718v-348l307 346q19 22 29 28t27 6h13q13 0 18 -12.5t-5 -23.5l-272 -303l303 -373q10 -11 5.5 -24.5t-20.5 -13.5h-8q-25 0 -35.5 7t-30.5 32l-259 322 l-72 -80v-249q0 -32 -30 -32h-8q-30 0 -30 32v686q0 32 30 32h8q30 0 30 -32z" />
<glyph unicode="&#x137;" horiz-adv-x="500" d="M200 -226l19 148q3 28 32 28h16q15 0 22.5 -11t3.5 -25l-40 -141q-7 -23 -28 -23h-3q-12 0 -18 7t-4 17zM133 718v-451l233 213q23 20 43 20h21q13 0 19 -12t-5 -23l-195 -172l228 -257q8 -9 3 -22.5t-21 -13.5h-15q-25 0 -43 20l-199 231l-69 -60v-159q0 -32 -30 -32h-8 q-30 0 -30 32v686q0 32 30 32h8q30 0 30 -32z" />
<glyph unicode="&#x138;" horiz-adv-x="500" d="M133 468v-201l233 213q23 20 43 20h21q13 0 19 -12t-5 -23l-195 -172l228 -257q8 -9 3 -22.5t-21 -13.5h-15q-25 0 -43 20l-199 231l-69 -60v-159q0 -32 -30 -32h-8q-30 0 -30 32v436q0 32 30 32h8q30 0 30 -32z" />
<glyph unicode="&#x139;" horiz-adv-x="530" d="M94 827l25 49q12 24 36 24h19q13 0 18.5 -12.5t-4.5 -23.5l-42 -47q-15 -17 -28 -17h-9q-11 0 -15.5 8.5t0.5 18.5zM460 0h-355q-30 0 -30 32v686q0 32 30 32h8q30 0 30 -32v-655h317q30 0 30 -29v-5q0 -29 -30 -29z" />
<glyph unicode="&#x13a;" horiz-adv-x="240" d="M149 718v-643q0 -24 23 -27t23 -24v-6q0 -24 -28 -24q-45 0 -65.5 22.5t-20.5 59.5v642q0 32 30 32h8q30 0 30 -32zM103 827l25 49q12 24 36 24h19q13 0 18.5 -12.5t-4.5 -23.5l-42 -47q-15 -17 -28 -17h-9q-11 0 -15.5 8.5t0.5 18.5z" />
<glyph unicode="&#x13b;" horiz-adv-x="530" d="M229 -226l19 148q3 28 32 28h16q15 0 22.5 -11t3.5 -25l-40 -141q-7 -23 -28 -23h-3q-11 0 -17.5 7t-4.5 17zM460 0h-355q-30 0 -30 32v686q0 32 30 32h8q30 0 30 -32v-655h317q30 0 30 -29v-5q0 -29 -30 -29z" />
<glyph unicode="&#x13c;" horiz-adv-x="240" d="M80 -226l19 148q3 28 32 28h16q15 0 22.5 -11t3.5 -25l-40 -141q-7 -23 -28 -23h-3q-12 0 -18 7t-4 17zM149 718v-643q0 -24 23 -27t23 -24v-6q0 -24 -28 -24q-45 0 -65.5 22.5t-20.5 59.5v642q0 32 30 32h8q30 0 30 -32z" />
<glyph unicode="&#x13d;" horiz-adv-x="530" d="M225 574l12 148q3 28 31 28h13q16 0 24 -10.5t4 -25.5l-34 -141q-7 -23 -26 -23h-3q-11 0 -17 7t-4 17zM460 0h-355q-30 0 -30 32v686q0 32 30 32h8q30 0 30 -32v-655h317q30 0 30 -29v-5q0 -29 -30 -29z" />
<glyph unicode="&#x13e;" horiz-adv-x="260" d="M201 574l12 148q3 28 31 28h13q16 0 24 -10.5t4 -25.5l-34 -141q-7 -23 -26 -23h-3q-11 0 -17 7t-4 17zM149 718v-643q0 -24 23 -27t23 -24v-6q0 -24 -28 -24q-45 0 -65.5 22.5t-20.5 59.5v642q0 32 30 32h8q30 0 30 -32z" />
<glyph unicode="&#x13f;" horiz-adv-x="530" d="M324 375q0 21 14.5 35.5t35.5 14.5t35.5 -14.5t14.5 -35.5t-14.5 -35.5t-35.5 -14.5t-35.5 14.5t-14.5 35.5zM460 0h-355q-30 0 -30 32v686q0 32 30 32h8q30 0 30 -32v-655h317q30 0 30 -29v-5q0 -29 -30 -29z" />
<glyph unicode="&#x140;" horiz-adv-x="360" d="M250 300q0 21 14.5 35.5t35.5 14.5t35.5 -14.5t14.5 -35.5t-14.5 -35.5t-35.5 -14.5t-35.5 14.5t-14.5 35.5zM149 718v-643q0 -24 23 -27t23 -24v-6q0 -24 -28 -24q-45 0 -65.5 22.5t-20.5 59.5v642q0 32 30 32h8q30 0 30 -32z" />
<glyph unicode="&#x141;" horiz-adv-x="560" d="M363 439l-192 -118v-258h317q30 0 30 -29v-5q0 -29 -30 -29h-355q-30 0 -30 32v248l-64 -39q-13 -8 -23.5 -1.5t-10.5 19.5v3q0 20 17 30l81 49v377q0 32 30 32h8q30 0 30 -32v-335l175 107q14 8 24 1.5t10 -19.5v-3q0 -20 -17 -30z" />
<glyph unicode="&#x142;" horiz-adv-x="290" d="M42 363l59 37v318q0 32 30 32h8q30 0 30 -32v-274l71 45q14 8 24 2t10 -19v-6q0 -19 -17 -31l-88 -56v-304q0 -24 23 -27t23 -24v-6q0 -24 -28 -24q-45 0 -65.5 22.5t-20.5 59.5v259l-42 -26q-13 -8 -23.5 -2t-10.5 19v6q0 19 17 31z" />
<glyph unicode="&#x143;" horiz-adv-x="670" d="M323 827l25 49q12 24 36 24h19q13 0 18.5 -12.5t-4.5 -23.5l-42 -47q-15 -17 -28 -17h-9q-11 0 -15.5 8.5t0.5 18.5zM135 736l394 -597l-2 579q0 32 30 32h8q30 0 30 -32v-686q0 -32 -30 -32h-5q-16 0 -25 14l-394 597l2 -579q0 -32 -30 -32h-8q-30 0 -30 32v686 q0 32 30 32h5q16 0 25 -14z" />
<glyph unicode="&#x144;" horiz-adv-x="500" d="M226 574l37 149q6 27 35 27h15q15 0 21 -11t1 -25l-56 -141q-9 -23 -30 -23h-3q-12 0 -17 7t-3 17zM65 32v445q0 23 21 23h2q10 0 15 -5.5t10 -19.5l6 -17q70 52 151 52q170 0 170 -150v-328q0 -32 -30 -32h-10q-30 0 -30 32v331q0 47 -25.5 66t-74.5 19q-77 0 -135 -32 v-384q0 -32 -30 -32h-10q-30 0 -30 32z" />
<glyph unicode="&#x145;" horiz-adv-x="670" d="M279 -226l19 148q3 28 32 28h16q15 0 22.5 -11t3.5 -25l-40 -141q-7 -23 -28 -23h-3q-11 0 -17.5 7t-4.5 17zM135 736l394 -597l-2 579q0 32 30 32h8q30 0 30 -32v-686q0 -32 -30 -32h-5q-16 0 -25 14l-394 597l2 -579q0 -32 -30 -32h-8q-30 0 -30 32v686q0 32 30 32h5 q16 0 25 -14z" />
<glyph unicode="&#x146;" horiz-adv-x="500" d="M189 -226l19 148q3 28 32 28h16q15 0 22.5 -11t3.5 -25l-40 -141q-7 -23 -28 -23h-3q-11 0 -17.5 7t-4.5 17zM65 32v445q0 23 21 23h2q10 0 15 -5.5t10 -19.5l6 -17q70 52 151 52q170 0 170 -150v-328q0 -32 -30 -32h-10q-30 0 -30 32v331q0 47 -25.5 66t-74.5 19 q-77 0 -135 -32v-384q0 -32 -30 -32h-10q-30 0 -30 32z" />
<glyph unicode="&#x147;" horiz-adv-x="670" d="M269 822l-60 53q-8 7 -5.5 16t11.5 9h5q15 0 37 -12l78 -44l78 44q22 12 37 12h5q9 0 11.5 -9t-5.5 -16l-60 -53q-26 -22 -47 -22h-38q-21 0 -47 22zM135 736l394 -597l-2 579q0 32 30 32h8q30 0 30 -32v-686q0 -32 -30 -32h-5q-16 0 -25 14l-394 597l2 -579 q0 -32 -30 -32h-8q-30 0 -30 32v686q0 32 30 32h5q16 0 25 -14z" />
<glyph unicode="&#x148;" horiz-adv-x="500" d="M192 569l-114 155q-7 9 -3 17.5t14 8.5h6q20 0 36 -17l114 -124l114 124q16 17 36 17h6q10 0 14 -8.5t-3 -17.5l-114 -155q-13 -19 -35 -19h-36q-22 0 -35 19zM65 32v445q0 23 21 23h2q10 0 15 -5.5t10 -19.5l6 -17q70 52 151 52q170 0 170 -150v-328q0 -32 -30 -32h-10 q-30 0 -30 32v331q0 47 -25.5 66t-74.5 19q-77 0 -135 -32v-384q0 -32 -30 -32h-10q-30 0 -30 32z" />
<glyph unicode="&#x14a;" horiz-adv-x="670" d="M431 -255q-32 0 -32 27v5q0 27 32 27q98 0 98 97v122l-388 588l2 -579q0 -32 -30 -32h-8q-30 0 -30 32v686q0 32 30 32h5q16 0 25 -14l394 -597l-2 579q0 32 30 32h8q30 0 30 -32v-823q0 -72 -45 -111t-119 -39z" />
<glyph unicode="&#x14b;" horiz-adv-x="500" d="M276 -255q-32 0 -32 27v5q0 27 32 27q94 0 94 97v462q0 47 -25.5 66t-74.5 19q-77 0 -135 -32v-384q0 -32 -30 -32h-10q-30 0 -30 32v445q0 23 21 23h2q10 0 15 -5.5t10 -19.5l6 -17q70 52 151 52q170 0 170 -150v-465q0 -72 -45 -111t-119 -39z" />
<glyph unicode="&#x14c;" horiz-adv-x="680" d="M232 880h216q29 0 29 -28v-4q0 -28 -29 -28h-216q-29 0 -29 28v4q0 28 29 28zM340 53q53 0 91 17t60.5 44t35.5 70.5t17 87t4 103.5t-4 103.5t-17 87t-35.5 70.5t-60.5 44t-91 17t-91 -17t-60.5 -44t-35.5 -70.5t-17 -87t-4 -103.5t4 -103.5t17 -87t35.5 -70.5t60.5 -44 t91 -17zM340 -10q-71 0 -123 22t-81.5 56.5t-47 87.5t-23 103t-5.5 116t5.5 116t23 103t47 87.5t81.5 56.5t123 22t123 -22t81.5 -56.5t47 -87.5t23 -103t5.5 -116t-5.5 -116t-23 -103t-47 -87.5t-81.5 -56.5t-123 -22z" />
<glyph unicode="&#x14d;" horiz-adv-x="530" d="M157 680h216q29 0 29 -28v-4q0 -28 -29 -28h-216q-29 0 -29 28v4q0 28 29 28zM475 250q0 -127 -45 -193.5t-165 -66.5t-165 66.5t-45 193.5t45 193.5t165 66.5t165 -66.5t45 -193.5zM405 250q0 50 -4 80t-17 60t-42.5 44t-76.5 14q-39 0 -65.5 -10.5t-41 -26t-22 -44 t-9.5 -53t-2 -64.5t2 -64.5t9.5 -53t22 -44t41 -26t65.5 -10.5q47 0 76.5 14t42.5 44t17 60t4 80z" />
<glyph unicode="&#x14e;" horiz-adv-x="680" d="M340 790q-117 0 -140 77q-4 14 2.5 23.5t18.5 9.5h3q19 0 28 -23q11 -32 88 -32t88 32q9 23 28 23h3q12 0 18.5 -9.5t2.5 -23.5q-23 -77 -140 -77zM340 53q53 0 91 17t60.5 44t35.5 70.5t17 87t4 103.5t-4 103.5t-17 87t-35.5 70.5t-60.5 44t-91 17t-91 -17t-60.5 -44 t-35.5 -70.5t-17 -87t-4 -103.5t4 -103.5t17 -87t35.5 -70.5t60.5 -44t91 -17zM340 -10q-71 0 -123 22t-81.5 56.5t-47 87.5t-23 103t-5.5 116t5.5 116t23 103t47 87.5t81.5 56.5t123 22t123 -22t81.5 -56.5t47 -87.5t23 -103t5.5 -116t-5.5 -116t-23 -103t-47 -87.5 t-81.5 -56.5t-123 -22z" />
<glyph unicode="&#x14f;" horiz-adv-x="530" d="M265 550q-90 0 -132 51.5t-42 122.5q0 26 24 26h3q22 0 24 -24q4 -58 31.5 -87t91.5 -29t91.5 29t31.5 87q2 24 24 24h3q24 0 24 -26q0 -71 -42 -122.5t-132 -51.5zM475 250q0 -127 -45 -193.5t-165 -66.5t-165 66.5t-45 193.5t45 193.5t165 66.5t165 -66.5t45 -193.5z M405 250q0 50 -4 80t-17 60t-42.5 44t-76.5 14q-39 0 -65.5 -10.5t-41 -26t-22 -44t-9.5 -53t-2 -64.5t2 -64.5t9.5 -53t22 -44t41 -26t65.5 -10.5q47 0 76.5 14t42.5 44t17 60t4 80z" />
<glyph unicode="&#x150;" horiz-adv-x="680" d="M268 827l25 49q12 24 36 24h19q13 0 18.5 -12.5t-4.5 -23.5l-42 -47q-15 -17 -28 -17h-9q-11 0 -15.5 8.5t0.5 18.5zM388 827l25 49q12 24 36 24h19q13 0 18.5 -12.5t-4.5 -23.5l-42 -47q-15 -17 -28 -17h-9q-11 0 -15.5 8.5t0.5 18.5zM340 53q53 0 91 17t60.5 44 t35.5 70.5t17 87t4 103.5t-4 103.5t-17 87t-35.5 70.5t-60.5 44t-91 17t-91 -17t-60.5 -44t-35.5 -70.5t-17 -87t-4 -103.5t4 -103.5t17 -87t35.5 -70.5t60.5 -44t91 -17zM340 -10q-71 0 -123 22t-81.5 56.5t-47 87.5t-23 103t-5.5 116t5.5 116t23 103t47 87.5t81.5 56.5 t123 22t123 -22t81.5 -56.5t47 -87.5t23 -103t5.5 -116t-5.5 -116t-23 -103t-47 -87.5t-81.5 -56.5t-123 -22z" />
<glyph unicode="&#x151;" horiz-adv-x="530" d="M475 250q0 -127 -45 -193.5t-165 -66.5t-165 66.5t-45 193.5t45 193.5t165 66.5t165 -66.5t45 -193.5zM405 250q0 50 -4 80t-17 60t-42.5 44t-76.5 14q-39 0 -65.5 -10.5t-41 -26t-22 -44t-9.5 -53t-2 -64.5t2 -64.5t9.5 -53t22 -44t41 -26t65.5 -10.5q47 0 76.5 14 t42.5 44t17 60t4 80zM306 574l37 149q6 27 35 27h15q15 0 21 -11t1 -25l-56 -141q-9 -23 -30 -23h-3q-12 0 -17 7t-3 17zM186 574l37 149q6 27 35 27h15q15 0 21 -11t1 -25l-56 -141q-9 -23 -30 -23h-3q-12 0 -17 7t-3 17z" />
<glyph unicode="&#x152;" horiz-adv-x="890" d="M765 359h-260v-296h295q30 0 30 -29v-5q0 -29 -30 -29h-424q-89 0 -152 28t-98 80.5t-50.5 117.5t-15.5 149t15.5 149t50.5 117.5t98 80.5t152 28h424q30 0 30 -29v-5q0 -29 -30 -29h-295v-265h260q30 0 30 -29v-5q0 -29 -30 -29zM437 63v624h-65q-240 0 -240 -312 t240 -312h65z" />
<glyph unicode="&#x153;" horiz-adv-x="860" d="M405 250q0 50 -4 80t-17 60t-42.5 44t-76.5 14q-39 0 -65.5 -10.5t-41 -26t-22 -44t-9.5 -53t-2 -64.5t2 -64.5t9.5 -53t22 -44t41 -26t65.5 -10.5q47 0 76.5 14t42.5 44t17 60t4 80zM615 448q-42 0 -70 -13.5t-42.5 -40t-20.5 -54t-7 -65.5h260q0 33 -1.5 53t-8 45.5 t-18.5 40t-35.5 24.5t-56.5 10zM615 -10q-124 0 -174 84q-48 -84 -176 -84q-120 0 -165 66.5t-45 193.5t45 193.5t165 66.5q128 0 176 -84q50 84 174 84q50 0 85 -14t55.5 -35.5t31.5 -57.5t14.5 -70t3.5 -83q0 -32 -30 -32h-300q4 -77 33.5 -121.5t106.5 -44.5q78 0 138 20 q15 5 23 0t8 -16v-16q0 -18 -22 -27q-61 -23 -147 -23z" />
<glyph unicode="&#x154;" horiz-adv-x="621" d="M278 827l25 49q12 24 36 24h19q13 0 18.5 -12.5t-4.5 -23.5l-42 -47q-15 -17 -28 -17h-9q-11 0 -15.5 8.5t0.5 18.5zM417 340l160 -304q7 -14 -0.5 -25t-20.5 -11h-8q-31 0 -47 31l-152 298q-11 -1 -33 -1h-173v-296q0 -32 -30 -32h-8q-30 0 -30 32v686q0 32 30 32h205 q134 0 189.5 -54t55.5 -157q0 -163 -138 -199zM143 687v-296h185q91 0 122 38.5t31 109.5t-31 109.5t-122 38.5h-185z" />
<glyph unicode="&#x155;" horiz-adv-x="363" d="M191 574l37 149q6 27 35 27h15q15 0 21 -11t1 -25l-56 -141q-9 -23 -30 -23h-3q-11 0 -16.5 7t-3.5 17zM280 510q18 0 36 -2q27 -3 27 -28v-11q0 -27 -29 -23q-20 2 -34 2q-89 0 -145 -32v-384q0 -32 -30 -32h-10q-30 0 -30 32v445q0 23 21 23h2q10 0 15 -5.5t10 -19.5 l6 -17q70 52 161 52z" />
<glyph unicode="&#x156;" horiz-adv-x="621" d="M254 -226l19 148q3 28 32 28h16q15 0 22.5 -11t3.5 -25l-40 -141q-7 -23 -28 -23h-3q-12 0 -18 7t-4 17zM417 340l160 -304q7 -14 -0.5 -25t-20.5 -11h-8q-31 0 -47 31l-152 298q-11 -1 -33 -1h-173v-296q0 -32 -30 -32h-8q-30 0 -30 32v686q0 32 30 32h205 q134 0 189.5 -54t55.5 -157q0 -163 -138 -199zM143 687v-296h185q91 0 122 38.5t31 109.5t-31 109.5t-122 38.5h-185z" />
<glyph unicode="&#x157;" horiz-adv-x="363" d="M43 -226l19 148q3 28 32 28h16q15 0 22.5 -11t3.5 -25l-40 -141q-7 -23 -28 -23h-3q-12 0 -18 7t-4 17zM280 510q18 0 36 -2q27 -3 27 -28v-11q0 -27 -29 -23q-20 2 -34 2q-89 0 -145 -32v-384q0 -32 -30 -32h-10q-30 0 -30 32v445q0 23 21 23h2q10 0 15 -5.5t10 -19.5 l6 -17q70 52 161 52z" />
<glyph unicode="&#x158;" horiz-adv-x="621" d="M224 822l-60 53q-8 7 -5.5 16t11.5 9h5q15 0 37 -12l78 -44l78 44q22 12 37 12h5q9 0 11.5 -9t-5.5 -16l-60 -53q-26 -22 -47 -22h-38q-21 0 -47 22zM417 340l160 -304q7 -14 -0.5 -25t-20.5 -11h-8q-31 0 -47 31l-152 298q-11 -1 -33 -1h-173v-296q0 -32 -30 -32h-8 q-30 0 -30 32v686q0 32 30 32h205q134 0 189.5 -54t55.5 -157q0 -163 -138 -199zM143 687v-296h185q91 0 122 38.5t31 109.5t-31 109.5t-122 38.5h-185z" />
<glyph unicode="&#x159;" horiz-adv-x="363" d="M157 569l-114 155q-7 9 -3 17.5t14 8.5h6q20 0 36 -17l114 -124l114 124q16 17 36 17h6q10 0 14 -8.5t-3 -17.5l-114 -155q-13 -19 -35 -19h-36q-22 0 -35 19zM280 510q18 0 36 -2q27 -3 27 -28v-11q0 -27 -29 -23q-20 2 -34 2q-89 0 -145 -32v-384q0 -32 -30 -32h-10 q-30 0 -30 32v445q0 23 21 23h2q10 0 15 -5.5t10 -19.5l6 -17q70 52 161 52z" />
<glyph unicode="&#x15a;" horiz-adv-x="595" d="M294 827l25 49q12 24 36 24h19q13 0 18.5 -12.5t-4.5 -23.5l-42 -47q-15 -17 -28 -17h-9q-11 0 -15.5 8.5t0.5 18.5zM265 53q203 0 203 163q0 77 -35 104t-134 40q-137 17 -191 57t-54 134q0 29 6 55.5t22.5 55.5t43.5 50t73.5 34.5t106.5 13.5q96 0 168 -24 q27 -9 27 -34v-14q0 -12 -9 -17t-26 1q-63 25 -161 25q-102 0 -142 -39.5t-40 -107.5q0 -32 8.5 -53.5t20 -34.5t38 -22t48.5 -12.5t65 -9.5q123 -16 180.5 -57.5t57.5 -144.5q0 -42 -12.5 -79t-41.5 -71.5t-86 -55t-137 -20.5q-94 0 -184 30q-26 9 -26 34v11q0 11 8.5 17.5 t23.5 1.5q90 -31 179 -31z" />
<glyph unicode="&#x15b;" horiz-adv-x="460" d="M220 574l37 149q6 27 35 27h15q15 0 21 -11t1 -25l-56 -141q-9 -23 -30 -23h-3q-12 0 -17 7t-3 17zM208 52q132 0 132 91q0 39 -22 59.5t-91 26.5q-101 9 -138 42t-37 91q0 61 45 104.5t142 43.5q76 0 130 -19q22 -7 22 -29v-11q0 -12 -9.5 -18t-24.5 -2q-65 17 -119 17 q-69 0 -94.5 -22.5t-25.5 -63.5q0 -35 23 -52t91 -23q101 -9 138.5 -43t37.5 -100t-48 -110t-153 -44q-75 0 -135 21q-22 7 -22 29v12q0 11 8 18t22 3q84 -21 128 -21z" />
<glyph unicode="&#x15c;" horiz-adv-x="595" d="M372 878l60 -53q8 -7 5.5 -16t-11.5 -9h-5q-15 0 -37 12l-78 44l-78 -44q-22 -12 -37 -12h-5q-9 0 -11.5 9t5.5 16l60 53q26 22 47 22h38q21 0 47 -22zM265 53q203 0 203 163q0 77 -35 104t-134 40q-137 17 -191 57t-54 134q0 29 6 55.5t22.5 55.5t43.5 50t73.5 34.5 t106.5 13.5q96 0 168 -24q27 -9 27 -34v-14q0 -12 -9 -17t-26 1q-63 25 -161 25q-102 0 -142 -39.5t-40 -107.5q0 -32 8.5 -53.5t20 -34.5t38 -22t48.5 -12.5t65 -9.5q123 -16 180.5 -57.5t57.5 -144.5q0 -42 -12.5 -79t-41.5 -71.5t-86 -55t-137 -20.5q-94 0 -184 30 q-26 9 -26 34v11q0 11 8.5 17.5t23.5 1.5q90 -31 179 -31z" />
<glyph unicode="&#x15d;" horiz-adv-x="460" d="M282 731l114 -155q7 -9 3 -17.5t-14 -8.5h-6q-20 0 -36 17l-114 124l-114 -124q-16 -17 -36 -17h-6q-10 0 -14 8.5t3 17.5l114 155q13 19 35 19h36q22 0 35 -19zM208 52q132 0 132 91q0 39 -22 59.5t-91 26.5q-101 9 -138 42t-37 91q0 61 45 104.5t142 43.5q76 0 130 -19 q22 -7 22 -29v-11q0 -12 -9.5 -18t-24.5 -2q-65 17 -119 17q-69 0 -94.5 -22.5t-25.5 -63.5q0 -35 23 -52t91 -23q101 -9 138.5 -43t37.5 -100t-48 -110t-153 -44q-75 0 -135 21q-22 7 -22 29v12q0 11 8 18t22 3q84 -21 128 -21z" />
<glyph unicode="&#x15e;" horiz-adv-x="595" d="M265 53q203 0 203 163q0 77 -35 104t-134 40q-137 17 -191 57t-54 134q0 29 6 55.5t22.5 55.5t43.5 50t73.5 34.5t106.5 13.5q96 0 168 -24q27 -9 27 -34v-14q0 -12 -9 -17t-26 1q-63 25 -161 25q-102 0 -142 -39.5t-40 -107.5q0 -32 8.5 -53.5t20 -34.5t38 -22 t48.5 -12.5t65 -9.5q123 -16 180.5 -57.5t57.5 -144.5q0 -39 -11 -74t-36.5 -68.5t-75 -55.5t-118.5 -26l5 -56q95 -24 95 -97q0 -41 -29.5 -65t-81.5 -24q-42 0 -72 9q-22 7 -22 27v5q0 9 6.5 14t18.5 2q27 -6 52 -6q67 0 67 36q0 47 -64 59q-25 4 -22 31l6 63 q-96 1 -179 30q-26 9 -26 34v11q0 11 8.5 17.5t23.5 1.5q90 -31 179 -31z" />
<glyph unicode="&#x15f;" horiz-adv-x="460" d="M208 52q132 0 132 91q0 39 -22 59.5t-91 26.5q-101 9 -138 42t-37 91q0 61 45 104.5t142 43.5q76 0 130 -19q22 -7 22 -29v-11q0 -12 -9.5 -18t-24.5 -2q-65 17 -119 17q-69 0 -94.5 -22.5t-25.5 -63.5q0 -35 23 -52t91 -23q101 -9 138.5 -43t37.5 -100q0 -61 -42 -104 t-133 -49l5 -55q95 -24 95 -97q0 -41 -29.5 -65t-81.5 -24q-42 0 -72 9q-22 7 -22 27v5q0 9 6.5 14t18.5 2q27 -6 52 -6q67 0 67 36q0 47 -64 59q-25 4 -22 31l6 63q-74 3 -120 21q-22 7 -22 29v12q0 11 8 18t22 3q84 -21 128 -21z" />
<glyph unicode="&#x160;" horiz-adv-x="595" d="M240 822l-60 53q-8 7 -5.5 16t11.5 9h5q15 0 37 -12l78 -44l78 44q22 12 37 12h5q9 0 11.5 -9t-5.5 -16l-60 -53q-26 -22 -47 -22h-38q-21 0 -47 22zM265 53q203 0 203 163q0 77 -35 104t-134 40q-137 17 -191 57t-54 134q0 29 6 55.5t22.5 55.5t43.5 50t73.5 34.5 t106.5 13.5q96 0 168 -24q27 -9 27 -34v-14q0 -12 -9 -17t-26 1q-63 25 -161 25q-102 0 -142 -39.5t-40 -107.5q0 -32 8.5 -53.5t20 -34.5t38 -22t48.5 -12.5t65 -9.5q123 -16 180.5 -57.5t57.5 -144.5q0 -42 -12.5 -79t-41.5 -71.5t-86 -55t-137 -20.5q-94 0 -184 30 q-26 9 -26 34v11q0 11 8.5 17.5t23.5 1.5q90 -31 179 -31z" />
<glyph unicode="&#x161;" horiz-adv-x="460" d="M176 569l-114 155q-7 9 -3 17.5t14 8.5h6q20 0 36 -17l114 -124l114 124q16 17 36 17h6q10 0 14 -8.5t-3 -17.5l-114 -155q-13 -19 -35 -19h-36q-22 0 -35 19zM208 52q132 0 132 91q0 39 -22 59.5t-91 26.5q-101 9 -138 42t-37 91q0 61 45 104.5t142 43.5q76 0 130 -19 q22 -7 22 -29v-11q0 -12 -9.5 -18t-24.5 -2q-65 17 -119 17q-69 0 -94.5 -22.5t-25.5 -63.5q0 -35 23 -52t91 -23q101 -9 138.5 -43t37.5 -100t-48 -110t-153 -44q-75 0 -135 21q-22 7 -22 29v12q0 11 8 18t22 3q84 -21 128 -21z" />
<glyph unicode="&#x162;" horiz-adv-x="560" d="M222 -226l19 148q3 28 32 28h16q15 0 22.5 -11t3.5 -25l-40 -141q-7 -23 -28 -23h-3q-12 0 -18 7t-4 17zM69 750h422q30 0 30 -29v-5q0 -29 -30 -29h-177v-655q0 -32 -30 -32h-8q-30 0 -30 32v655h-177q-30 0 -30 29v5q0 29 30 29z" />
<glyph unicode="&#x163;" horiz-adv-x="375" d="M148 -226l19 148q3 28 32 28h16q15 0 22.5 -11t3.5 -25l-40 -141q-7 -23 -28 -23h-3q-12 0 -18 7t-4 17zM120 445h-82q-22 0 -22 18q0 15 22 21l82 19v119q0 22 21 28l18 5q12 4 21.5 -2t9.5 -17v-136h128q27 0 27 -26v-3q0 -26 -27 -26h-128v-311q0 -86 96 -86h19 q24 0 24 -23v-10q0 -21 -25 -24q-4 -1 -24 -1q-69 0 -114.5 33.5t-45.5 102.5v319z" />
<glyph unicode="&#x164;" horiz-adv-x="560" d="M214 822l-60 53q-8 7 -5.5 16t11.5 9h5q15 0 37 -12l78 -44l78 44q22 12 37 12h5q9 0 11.5 -9t-5.5 -16l-60 -53q-26 -22 -47 -22h-38q-21 0 -47 22zM69 750h422q30 0 30 -29v-5q0 -29 -30 -29h-177v-655q0 -32 -30 -32h-8q-30 0 -30 32v655h-177q-30 0 -30 29v5 q0 29 30 29z" />
<glyph unicode="&#x165;" horiz-adv-x="375" d="M120 445h-82q-22 0 -22 18q0 15 22 21l82 19v119q0 22 21 28l18 5q12 4 21.5 -2t9.5 -17v-136h128q27 0 27 -26v-3q0 -26 -27 -26h-128v-311q0 -86 96 -86h19q24 0 24 -23v-10q0 -21 -25 -24q-4 -1 -24 -1q-69 0 -114.5 33.5t-45.5 102.5v319zM242 574l12 148q3 28 31 28 h13q16 0 24 -10.5t4 -25.5l-34 -141q-7 -23 -26 -23h-3q-11 0 -17 7t-4 17z" />
<glyph unicode="&#x166;" horiz-adv-x="560" d="M69 750h422q30 0 30 -29v-5q0 -29 -30 -29h-177v-266h98q27 0 27 -26v-9q0 -26 -27 -26h-98v-328q0 -32 -30 -32h-8q-30 0 -30 32v328h-98q-27 0 -27 26v9q0 26 27 26h98v266h-177q-30 0 -30 29v5q0 29 30 29z" />
<glyph unicode="&#x167;" horiz-adv-x="377" d="M120 445h-82q-22 0 -22 18q0 15 22 21l82 19v119q0 22 21 28l18 5q12 4 21.5 -2t9.5 -17v-136h128q27 0 27 -26v-3q0 -26 -27 -26h-128v-140h98q27 0 27 -26v-3q0 -26 -27 -26h-98v-116q0 -86 96 -86h19q24 0 24 -23v-10q0 -21 -25 -24q-4 -1 -24 -1q-69 0 -114.5 33.5 t-45.5 102.5v124h-73q-27 0 -27 26v3q0 26 27 26h73v140z" />
<glyph unicode="&#x168;" horiz-adv-x="670" d="M259 910q35 0 62 -15t48 -30.5t42 -15.5q36 0 45 27q8 24 30 24h2q13 0 20.5 -9t5.5 -23q-4 -34 -31.5 -56t-71.5 -22q-35 0 -62 15t-48 30.5t-42 15.5q-36 0 -45 -27q-8 -24 -30 -24h-2q-13 0 -20.5 9t-5.5 23q4 34 31.5 56t71.5 22zM70 235v483q0 32 30 32h8 q30 0 30 -32v-472q0 -193 197 -193t197 193v472q0 32 30 32h8q30 0 30 -32v-483q0 -61 -19.5 -107t-47.5 -71.5t-66.5 -41.5t-69 -20.5t-62.5 -4.5t-62.5 4.5t-69 20.5t-66.5 41.5t-47.5 71.5t-19.5 107z" />
<glyph unicode="&#x169;" horiz-adv-x="500" d="M171 715q28 0 51 -11t36.5 -24.5t30.5 -24.5t34 -11q36 0 45 27q8 24 30 24h2q13 0 20.5 -9t5.5 -23q-4 -34 -31.5 -56t-71.5 -22q-28 0 -51 11t-36.5 24.5t-30.5 24.5t-34 11q-36 0 -45 -27q-8 -24 -30 -24h-2q-13 0 -20.5 9t-5.5 23q4 34 31.5 56t71.5 22zM435 468 v-445q0 -23 -21 -23h-2q-10 0 -15 5.5t-10 19.5l-6 17q-70 -52 -151 -52q-170 0 -170 150v328q0 32 30 32h10q30 0 30 -32v-331q0 -47 25.5 -66t74.5 -19q77 0 135 32v384q0 32 30 32h10q30 0 30 -32z" />
<glyph unicode="&#x16a;" horiz-adv-x="670" d="M227 880h216q29 0 29 -28v-4q0 -28 -29 -28h-216q-29 0 -29 28v4q0 28 29 28zM70 235v483q0 32 30 32h8q30 0 30 -32v-472q0 -193 197 -193t197 193v472q0 32 30 32h8q30 0 30 -32v-483q0 -61 -19.5 -107t-47.5 -71.5t-66.5 -41.5t-69 -20.5t-62.5 -4.5t-62.5 4.5 t-69 20.5t-66.5 41.5t-47.5 71.5t-19.5 107z" />
<glyph unicode="&#x16b;" horiz-adv-x="500" d="M139 680h216q29 0 29 -28v-4q0 -28 -29 -28h-216q-29 0 -29 28v4q0 28 29 28zM435 468v-445q0 -23 -21 -23h-2q-10 0 -15 5.5t-10 19.5l-6 17q-70 -52 -151 -52q-170 0 -170 150v328q0 32 30 32h10q30 0 30 -32v-331q0 -47 25.5 -66t74.5 -19q77 0 135 32v384q0 32 30 32 h10q30 0 30 -32z" />
<glyph unicode="&#x16c;" horiz-adv-x="670" d="M335 790q-117 0 -140 77q-4 14 2.5 23.5t18.5 9.5h3q19 0 28 -23q11 -32 88 -32t88 32q9 23 28 23h3q12 0 18.5 -9.5t2.5 -23.5q-23 -77 -140 -77zM70 235v483q0 32 30 32h8q30 0 30 -32v-472q0 -193 197 -193t197 193v472q0 32 30 32h8q30 0 30 -32v-483 q0 -61 -19.5 -107t-47.5 -71.5t-66.5 -41.5t-69 -20.5t-62.5 -4.5t-62.5 4.5t-69 20.5t-66.5 41.5t-47.5 71.5t-19.5 107z" />
<glyph unicode="&#x16d;" horiz-adv-x="500" d="M247 550q-90 0 -132 51.5t-42 122.5q0 26 24 26h3q22 0 24 -24q4 -58 31.5 -87t91.5 -29t91.5 29t31.5 87q2 24 24 24h3q24 0 24 -26q0 -71 -42 -122.5t-132 -51.5zM435 468v-445q0 -23 -21 -23h-2q-10 0 -15 5.5t-10 19.5l-6 17q-70 -52 -151 -52q-170 0 -170 150v328 q0 32 30 32h10q30 0 30 -32v-331q0 -47 25.5 -66t74.5 -19q77 0 135 32v384q0 32 30 32h10q30 0 30 -32z" />
<glyph unicode="&#x16e;" horiz-adv-x="670" d="M335 921q94 0 94 -71t-94 -71t-94 71t94 71zM335 828q44 0 44 22t-44 22t-44 -22t44 -22zM70 235v483q0 32 30 32h8q30 0 30 -32v-472q0 -193 197 -193t197 193v472q0 32 30 32h8q30 0 30 -32v-483q0 -61 -19.5 -107t-47.5 -71.5t-66.5 -41.5t-69 -20.5t-62.5 -4.5 t-62.5 4.5t-69 20.5t-66.5 41.5t-47.5 71.5t-19.5 107z" />
<glyph unicode="&#x16f;" horiz-adv-x="500" d="M247 702q-54 0 -54 -52t54 -52t54 52t-54 52zM247 549q-47 0 -75.5 25.5t-28.5 75.5t28.5 75.5t75.5 25.5t75.5 -25.5t28.5 -75.5t-28.5 -75.5t-75.5 -25.5zM435 468v-445q0 -23 -21 -23h-2q-10 0 -15 5.5t-10 19.5l-6 17q-70 -52 -151 -52q-170 0 -170 150v328 q0 32 30 32h10q30 0 30 -32v-331q0 -47 25.5 -66t74.5 -19q77 0 135 32v384q0 32 30 32h10q30 0 30 -32z" />
<glyph unicode="&#x170;" horiz-adv-x="670" d="M263 827l25 49q12 24 36 24h19q13 0 18.5 -12.5t-4.5 -23.5l-42 -47q-15 -17 -28 -17h-9q-11 0 -15.5 8.5t0.5 18.5zM383 827l25 49q12 24 36 24h19q13 0 18.5 -12.5t-4.5 -23.5l-42 -47q-15 -17 -28 -17h-9q-11 0 -15.5 8.5t0.5 18.5zM70 235v483q0 32 30 32h8 q30 0 30 -32v-472q0 -193 197 -193t197 193v472q0 32 30 32h8q30 0 30 -32v-483q0 -61 -19.5 -107t-47.5 -71.5t-66.5 -41.5t-69 -20.5t-62.5 -4.5t-62.5 4.5t-69 20.5t-66.5 41.5t-47.5 71.5t-19.5 107z" />
<glyph unicode="&#x171;" horiz-adv-x="500" d="M288 574l37 149q6 27 35 27h15q15 0 21 -11t1 -25l-56 -141q-9 -23 -30 -23h-3q-12 0 -17 7t-3 17zM168 574l37 149q6 27 35 27h15q15 0 21 -11t1 -25l-56 -141q-9 -23 -30 -23h-3q-12 0 -17 7t-3 17zM435 468v-445q0 -23 -21 -23h-2q-10 0 -15 5.5t-10 19.5l-6 17 q-70 -52 -151 -52q-170 0 -170 150v328q0 32 30 32h10q30 0 30 -32v-331q0 -47 25.5 -66t74.5 -19q77 0 135 32v384q0 32 30 32h10q30 0 30 -32z" />
<glyph unicode="&#x172;" horiz-adv-x="670" d="M70 235v483q0 32 30 32h8q30 0 30 -32v-472q0 -193 197 -193t197 193v472q0 32 30 32h8q30 0 30 -32v-483q0 -56 -14 -97.5t-40 -67.5t-52.5 -40.5t-62.5 -26.5q-51 -16 -83.5 -60t-32.5 -85q0 -57 54 -57q17 0 32 3q25 6 25 -16v-6q0 -22 -22 -27t-49 -5 q-48 0 -74.5 26.5t-26.5 68.5q0 83 75 145q-32 1 -62.5 6t-67.5 21t-64.5 41.5t-46 71t-18.5 105.5z" />
<glyph unicode="&#x173;" horiz-adv-x="500" d="M388 21q-5 9 -7 21q-70 -52 -151 -52q-170 0 -170 150v328q0 32 30 32h10q30 0 30 -32v-331q0 -47 25.5 -66t74.5 -19q77 0 135 32v384q0 32 30 32h10q30 0 30 -32v-445q0 -15 -11 -21q-30 -18 -62.5 -60t-32.5 -84q0 -57 54 -57q17 0 32 3q25 6 25 -16v-6q0 -22 -22 -27 t-49 -5q-48 0 -74.5 26.5t-26.5 68.5q0 52 31 98t89 78z" />
<glyph unicode="&#x174;" horiz-adv-x="880" d="M431 750h18q30 0 37 -31l168 -623l128 625q6 29 33 29h13q13 0 20.5 -9t4.5 -24l-156 -698q-7 -29 -37 -29h-12q-29 0 -37 29l-171 641l-171 -641q-8 -29 -37 -29h-12q-30 0 -37 29l-156 698q-3 15 4.5 24t20.5 9h13q27 0 33 -29l128 -625l168 623q7 31 37 31zM506 878 l60 -53q8 -7 5.5 -16t-11.5 -9h-5q-15 0 -37 12l-78 44l-78 -44q-22 -12 -37 -12h-5q-9 0 -11.5 9t5.5 16l60 53q26 22 47 22h38q21 0 47 -22z" />
<glyph unicode="&#x175;" horiz-adv-x="700" d="M403 731l114 -155q7 -9 3 -17.5t-14 -8.5h-6q-20 0 -36 17l-114 124l-114 -124q-16 -17 -36 -17h-6q-10 0 -14 8.5t3 17.5l114 155q13 19 35 19h36q22 0 35 -19zM362 500q25 0 33 -26l118 -368l89 366q6 28 31 28h19q14 0 20.5 -9.5t2.5 -23.5l-127 -452q-7 -25 -31 -25 h-4q-24 0 -32 25l-131 410l-131 -410q-8 -25 -32 -25h-4q-24 0 -31 25l-127 452q-4 14 2.5 23.5t20.5 9.5h19q25 0 31 -28l89 -366l118 368q8 26 33 26h24z" />
<glyph unicode="&#x176;" horiz-adv-x="670" d="M401 878l60 -53q8 -7 5.5 -16t-11.5 -9h-5q-15 0 -37 12l-78 44l-78 -44q-22 -12 -37 -12h-5q-9 0 -11.5 9t5.5 16l60 53q26 22 47 22h38q21 0 47 -22zM634 712l-265 -404v-276q0 -32 -30 -32h-8q-30 0 -30 32v276l-265 404q-9 13 -3 25.5t21 12.5h9q25 0 40 -24 l232 -361l232 361q15 24 40 24h9q15 0 21 -12.5t-3 -25.5z" />
<glyph unicode="&#x177;" horiz-adv-x="480" d="M293 731l114 -155q7 -9 3 -17.5t-14 -8.5h-6q-20 0 -36 17l-114 124l-114 -124q-16 -17 -36 -17h-6q-10 0 -14 8.5t3 17.5l114 155q13 19 35 19h36q22 0 35 -19zM210 13l-182 451q-5 13 1 24.5t21 11.5h18q26 0 34 -23l138 -387l138 387q8 23 34 23h18q15 0 21 -11.5 t1 -24.5l-271 -691q-8 -23 -34 -23h-12q-15 0 -21 11.5t-1 24.5z" />
<glyph unicode="&#x178;" horiz-adv-x="670" d="M190 850q0 21 14.5 35.5t35.5 14.5t35.5 -14.5t14.5 -35.5t-14.5 -35.5t-35.5 -14.5t-35.5 14.5t-14.5 35.5zM380 850q0 21 14.5 35.5t35.5 14.5t35.5 -14.5t14.5 -35.5t-14.5 -35.5t-35.5 -14.5t-35.5 14.5t-14.5 35.5zM634 712l-265 -404v-276q0 -32 -30 -32h-8 q-30 0 -30 32v276l-265 404q-9 13 -3 25.5t21 12.5h9q25 0 40 -24l232 -361l232 361q15 24 40 24h9q15 0 21 -12.5t-3 -25.5z" />
<glyph unicode="&#x179;" horiz-adv-x="610" d="M293 827l25 49q12 24 36 24h19q13 0 18.5 -12.5t-4.5 -23.5l-42 -47q-15 -17 -28 -17h-9q-11 0 -15.5 8.5t0.5 18.5zM90 750h435q30 0 30 -29v-3q0 -14 -21 -46l-406 -611l412 2q30 0 30 -29v-5q0 -29 -30 -29h-470q-30 0 -30 29v3q0 14 21 46l406 611l-377 -2 q-30 0 -30 29v5q0 29 30 29z" />
<glyph unicode="&#x17a;" horiz-adv-x="450" d="M206 574l37 149q6 27 35 27h15q15 0 21 -11t1 -25l-56 -141q-9 -23 -30 -23h-3q-12 0 -17 7t-3 17zM395 435l-278 -376h276q27 0 27 -26v-7q0 -26 -27 -26h-336q-27 0 -27 26v5q0 15 15 34l278 376h-251q-27 0 -27 26v7q0 26 27 26h311q27 0 27 -26v-5q0 -15 -15 -34z " />
<glyph unicode="&#x17b;" horiz-adv-x="610" d="M255 850q0 21 14.5 35.5t35.5 14.5t35.5 -14.5t14.5 -35.5t-14.5 -35.5t-35.5 -14.5t-35.5 14.5t-14.5 35.5zM90 750h435q30 0 30 -29v-3q0 -14 -21 -46l-406 -611l412 2q30 0 30 -29v-5q0 -29 -30 -29h-470q-30 0 -30 29v3q0 14 21 46l406 611l-377 -2q-30 0 -30 29v5 q0 29 30 29z" />
<glyph unicode="&#x17c;" horiz-adv-x="450" d="M175 650q0 21 14.5 35.5t35.5 14.5t35.5 -14.5t14.5 -35.5t-14.5 -35.5t-35.5 -14.5t-35.5 14.5t-14.5 35.5zM395 435l-278 -376h276q27 0 27 -26v-7q0 -26 -27 -26h-336q-27 0 -27 26v5q0 15 15 34l278 376h-251q-27 0 -27 26v7q0 26 27 26h311q27 0 27 -26v-5 q0 -15 -15 -34z" />
<glyph unicode="&#x17d;" horiz-adv-x="610" d="M239 822l-60 53q-8 7 -5.5 16t11.5 9h5q15 0 37 -12l78 -44l78 44q22 12 37 12h5q9 0 11.5 -9t-5.5 -16l-60 -53q-26 -22 -47 -22h-38q-21 0 -47 22zM90 750h435q30 0 30 -29v-3q0 -14 -21 -46l-406 -611l412 2q30 0 30 -29v-5q0 -29 -30 -29h-470q-30 0 -30 29v3 q0 14 21 46l406 611l-377 -2q-30 0 -30 29v5q0 29 30 29z" />
<glyph unicode="&#x17e;" horiz-adv-x="450" d="M172 569l-114 155q-7 9 -3 17.5t14 8.5h6q20 0 36 -17l114 -124l114 124q16 17 36 17h6q10 0 14 -8.5t-3 -17.5l-114 -155q-13 -19 -35 -19h-36q-22 0 -35 19zM395 435l-278 -376h276q27 0 27 -26v-7q0 -26 -27 -26h-336q-27 0 -27 26v5q0 15 15 34l278 376h-251 q-27 0 -27 26v7q0 26 27 26h311q27 0 27 -26v-5q0 -15 -15 -34z" />
<glyph unicode="&#x192;" horiz-adv-x="520" d="M202 445v-417q0 -28 -30 -28h-7q-30 0 -30 28v417h-82q-18 0 -18 18q0 13 17 18l83 24v90q0 78 44.5 121.5t135.5 43.5q75 0 128 -17q22 -7 22 -27v-14q0 -25 -30 -18q-56 14 -120 14q-51 0 -82 -27t-31 -76v-95h211q27 0 27 -26v-3q0 -26 -27 -26h-211z" />
<glyph unicode="&#x218;" horiz-adv-x="595" d="M219 -226l19 148q3 28 32 28h16q15 0 22.5 -11t3.5 -25l-40 -141q-7 -23 -28 -23h-3q-11 0 -17.5 7t-4.5 17zM265 53q203 0 203 163q0 77 -35 104t-134 40q-137 17 -191 57t-54 134q0 29 6 55.5t22.5 55.5t43.5 50t73.5 34.5t106.5 13.5q96 0 168 -24q27 -9 27 -34v-14 q0 -12 -9 -17t-26 1q-63 25 -161 25q-102 0 -142 -39.5t-40 -107.5q0 -32 8.5 -53.5t20 -34.5t38 -22t48.5 -12.5t65 -9.5q123 -16 180.5 -57.5t57.5 -144.5q0 -42 -12.5 -79t-41.5 -71.5t-86 -55t-137 -20.5q-94 0 -184 30q-26 9 -26 34v11q0 11 8.5 17.5t23.5 1.5 q90 -31 179 -31z" />
<glyph unicode="&#x219;" horiz-adv-x="460" d="M163 -226l19 148q3 28 32 28h16q15 0 22.5 -11t3.5 -25l-40 -141q-7 -23 -28 -23h-3q-11 0 -17.5 7t-4.5 17zM208 52q132 0 132 91q0 39 -22 59.5t-91 26.5q-101 9 -138 42t-37 91q0 61 45 104.5t142 43.5q76 0 130 -19q22 -7 22 -29v-11q0 -12 -9.5 -18t-24.5 -2 q-65 17 -119 17q-69 0 -94.5 -22.5t-25.5 -63.5q0 -35 23 -52t91 -23q101 -9 138.5 -43t37.5 -100t-48 -110t-153 -44q-75 0 -135 21q-22 7 -22 29v12q0 11 8 18t22 3q84 -21 128 -21z" />
<glyph unicode="&#x237;" horiz-adv-x="230" d="M-15 -255q-32 0 -32 27v5q0 27 32 27q96 0 96 96v568q0 32 30 32h8q30 0 30 -32v-573q0 -72 -45 -111t-119 -39z" />
<glyph unicode="&#x2c6;" d="M338 731l114 -155q7 -9 3 -17.5t-14 -8.5h-6q-20 0 -36 17l-114 124l-114 -124q-16 -17 -36 -17h-6q-10 0 -14 8.5t3 17.5l114 155q13 19 35 19h36q22 0 35 -19z" />
<glyph unicode="&#x2c7;" d="M232 569l-114 155q-7 9 -3 17.5t14 8.5h6q20 0 36 -17l114 -124l114 124q16 17 36 17h6q10 0 14 -8.5t-3 -17.5l-114 -155q-13 -19 -35 -19h-36q-22 0 -35 19z" />
<glyph unicode="&#x2d8;" d="M285 550q-90 0 -132 51.5t-42 122.5q0 26 24 26h3q22 0 24 -24q4 -58 31.5 -87t91.5 -29t91.5 29t31.5 87q2 24 24 24h3q24 0 24 -26q0 -71 -42 -122.5t-132 -51.5z" />
<glyph unicode="&#x2d9;" d="M235 650q0 21 14.5 35.5t35.5 14.5t35.5 -14.5t14.5 -35.5t-14.5 -35.5t-35.5 -14.5t-35.5 14.5t-14.5 35.5z" />
<glyph unicode="&#x2da;" d="M285 702q-54 0 -54 -52t54 -52t54 52t-54 52zM285 549q-47 0 -75.5 25.5t-28.5 75.5t28.5 75.5t75.5 25.5t75.5 -25.5t28.5 -75.5t-28.5 -75.5t-75.5 -25.5z" />
<glyph unicode="&#x2db;" d="M316 25q19 12 28 -5l2 -4q8 -15 -11 -29q-85 -57 -85 -129q0 -57 54 -57q17 0 32 3q25 6 25 -16v-6q0 -22 -22 -27t-49 -5q-48 0 -74.5 26.5t-26.5 68.5q0 108 127 180z" />
<glyph unicode="&#x2dc;" d="M209 715q28 0 51 -11t36.5 -24.5t30.5 -24.5t34 -11q36 0 45 27q8 24 30 24h2q13 0 20.5 -9t5.5 -23q-4 -34 -31.5 -56t-71.5 -22q-28 0 -51 11t-36.5 24.5t-30.5 24.5t-34 11q-36 0 -45 -27q-8 -24 -30 -24h-2q-13 0 -20.5 9t-5.5 23q4 34 31.5 56t71.5 22z" />
<glyph unicode="&#x2dd;" d="M326 574l37 149q6 27 35 27h15q15 0 21 -11t1 -25l-56 -141q-9 -23 -30 -23h-3q-12 0 -17 7t-3 17zM206 574l37 149q6 27 35 27h15q15 0 21 -11t1 -25l-56 -141q-9 -23 -30 -23h-3q-12 0 -17 7t-3 17z" />
<glyph unicode="&#x329;" d="M255 -221v142q0 29 28 29h4q28 0 28 -29v-142q0 -29 -28 -29h-4q-28 0 -28 29z" />
<glyph unicode="&#x2002;" horiz-adv-x="500" />
<glyph unicode="&#x2003;" horiz-adv-x="1000" />
<glyph unicode="&#x2004;" horiz-adv-x="333" />
<glyph unicode="&#x2005;" horiz-adv-x="250" />
<glyph unicode="&#x2006;" horiz-adv-x="167" />
<glyph unicode="&#x2007;" />
<glyph unicode="&#x2008;" horiz-adv-x="190" />
<glyph unicode="&#x2009;" horiz-adv-x="100" />
<glyph unicode="&#x200a;" horiz-adv-x="50" />
<glyph unicode="&#x200b;" horiz-adv-x="0" />
<glyph unicode="&#x2012;" d="M75 338h420q30 0 30 -29v-8q0 -29 -30 -29h-420q-30 0 -30 29v8q0 29 30 29z" />
<glyph unicode="&#x2013;" horiz-adv-x="500" d="M75 338h350q30 0 30 -29v-8q0 -29 -30 -29h-350q-30 0 -30 29v8q0 29 30 29z" />
<glyph unicode="&#x2014;" horiz-adv-x="1000" d="M75 338h850q30 0 30 -29v-8q0 -29 -30 -29h-850q-30 0 -30 29v8q0 29 30 29z" />
<glyph unicode="&#x2015;" horiz-adv-x="1140" d="M75 338h990q30 0 30 -29v-8q0 -29 -30 -29h-990q-30 0 -30 29v8q0 29 30 29z" />
<glyph unicode="&#x2016;" horiz-adv-x="375" d="M158 784v-958q0 -32 -30 -32h-11q-30 0 -30 32v958q0 32 30 32h11q30 0 30 -32zM288 784v-958q0 -32 -30 -32h-11q-30 0 -30 32v958q0 32 30 32h11q30 0 30 -32z" />
<glyph unicode="&#x2018;" horiz-adv-x="150" d="M114 725l-22 -193q-4 -32 -36 -32h-25q-15 0 -23 11t-3 26l60 188q8 25 28 25h3q10 0 15 -7t3 -18z" />
<glyph unicode="&#x2019;" horiz-adv-x="150" d="M36 525l22 193q4 32 36 32h25q15 0 23 -11t3 -26l-60 -188q-8 -25 -28 -25h-3q-10 0 -15 7t-3 18z" />
<glyph unicode="&#x201a;" horiz-adv-x="150" d="M26 -150l22 193q4 32 36 32h25q15 0 23 -11t3 -26l-60 -188q-8 -25 -28 -25h-3q-10 0 -15 7t-3 18z" />
<glyph unicode="&#x201b;" horiz-adv-x="150" d="M92 718l22 -193q2 -11 -3 -18t-15 -7h-3q-20 0 -28 25l-60 188q-5 15 3 26t23 11h25q32 0 36 -32z" />
<glyph unicode="&#x201c;" horiz-adv-x="300" d="M114 725l-22 -193q-4 -32 -36 -32h-25q-15 0 -23 11t-3 26l60 188q8 25 28 25h3q10 0 15 -7t3 -18zM264 725l-22 -193q-4 -32 -36 -32h-25q-15 0 -23 11t-3 26l60 188q8 25 28 25h3q10 0 15 -7t3 -18z" />
<glyph unicode="&#x201d;" horiz-adv-x="300" d="M186 525l22 193q4 32 36 32h25q15 0 23 -11t3 -26l-60 -188q-8 -25 -28 -25h-3q-10 0 -15 7t-3 18zM36 525l22 193q4 32 36 32h25q15 0 23 -11t3 -26l-60 -188q-8 -25 -28 -25h-3q-10 0 -15 7t-3 18z" />
<glyph unicode="&#x201e;" horiz-adv-x="300" d="M176 -150l22 193q4 32 36 32h25q15 0 23 -11t3 -26l-60 -188q-8 -25 -28 -25h-3q-10 0 -15 7t-3 18zM26 -150l22 193q4 32 36 32h25q15 0 23 -11t3 -26l-60 -188q-8 -25 -28 -25h-3q-10 0 -15 7t-3 18z" />
<glyph unicode="&#x201f;" horiz-adv-x="300" d="M92 718l22 -193q2 -11 -3 -18t-15 -7h-3q-20 0 -28 25l-60 188q-5 15 3 26t23 11h25q32 0 36 -32zM242 718l22 -193q2 -11 -3 -18t-15 -7h-3q-20 0 -28 25l-60 188q-5 15 3 26t23 11h25q32 0 36 -32z" />
<glyph unicode="&#x2020;" horiz-adv-x="360" d="M177 551h6q17 0 19 -18l24 -200q3 -32 -30 -32h-32q-33 0 -30 32l24 200q2 18 19 18zM209 577v6q0 17 18 19l91 13q32 3 32 -30v-10q0 -33 -32 -30l-91 13q-18 2 -18 19zM177 609q-17 0 -19 18l-13 91q-3 32 30 32h10q33 0 30 -32l-13 -91q-2 -18 -19 -18h-6zM151 577 q0 -17 -18 -19l-91 -13q-32 -3 -32 30v10q0 33 32 30l91 -13q18 -2 18 -19v-6z" />
<glyph unicode="&#x2021;" horiz-adv-x="360" d="M177 352h6q17 0 19 -18l24 -200q3 -32 -30 -32h-32q-33 0 -30 32l24 200q2 18 19 18zM177 609q-17 0 -19 18l-13 91q-3 32 30 32h10q33 0 30 -32l-13 -91q-2 -18 -19 -18h-6zM209 378v6q0 18 18 19l91 13q32 3 32 -30v-10q0 -33 -32 -30l-91 13q-18 1 -18 19zM151 577 q0 -17 -18 -19l-91 -13q-32 -3 -32 30v10q0 33 32 30l91 -13q18 -2 18 -19v-6zM151 378q0 -18 -18 -19l-91 -13q-32 -3 -32 30v10q0 33 32 30l91 -13q18 -1 18 -19v-6zM209 577v6q0 17 18 19l91 13q32 3 32 -30v-10q0 -33 -32 -30l-91 13q-18 2 -18 19zM207 480 q0 -13 -2 -27l-3 -25q-2 -18 -19 -18h-6q-17 0 -19 18l-3 25l-2 27q0 13 2 27l3 25q2 18 19 18h6q17 0 19 -18l3 -25z" />
<glyph unicode="&#x2022;" horiz-adv-x="370" d="M50 375q0 56 39.5 95.5t95.5 39.5t95.5 -39.5t39.5 -95.5t-39.5 -95.5t-95.5 -39.5t-95.5 39.5t-39.5 95.5z" />
<glyph unicode="&#x2026;" horiz-adv-x="960" d="M100 40q0 21 14.5 35.5t35.5 14.5t35.5 -14.5t14.5 -35.5t-14.5 -35.5t-35.5 -14.5t-35.5 14.5t-14.5 35.5zM430 40q0 21 14.5 35.5t35.5 14.5t35.5 -14.5t14.5 -35.5t-14.5 -35.5t-35.5 -14.5t-35.5 14.5t-14.5 35.5zM760 40q0 21 14.5 35.5t35.5 14.5t35.5 -14.5 t14.5 -35.5t-14.5 -35.5t-35.5 -14.5t-35.5 14.5t-14.5 35.5z" />
<glyph unicode="&#x2030;" horiz-adv-x="1315" d="M221 370q-89 0 -130 48.5t-41 146.5t41 146.5t130 48.5t130 -48.5t41 -146.5t-41 -146.5t-130 -48.5zM674 380q89 0 130 -48.5t41 -146.5t-41 -146.5t-130 -48.5t-130 48.5t-41 146.5t41 146.5t130 48.5zM1094 380q89 0 130 -48.5t41 -146.5t-41 -146.5t-130 -48.5 t-130 48.5t-41 146.5t41 146.5t130 48.5zM221 430q57 0 82 30.5t25 104.5t-25 104.5t-82 30.5t-82 -30.5t-25 -104.5t25 -104.5t82 -30.5zM1094 320q-57 0 -82 -30.5t-25 -104.5t25 -104.5t82 -30.5t82 30.5t25 104.5t-25 104.5t-82 30.5zM674 320q-57 0 -82 -30.5 t-25 -104.5t25 -104.5t82 -30.5t82 30.5t25 104.5t-25 104.5t-82 30.5zM725 713l-487 -689q-17 -24 -41 -24h-12q-13 0 -19 12t3 25l487 689q17 24 41 24h12q13 0 19 -12t-3 -25z" />
<glyph unicode="&#x2034;" horiz-adv-x="470" d="M93 500q-17 0 -19 18l-25 200q-3 32 30 32h32q33 0 30 -32l-25 -200q-2 -18 -19 -18h-4zM373 500q-17 0 -19 18l-25 200q-3 32 30 32h32q33 0 30 -32l-25 -200q-2 -18 -19 -18h-4zM233 500q-17 0 -19 18l-25 200q-3 32 30 32h32q33 0 30 -32l-25 -200q-2 -18 -19 -18h-4z " />
<glyph unicode="&#x2039;" horiz-adv-x="275" d="M201 98l-137 101q-24 17 -24 41v20q0 24 24 41l137 101q11 8 20 4t9 -17v-13q0 -18 -24 -39l-102 -87l102 -87q24 -21 24 -39v-13q0 -13 -9 -17t-20 4z" />
<glyph unicode="&#x203a;" horiz-adv-x="275" d="M211 199l-137 -101q-10 -8 -19.5 -4t-9.5 17v13q0 18 24 39l102 87l-102 87q-24 21 -24 39v13q0 13 9.5 17t19.5 -4l137 -101q24 -17 24 -41v-20q0 -24 -24 -41z" />
<glyph unicode="&#x2044;" horiz-adv-x="447" d="M501 713l-487 -689q-17 -24 -41 -24h-12q-13 0 -19 12t3 25l487 689q17 24 41 24h12q13 0 19 -12t-3 -25z" />
<glyph unicode="&#x2070;" horiz-adv-x="466" d="M233 393q125 0 125 153q0 152 -125 152q-124 0 -124 -152q0 -153 124 -153zM233 331q-193 0 -193 215q0 214 193 214t193 -214q0 -215 -193 -215z" />
<glyph unicode="&#x2074;" horiz-adv-x="423" d="M118 520h135v139zM318 520h53q32 0 32 -29v-3q0 -29 -32 -29h-53v-91q0 -27 -26 -27h-13q-26 0 -26 27v91h-201q-32 0 -32 27v2q0 12 24 37l206 214q21 21 37 21h5q26 0 26 -27v-213z" />
<glyph unicode="&#x2075;" horiz-adv-x="414" d="M206 528h-127q-30 0 -30 32v158q0 32 30 32h261q30 0 30 -29v-3q0 -29 -30 -29h-226v-102q33 3 95 3q96 0 135.5 -31t39.5 -97q0 -131 -187 -131q-79 0 -140 15q-22 5 -22 28v13q0 11 8 17.5t22 2.5q53 -15 134 -15q117 0 117 70q0 37 -23.5 51.5t-86.5 14.5z" />
<glyph unicode="&#x2076;" horiz-adv-x="437" d="M341 469q0 71 -105 71q-93 0 -118 -61q20 -87 115 -87q108 0 108 77zM248 698q-65 0 -99 -33t-37 -106q42 44 127 44q168 0 168 -134q0 -65 -43.5 -101.5t-130.5 -36.5q-188 0 -188 212q0 217 203 217q65 0 123 -15q21 -6 21 -28v-13q0 -11 -8.5 -17.5t-21.5 -2.5 q-47 14 -114 14z" />
<glyph unicode="&#x2077;" horiz-adv-x="375" d="M113 375l173 314h-244q-27 0 -27 26v9q0 26 27 26h291q27 0 27 -26v-5q0 -14 -16 -46l-156 -305q-14 -27 -40 -27h-17q-14 0 -19.5 11t1.5 23z" />
<glyph unicode="&#x2078;" horiz-adv-x="411" d="M206 586q50 0 68 15t18 41q0 56 -86 56q-87 0 -87 -56t87 -56zM206 331q-171 0 -171 128q0 36 16.5 64.5t43.5 39.5q-17 9 -29 30.5t-12 48.5q0 57 35 87.5t117 30.5q81 0 116 -30.5t35 -87.5q0 -27 -11.5 -48.5t-29.5 -30.5q27 -11 43.5 -39.5t16.5 -64.5 q0 -128 -170 -128zM206 392q102 0 102 69q0 67 -102 67q-103 0 -103 -67q0 -69 103 -69z" />
<glyph unicode="&#x2079;" horiz-adv-x="437" d="M111 622q0 -71 105 -71q93 0 118 61q-20 87 -115 87q-108 0 -108 -77zM204 393q65 0 99 33t37 106q-42 -44 -127 -44q-168 0 -168 134q0 65 43.5 101.5t130.5 36.5q188 0 188 -212q0 -217 -203 -217q-65 0 -123 15q-21 6 -21 28v13q0 11 8.5 17.5t21.5 2.5 q47 -14 114 -14z" />
<glyph unicode="&#x207a;" horiz-adv-x="390" d="M75 579h87v87q0 30 29 30h8q29 0 29 -30v-87h87q30 0 30 -29v-8q0 -29 -30 -29h-87v-87q0 -30 -29 -30h-8q-29 0 -29 30v87h-87q-30 0 -30 29v8q0 29 30 29z" />
<glyph unicode="&#x207b;" horiz-adv-x="390" d="M75 579h240q30 0 30 -29v-8q0 -29 -30 -29h-240q-30 0 -30 29v8q0 29 30 29z" />
<glyph unicode="&#x207c;" horiz-adv-x="390" d="M75 645h240q30 0 30 -29v-8q0 -29 -30 -29h-240q-30 0 -30 29v8q0 29 30 29zM75 513h240q30 0 30 -29v-8q0 -29 -30 -29h-240q-30 0 -30 29v8q0 29 30 29z" />
<glyph unicode="&#x207d;" horiz-adv-x="160" d="M89 546q0 -95 45 -195q6 -13 -1.5 -21.5t-19.5 -8.5h-15q-19 0 -30 21q-48 91 -48 204t48 204q11 21 30 21h15q12 0 19.5 -8.5t1.5 -21.5q-45 -100 -45 -195z" />
<glyph unicode="&#x207e;" horiz-adv-x="160" d="M71 546q0 95 -45 195q-6 13 1.5 21.5t19.5 8.5h15q19 0 30 -21q48 -91 48 -204t-48 -204q-11 -21 -30 -21h-15q-12 0 -19.5 8.5t-1.5 21.5q45 100 45 195z" />
<glyph unicode="&#x207f;" horiz-adv-x="285" d="M40 360v213q0 17 16 17h6q11 0 18 -15l2 -5q40 26 81 26q86 0 86 -80v-156q0 -20 -19 -20h-18q-19 0 -19 20v151q0 37 -39 37q-30 0 -58 -14v-174q0 -20 -19 -20h-18q-19 0 -19 20z" />
<glyph unicode="&#x2080;" horiz-adv-x="466" d="M233 52q125 0 125 153q0 152 -125 152q-124 0 -124 -152q0 -153 124 -153zM233 -10q-193 0 -193 215q0 214 193 214t193 -214q0 -215 -193 -215z" />
<glyph unicode="&#x2081;" horiz-adv-x="290" d="M145 348l-91 -3q-17 0 -17 15v4q0 12 14 17l102 30q27 8 37 8h2q21 0 21 -22v-365q0 -32 -30 -32h-8q-30 0 -30 32v316z" />
<glyph unicode="&#x2082;" horiz-adv-x="416" d="M191 356q-56 0 -105 -14q-14 -4 -22 3t-8 18v12q0 20 22 27q55 17 112 17q89 0 129.5 -36.5t40.5 -96.5q0 -38 -32.5 -77.5t-66 -63t-117.5 -77.5q-8 -5 -12 -8h214q30 0 30 -29v-2q0 -29 -30 -29h-281q-30 0 -30 29v4q0 18 21 31q151 99 194.5 138.5t43.5 84.5 q0 69 -103 69z" />
<glyph unicode="&#x2083;" horiz-adv-x="430" d="M208 51q58 0 88.5 18t30.5 50q0 37 -19 51.5t-71 14.5h-88q-29 0 -29 28v2q0 28 29 28h87q42 0 58.5 14t16.5 45q0 55 -105 55q-81 0 -124 -13q-13 -4 -21.5 2.5t-8.5 17.5v13q0 22 22 28q54 14 131 14q171 0 171 -117q0 -30 -12.5 -51t-30.5 -29q62 -23 62 -104 q0 -59 -47.5 -93.5t-140.5 -34.5q-77 0 -140 15q-22 5 -22 28v13q0 11 8 17.5t22 2.5q58 -15 133 -15z" />
<glyph unicode="&#x2084;" horiz-adv-x="423" d="M118 179h135v139zM318 179h53q32 0 32 -29v-3q0 -29 -32 -29h-53v-91q0 -27 -26 -27h-13q-26 0 -26 27v91h-201q-32 0 -32 27v2q0 11 24 37l206 214q21 21 37 21h5q26 0 26 -27v-213z" />
<glyph unicode="&#x2085;" horiz-adv-x="414" d="M206 187h-127q-30 0 -30 32v158q0 32 30 32h261q30 0 30 -29v-3q0 -29 -30 -29h-226v-102q33 3 95 3q96 0 135.5 -31t39.5 -97q0 -131 -187 -131q-79 0 -140 15q-22 5 -22 28v13q0 11 8 17.5t22 2.5q53 -15 134 -15q117 0 117 70q0 37 -23.5 51.5t-86.5 14.5z" />
<glyph unicode="&#x2086;" horiz-adv-x="437" d="M341 128q0 71 -105 71q-93 0 -118 -61q20 -87 115 -87q108 0 108 77zM248 357q-65 0 -99 -33t-37 -106q42 44 127 44q168 0 168 -134q0 -65 -43.5 -101.5t-130.5 -36.5q-188 0 -188 212q0 217 203 217q65 0 123 -15q21 -6 21 -28v-13q0 -11 -8.5 -17.5t-21.5 -2.5 q-47 14 -114 14z" />
<glyph unicode="&#x2087;" horiz-adv-x="375" d="M113 34l173 314h-244q-27 0 -27 26v9q0 26 27 26h291q27 0 27 -26v-5q0 -14 -16 -46l-156 -305q-14 -27 -40 -27h-17q-14 0 -19.5 11t1.5 23z" />
<glyph unicode="&#x2088;" horiz-adv-x="411" d="M206 245q50 0 68 15t18 41q0 56 -86 56q-87 0 -87 -56t87 -56zM206 -10q-171 0 -171 128q0 36 16.5 64.5t43.5 39.5q-17 9 -29 30.5t-12 48.5q0 57 35 87.5t117 30.5q81 0 116 -30.5t35 -87.5q0 -27 -11.5 -48.5t-29.5 -30.5q27 -11 43.5 -39.5t16.5 -64.5 q0 -128 -170 -128zM206 51q102 0 102 69q0 67 -102 67q-103 0 -103 -67q0 -69 103 -69z" />
<glyph unicode="&#x2089;" horiz-adv-x="437" d="M111 281q0 -71 105 -71q93 0 118 61q-20 87 -115 87q-108 0 -108 -77zM204 52q65 0 99 33t37 106q-42 -44 -127 -44q-168 0 -168 134q0 65 43.5 101.5t130.5 36.5q188 0 188 -212q0 -217 -203 -217q-65 0 -123 15q-21 6 -21 28v13q0 11 8.5 17.5t21.5 2.5q47 -14 114 -14 z" />
<glyph unicode="&#x208a;" horiz-adv-x="390" d="M75 238h87v87q0 30 29 30h8q29 0 29 -30v-87h87q30 0 30 -29v-8q0 -29 -30 -29h-87v-87q0 -30 -29 -30h-8q-29 0 -29 30v87h-87q-30 0 -30 29v8q0 29 30 29z" />
<glyph unicode="&#x208b;" horiz-adv-x="390" d="M75 238h240q30 0 30 -29v-8q0 -29 -30 -29h-240q-30 0 -30 29v8q0 29 30 29z" />
<glyph unicode="&#x208c;" horiz-adv-x="390" d="M75 304h240q30 0 30 -29v-8q0 -29 -30 -29h-240q-30 0 -30 29v8q0 29 30 29zM75 172h240q30 0 30 -29v-8q0 -29 -30 -29h-240q-30 0 -30 29v8q0 29 30 29z" />
<glyph unicode="&#x208d;" horiz-adv-x="160" d="M89 205q0 -95 45 -195q6 -13 -1.5 -21.5t-19.5 -8.5h-15q-19 0 -30 21q-48 91 -48 204t48 204q11 21 30 21h15q12 0 19.5 -8.5t1.5 -21.5q-45 -100 -45 -195z" />
<glyph unicode="&#x208e;" horiz-adv-x="160" d="M71 205q0 95 -45 195q-6 13 1.5 21.5t19.5 8.5h15q19 0 30 -21q48 -91 48 -204t-48 -204q-11 -21 -30 -21h-15q-12 0 -19.5 8.5t-1.5 21.5q45 100 45 195z" />
<glyph unicode="&#x20ac;" d="M75 332h30v86h-30q-30 0 -30 29v8q0 29 30 29h34q11 138 67.5 207t183.5 69q78 0 135 -19q24 -8 24 -31v-9q0 -11 -9.5 -17t-24.5 -2q-57 16 -125 16q-90 0 -130.5 -54t-50.5 -160h253q12 0 17 -9t0 -20l-5 -13q-8 -24 -33 -24h-236v-86h184q12 0 17 -9t0 -20l-5 -13 q-8 -24 -33 -24h-159q10 -106 50.5 -160t130.5 -54q68 0 125 16q15 4 24.5 -2t9.5 -17v-9q0 -23 -24 -31q-57 -19 -135 -19q-127 0 -183.5 69t-67.5 207h-34q-30 0 -30 29v8q0 29 30 29z" />
<glyph unicode="&#x2113;" horiz-adv-x="310" d="M124 517v-164q110 128 110 286q0 36 -9.5 51t-34.5 15q-66 0 -66 -188zM195 45q10 0 34 3q10 2 17.5 -4.5t7.5 -17.5v-3q0 -23 -25 -29q-18 -4 -34 -4q-63 0 -102 31t-39 100v90l-7 -5q-13 -9 -25 -3t-12 19v14q0 18 18 30q2 1 10.5 7t15.5 12v234q0 241 136 241 q99 0 99 -131q0 -195 -165 -358v-148q0 -44 16.5 -61t54.5 -17z" />
<glyph unicode="&#x2116;" horiz-adv-x="1089" d="M695 565q0 98 41 146.5t130 48.5q178 0 178 -195t-178 -195q-89 0 -130 48.5t-41 146.5zM759 565q0 -74 25 -104.5t82 -30.5q59 0 87 31.5t28 103.5t-28 103.5t-87 31.5q-57 0 -82 -30.5t-25 -104.5zM135 736l394 -597l-2 579q0 32 30 32h8q30 0 30 -32v-686 q0 -32 -30 -32h-5q-16 0 -25 14l-394 597l2 -579q0 -32 -30 -32h-8q-30 0 -30 32v686q0 32 30 32h5q16 0 25 -14z" />
<glyph unicode="&#x2117;" horiz-adv-x="774" d="M387 -10q-143 0 -237.5 86.5t-94.5 236.5t94.5 236t237.5 86t237.5 -86t94.5 -236t-94.5 -236.5t-237.5 -86.5zM387 52q121 0 191 68.5t70 192.5q0 123 -70 191.5t-191 68.5t-191 -68.5t-70 -191.5q0 -124 70 -192.5t191 -68.5zM423 257h-93v-101q0 -32 -30 -32h-6 q-30 0 -30 32v312q0 32 30 32h129q66 0 96 -33.5t30 -87.5t-30 -88t-96 -34zM478 379q0 60 -52 60h-96v-121h96q52 0 52 61z" />
<glyph unicode="&#x2120;" horiz-adv-x="545" d="M469 521l2 168l-67 -145q-6 -13 -23 -13h-4q-17 0 -23 13l-67 145l2 -168q0 -21 -19 -21h-4q-19 0 -19 21v209q0 20 19 20h19q17 0 26 -20l68 -149l68 149q9 20 26 20h19q19 0 19 -20v-209q0 -21 -19 -21h-4q-19 0 -19 21zM101 493q-36 0 -68 8q-16 4 -16 20v3 q0 8 6 12.5t15 2.5q33 -7 63 -7q68 0 68 41q0 18 -13 26.5t-46 10.5q-55 5 -76.5 20.5t-21.5 47.5q0 79 105 79q37 0 65 -7q16 -4 16 -20v-3q0 -8 -5.5 -12.5t-14.5 -2.5q-28 6 -62 6q-35 0 -49.5 -9t-14.5 -29q0 -16 14 -23t48 -9q53 -5 74.5 -22t21.5 -52q0 -36 -26 -58.5 t-83 -22.5z" />
<glyph unicode="&#x2122;" horiz-adv-x="545" d="M469 521l2 168l-67 -145q-6 -13 -23 -13h-4q-17 0 -23 13l-67 145l2 -168q0 -21 -19 -21h-4q-19 0 -19 21v209q0 20 19 20h19q17 0 26 -20l68 -149l68 149q9 20 26 20h19q19 0 19 -20v-209q0 -21 -19 -21h-4q-19 0 -19 21zM18 750h166q19 0 19 -17v-4q0 -17 -19 -17h-61 v-191q0 -21 -19 -21h-6q-19 0 -19 21v191h-61q-19 0 -19 17v4q0 17 19 17z" />
<glyph unicode="&#x2126;" horiz-adv-x="700" d="M340 697q-117 0 -180.5 -68.5t-63.5 -189.5q0 -115 59.5 -218t134.5 -166q8 -6 8 -20v-7q0 -28 -30 -28h-215q-30 0 -30 28v4q0 28 30 28l157 -2q-72 65 -126.5 170t-54.5 211q0 151 80.5 235.5t230.5 84.5t230.5 -84.5t80.5 -235.5q0 -106 -54.5 -211t-126.5 -170l157 2 q30 0 30 -28v-4q0 -28 -30 -28h-215q-30 0 -30 28v7q0 14 8 20q75 63 134.5 166t59.5 218q0 121 -63.5 189.5t-180.5 68.5z" />
<glyph unicode="&#x212e;" horiz-adv-x="770" d="M735 375v-4q0 -29 -30 -29h-511v-216q72 -72 191 -72q79 0 137 32t83 79q13 25 38 25h23q12 0 18.5 -9.5t-0.5 -26.5q-9 -16 -18.5 -31t-35.5 -41.5t-56.5 -45t-80.5 -32.5t-108 -14q-89 0 -157.5 32t-109.5 87t-62 122.5t-21 143.5t21 143.5t62 122.5t109.5 87t157.5 32 t158 -32t110 -87t61.5 -122.5t20.5 -143.5zM385 696q-119 0 -191 -72v-216h382v216q-72 72 -191 72z" />
<glyph unicode="&#x2190;" horiz-adv-x="830" d="M459 717l-318 -309h624q30 0 30 -29v-8q0 -29 -30 -29h-624l318 -309q6 -5 7 -13t-3 -14t-12 -6h-42q-16 0 -28 12l-339 339h-1q-7 7 -7 23v2q0 16 7 22l1 1l339 339q12 12 28 12h42q8 0 12 -6t3 -14t-7 -13z" />
<glyph unicode="&#x2191;" horiz-adv-x="830" d="M377 654l-309 -318q-5 -6 -13 -7t-14 3t-6 12v42q0 16 12 28l339 339q8 8 23 8h2q16 0 22 -8h1l339 -339q12 -12 12 -28v-42q0 -8 -6 -12t-14 -3t-13 7l-309 318v-624q0 -30 -29 -30h-8q-29 0 -29 30v624z" />
<glyph unicode="&#x2192;" horiz-adv-x="830" d="M692 408l-318 309q-6 5 -7 13t3 14t12 6h42q16 0 28 -12l339 -339v-1q8 -6 8 -22v-2q0 -15 -8 -23l-339 -339q-12 -12 -28 -12h-42q-8 0 -12 6t-3 14t7 13l318 309h-624q-30 0 -30 29v8q0 29 30 29h624z" />
<glyph unicode="&#x2193;" horiz-adv-x="830" d="M443 96l309 318q5 6 13 7t14 -3t6 -12v-42q0 -16 -12 -28l-339 -339h-1q-6 -8 -22 -8h-2q-15 0 -23 8l-339 339q-12 12 -12 28v42q0 8 6 12t14 3t13 -7l309 -318v624q0 30 29 30h8q29 0 29 -30v-624z" />
<glyph unicode="&#x2196;" horiz-adv-x="830" d="M98 641l8 -450q0 -12 -10.5 -16t-19.5 5l-30 29q-11 11 -11 29v480q0 10 10 20l2 2q10 10 19 10h482q18 0 29 -11l29 -30q9 -9 5 -19.5t-16 -10.5l-449 8l633 -634q21 -20 1 -42l-6 -5q-20 -21 -41 0z" />
<glyph unicode="&#x2197;" horiz-adv-x="830" d="M724 191l8 450l-635 -635q-21 -21 -41 0l-6 5q-20 22 1 42l633 634l-449 -8q-12 0 -16 10.5t5 19.5l29 30q11 11 29 11h481q10 0 20 -10l2 -2q10 -12 10 -20v-480q0 -18 -11 -29l-30 -29q-9 -9 -19.5 -5t-10.5 16z" />
<glyph unicode="&#x2198;" horiz-adv-x="830" d="M732 109l-8 450q0 12 10.5 16t19.5 -5l30 -29q11 -11 11 -29v-481q-2 -11 -10 -19l-2 -2q-10 -10 -20 -10h-481q-18 0 -29 11l-29 30q-9 9 -5 19.5t16 10.5l449 -8l-633 634q-21 20 -1 42l6 5q20 21 41 0z" />
<glyph unicode="&#x2199;" horiz-adv-x="830" d="M106 559l-8 -450l635 635q21 21 41 0l6 -5q20 -22 -1 -42l-633 -634l449 8q12 0 16 -10.5t-5 -19.5l-29 -30q-11 -11 -29 -11h-482q-10 0 -19 10l-2 2q-10 9 -10 20v480q0 18 11 29l30 29q9 9 19.5 5t10.5 -16z" />
<glyph unicode="&#x2202;" horiz-adv-x="530" d="M225 760q75 0 124 -31.5t76.5 -99t38.5 -157t11 -222.5q0 -127 -45 -193.5t-165 -66.5t-165 66.5t-45 193.5t45 193.5t165 66.5q83 0 133 -47q-13 120 -52.5 177.5t-120.5 57.5q-71 0 -125 -16q-14 -4 -22 3t-8 18v9q0 22 22 29q57 19 133 19zM405 250q0 50 -4 80t-17 60 t-42.5 44t-76.5 14q-39 0 -65.5 -10.5t-41 -26t-22 -44t-9.5 -53t-2 -64.5t2 -64.5t9.5 -53t22 -44t41 -26t65.5 -10.5q47 0 76.5 14t42.5 44t17 60t4 80z" />
<glyph unicode="&#x2206;" horiz-adv-x="700" d="M357 760q30 0 40 -26l269 -657q14 -33 14 -45v-6q0 -26 -27 -26h-606q-27 0 -27 26v6q0 12 14 45l269 657q10 26 40 26h14zM604 61l-254 625l-254 -625h508z" />
<glyph unicode="&#x220f;" horiz-adv-x="740" d="M675 750q30 0 30 -29v-3q0 -29 -30 -29h-66v-657q0 -32 -30 -32h-11q-30 0 -30 32v657h-336v-657q0 -32 -30 -32h-11q-30 0 -30 32v657h-66q-30 0 -30 29v3q0 29 30 29h610z" />
<glyph unicode="&#x2211;" horiz-adv-x="635" d="M415 389l-318 289q-19 18 -19 36v7q0 29 30 29h441q30 0 30 -29v-3q0 -29 -30 -29l-377 2l293 -264q22 -20 22 -34v-8q0 -14 -22 -34l-319 -292l428 2q30 0 30 -29v-3q0 -29 -30 -29h-497q-30 0 -30 29v7q0 19 19 36z" />
<glyph unicode="&#x2212;" horiz-adv-x="490" d="M75 374h340q30 0 30 -29v-8q0 -29 -30 -29h-340q-30 0 -30 29v8q0 29 30 29z" />
<glyph unicode="&#x221a;" horiz-adv-x="740" d="M130 443l-80 -9q-27 -3 -27 25v5q0 24 27 27l99 11q34 3 41 -27l93 -408l378 659q14 24 40 24h18q16 0 21 -12t-3 -26l-408 -690q-11 -18 -18.5 -24.5t-21.5 -6.5h-25q-27 0 -34 30z" />
<glyph unicode="&#x221e;" horiz-adv-x="800" d="M752 357q0 -75 -43 -114t-119 -39q-105 0 -190 99q-85 -99 -190 -99q-76 0 -119 39t-43 114t43 114t119 39q105 0 190 -100q86 100 190 100q76 0 119 -39t43 -114zM683 357q0 95 -93 91q-87 -4 -150 -91q63 -87 150 -91q93 -4 93 91zM210 266q87 4 150 91q-63 87 -150 91 q-93 4 -93 -91t93 -91z" />
<glyph unicode="&#x222b;" horiz-adv-x="337" d="M81 -100v710q0 150 181 150q25 0 46 -3q24 -4 24 -27v-12q0 -26 -32 -22q-16 2 -38 2q-113 0 -113 -88v-715q0 -72 -45 -111t-119 -39q-32 0 -32 27v5q0 27 32 27q96 0 96 96z" />
<glyph unicode="&#x2248;" horiz-adv-x="490" d="M342 400q35 0 74 19q16 6 22.5 2t6.5 -15v-13q0 -22 -22 -33q-35 -19 -79 -19q-34 0 -62.5 11.5t-44.5 25t-39.5 25t-49.5 11.5q-35 0 -74 -19q-16 -6 -22.5 -2t-6.5 15v13q0 22 22 33q35 19 79 19q34 0 62.5 -11.5t44.5 -25t39.5 -25t49.5 -11.5zM342 268q35 0 74 19 q16 6 22.5 2t6.5 -15v-13q0 -22 -22 -33q-35 -19 -79 -19q-34 0 -62.5 11.5t-44.5 25t-39.5 25t-49.5 11.5q-35 0 -74 -19q-16 -6 -22.5 -2t-6.5 15v13q0 22 22 33q35 19 79 19q34 0 62.5 -11.5t44.5 -25t39.5 -25t49.5 -11.5z" />
<glyph unicode="&#x2260;" horiz-adv-x="490" d="M75 440h174l49 143q8 24 33 24h25q12 0 17 -9t0 -20l-54 -138h96q30 0 30 -29v-8q0 -29 -30 -29h-340q-30 0 -30 29v8q0 29 30 29zM75 308h340q30 0 30 -29v-8q0 -29 -30 -29h-171l-48 -143q-8 -24 -33 -24h-25q-12 0 -17 9t0 20l53 138h-99q-30 0 -30 29v8q0 29 30 29z " />
<glyph unicode="&#x2264;" horiz-adv-x="490" d="M416 217l-347 146q-24 10 -24 36v14q0 26 24 36l347 146q11 5 20 -0.5t9 -18.5v-17q0 -22 -24 -32l-301 -121l301 -121q24 -10 24 -32v-17q0 -13 -9 -18.5t-20 -0.5zM74 301l347 -146q24 -10 24 -32v-17q0 -13 -9 -18.5t-20 -0.5l-347 146q-24 10 -24 32v17q0 13 9 18.5 t20 0.5z" />
<glyph unicode="&#x2265;" horiz-adv-x="490" d="M421 363l-347 -146q-11 -5 -20 0.5t-9 18.5v17q0 22 24 32l301 121l-301 121q-24 10 -24 32v17q0 13 9 18.5t20 0.5l347 -146q24 -10 24 -36v-14q0 -26 -24 -36zM69 155l347 146q11 5 20 -0.5t9 -18.5v-17q0 -22 -24 -32l-347 -146q-11 -5 -20 0.5t-9 18.5v17q0 22 24 32 z" />
<glyph unicode="&#x22a0;" horiz-adv-x="880" d="M785 0h-690q-30 0 -30 32v686q0 32 30 32h690q30 0 30 -32v-686q0 -32 -30 -32zM744 66v618h-608v-618h608zM694 583l-208 -208l208 -208q23 -21 1 -41l-6 -6q-20 -22 -41 1l-208 208l-208 -208q-21 -23 -41 -1l-6 6q-22 20 1 41l208 208l-208 208q-23 21 -1 41l6 6 q20 22 41 -1l208 -208l208 208q21 23 41 1l6 -6q22 -20 -1 -41z" />
<glyph unicode="&#x25a0;" horiz-adv-x="880" d="M785 0h-690q-30 0 -30 32v686q0 32 30 32h690q30 0 30 -32v-686q0 -32 -30 -32z" />
<glyph unicode="&#x25a1;" horiz-adv-x="880" d="M744 66v618h-608v-618h608zM785 0h-690q-30 0 -30 32v686q0 32 30 32h690q30 0 30 -32v-686q0 -32 -30 -32z" />
<glyph unicode="&#x25aa;" horiz-adv-x="630" d="M535 0h-440q-30 0 -30 32v436q0 32 30 32h440q30 0 30 -32v-436q0 -32 -30 -32z" />
<glyph unicode="&#x25ab;" horiz-adv-x="630" d="M499 61v378h-368v-378h368zM535 0h-440q-30 0 -30 32v436q0 32 30 32h440q30 0 30 -32v-436q0 -32 -30 -32z" />
<glyph unicode="&#x25b2;" horiz-adv-x="880" d="M850 0h-820q-10 0 -18 8t-8 18q0 7 4 15l409 705q7 14 23 14q14 0 23 -14l409 -705q4 -8 4 -15q0 -10 -8 -18t-18 -8z" />
<glyph unicode="&#x25ba;" horiz-adv-x="750" d="M704 352l-606 -352q-8 -4 -15 -4q-11 0 -18.5 8t-7.5 18v706q0 10 7.5 18t18.5 8q7 0 15 -4l606 -352q14 -9 14 -23q0 -16 -14 -23z" />
<glyph unicode="&#x25bc;" horiz-adv-x="880" d="M30 750h820q10 0 18 -8t8 -18q0 -7 -4 -15l-409 -705q-7 -14 -23 -14q-14 0 -23 14l-409 705q-4 8 -4 15q0 10 8 18t18 8z" />
<glyph unicode="&#x25c4;" horiz-adv-x="750" d="M652 0l-606 352q-14 7 -14 23q0 14 14 23l606 352q8 4 15 4q11 0 18.5 -8t7.5 -18v-706q0 -10 -7.5 -18t-18.5 -8q-7 0 -15 4z" />
<glyph unicode="&#x25ca;" horiz-adv-x="690" d="M345 84l241 291l-241 291l-241 -291zM345 -10q-6 0 -12 7l-302 364q-6 7 -6 14t6 14l302 364q6 7 12 7t12 -7l302 -364q6 -7 6 -14t-6 -14l-302 -364q-6 -7 -12 -7z" />
<glyph unicode="&#x25cb;" horiz-adv-x="880" d="M55 375q0 160 112.5 272.5t272.5 112.5t272.5 -112.5t112.5 -272.5t-112.5 -272.5t-272.5 -112.5t-272.5 112.5t-112.5 272.5zM122 375q0 -135 92 -229t226 -94t226 94t92 229t-92 229t-226 94t-226 -94t-92 -229z" />
<glyph unicode="&#x25ce;" horiz-adv-x="850" d="M50 678v72h12l297 -206q-5 -6 -6 -10zM502 552l286 198h12v-72l-291 -138zM50 589v66l300 -125l-6 -10zM513 535l287 120v-66l-279 -66q-3 3 -7 11zM100 750h88l180 -191l-6 -10zM330 503l-280 7v59l290 -54q-5 -8 -10 -12zM491 568l171 182h88l-252 -193zM524 517 l276 52v-59l-264 -7zM50 490l267 6q-9 -14 -21 -20l-246 -46v60zM542 496l258 -6v-60l-232 44zM584 461l216 -51v-65l-176 73q-12 20 -40 43zM212 750h60l107 -176l-8 -11zM479 587l99 163h60l-151 -176zM50 345v65l214 51q-10 -4 -32 -11t-37.5 -13.5t-28.5 -14.5 q-38 -24 -68 -57zM290 750h47l56 -160l-10 -11zM631 401l169 -80v-21q-60 13 -110.5 38.5t-56.5 55.5q-2 4 -2 7zM464 609l49 141h47l-85 -157zM351 750h41l18 -145l-13 -11zM441 622l17 128h41l-40 -133l-6 9q-8 -2 -12 -4zM416 610l-11 140h39l-11 -131q-3 -1 -9 -4.5 t-8 -4.5zM71 331q-20 -20 -21 -28v18z" />
<glyph unicode="&#x25cf;" horiz-adv-x="880" d="M55 375q0 160 112.5 272.5t272.5 112.5t272.5 -112.5t112.5 -272.5t-112.5 -272.5t-272.5 -112.5t-272.5 112.5t-112.5 272.5z" />
<glyph unicode="&#x25e2;" horiz-adv-x="880" d="M67 228l519 521q11 10 26 6t19 -18l190 -707q6 -18 -6 -30q-11 -11 -29 -5l-708 189q-14 4 -18 18.5t7 25.5z" />
<glyph unicode="&#x25e3;" horiz-adv-x="880" d="M293 749l519 -521q11 -11 7 -25.5t-18 -18.5l-708 -189q-18 -6 -29 5q-12 12 -6 30l190 707q4 14 19 18t26 -6z" />
<glyph unicode="&#x25e4;" horiz-adv-x="880" d="M813 522l-519 -521q-11 -10 -26 -6t-19 18l-190 707q-6 18 6 30q11 11 29 5l708 -189q14 -4 18 -18.5t-7 -25.5z" />
<glyph unicode="&#x25e5;" horiz-adv-x="880" d="M586 1l-519 521q-11 11 -7 25.5t18 18.5l708 189q18 6 29 -5q12 -12 6 -30l-190 -707q-4 -14 -19 -18t-26 6z" />
<glyph unicode="&#x25fc;" horiz-adv-x="500" d="M0 500h500v-500h-500v500z" />
<glyph unicode="&#x2605;" horiz-adv-x="864" d="M335 466l70 282q6 22 27 22t27 -22l70 -282l291 21q24 2 30 -18q7 -20 -14 -33l-249 -151l110 -267q10 -23 -7 -35t-35 3l-223 187l-223 -187q-18 -15 -35 -3t-7 35l110 267l-249 151q-21 13 -14 33q6 20 30 18z" />
<glyph unicode="&#x2612;" horiz-adv-x="630" d="M535 0h-440q-30 0 -30 32v436q0 32 30 32h440q30 0 30 -32v-436q0 -32 -30 -32zM499 61v378h-368v-378h368zM403 116l-88 88l-88 -88q-21 -23 -41 -1l-6 6q-22 20 1 41l88 88l-88 88q-23 21 -1 41l6 6q20 22 41 -1l88 -88l88 88q21 23 41 1l6 -6q22 -20 -1 -41l-88 -88 l88 -88q23 -21 1 -41l-6 -6q-20 -22 -41 1z" />
<glyph unicode="&#x263c;" horiz-adv-x="944" d="M472 -30q-22 0 -27 25l-14 81l-35 -73q-11 -23 -33 -17t-19 31l7 82l-53 -63q-16 -20 -36 -9q-18 11 -10 36l28 77l-66 -45q-21 -16 -38 1q-15 15 0 37l46 65l-75 -27q-25 -8 -36 10q-11 20 8 36l62 53l-79 -7q-26 -2 -32 20q-5 22 18 33l71 33l-81 14q-22 4 -24 27 q2 23 24 27l81 14l-71 33q-23 11 -18 33q6 22 32 20l79 -7l-62 53q-19 16 -8 36q11 18 36 10l75 -27l-46 65q-15 22 0 37q17 17 38 1l66 -45l-28 77q-8 25 10 36q20 11 36 -9l53 -63l-7 82q-3 25 19 31t33 -17l35 -73l14 81q5 25 27 25t27 -25l14 -81l35 73q11 23 33 17 t19 -31l-7 -82l53 63q16 20 36 9q18 -11 10 -36l-28 -77l66 45q21 16 38 -1q15 -15 0 -37l-46 -65l75 27q25 8 36 -10q11 -20 -8 -36l-62 -53l79 7q26 2 32 -20q5 -22 -18 -33l-71 -33l81 -14q22 -4 24 -27q-2 -23 -24 -27l-81 -14l71 -33q23 -11 18 -33q-6 -22 -32 -20 l-79 7l62 -53q19 -16 8 -36q-11 -18 -36 -10l-75 27l46 -65q15 -22 0 -37q-17 -17 -38 -1l-66 45l28 -77q8 -25 -10 -36q-20 -11 -36 9l-53 63l7 -82q3 -25 -19 -31t-33 17l-35 73l-14 -81q-5 -25 -27 -25z" />
<glyph unicode="&#x263e;" horiz-adv-x="864" d="M47 375q0 160 114 272.5t279 112.5q137 0 230 -64q14 -10 14 -24q0 -11 -8 -18.5t-19 -7.5q-4 0 -13 3q-43 15 -84 15q-134 0 -217.5 -75.5t-83.5 -213.5t83.5 -213.5t217.5 -75.5q41 0 84 15q9 3 13 3q11 0 19 -7.5t8 -18.5q0 -14 -14 -24q-93 -64 -230 -64 q-165 0 -279 112.5t-114 272.5z" />
<glyph unicode="&#x2660;" horiz-adv-x="864" d="M48 321q0 68 41.5 117.5t116.5 99.5q57 37 104 87t73 101q17 34 49 34t49 -34q26 -51 73 -101t104 -87q75 -50 116.5 -99.5t41.5 -117.5q0 -71 -49.5 -119.5t-120.5 -48.5q-67 0 -116 44t-76 111l-3 -1q7 -93 23.5 -150t55.5 -110q12 -17 5 -32t-25 -15h-156 q-18 0 -25 15t5 32q39 53 55.5 110t23.5 150l-3 1q-27 -67 -76 -111t-116 -44q-71 0 -120.5 48.5t-49.5 119.5z" />
<glyph unicode="&#x2663;" horiz-adv-x="864" d="M454 308l-3 -1q7 -93 23.5 -150t55.5 -110q12 -17 5 -32t-25 -15h-156q-18 0 -25 15t5 32q39 53 55.5 110t23.5 150l-3 1q-27 -67 -76 -111t-116 -44q-71 0 -120.5 48.5t-49.5 119.5q0 76 47 124.5t121 48.5q41 0 81 -22l2 2q-37 56 -37 113q0 72 48.5 122.5t121.5 50.5 t121.5 -50.5t48.5 -122.5q0 -57 -37 -113l2 -2q40 22 81 22q74 0 121 -48.5t47 -124.5q0 -71 -49.5 -119.5t-120.5 -48.5q-67 0 -116 44t-76 111z" />
<glyph unicode="&#x2665;" horiz-adv-x="864" d="M432 -10q-33 0 -49 32q-64 124 -176 251q-43 49 -72.5 87.5t-57.5 96.5t-28 105q0 87 50 143t134 56q82 0 127.5 -40.5t69.5 -110.5h4q24 70 69.5 110.5t127.5 40.5q84 0 134 -56t50 -143q0 -47 -28 -105t-57.5 -96.5t-72.5 -87.5q-112 -127 -176 -251q-16 -32 -49 -32z " />
<glyph unicode="&#x2666;" horiz-adv-x="864" d="M432 -10q-32 0 -49 33q-90 173 -279 307q-25 18 -25 45t25 45q189 134 279 307q17 33 49 33t49 -33q90 -173 279 -307q25 -18 25 -45t-25 -45q-189 -134 -279 -307q-17 -33 -49 -33z" />
<glyph unicode="&#x266d;" horiz-adv-x="455" d="M100 776v-342q22 42 66.5 69t87.5 27q161 0 161 -175q0 -127 -96 -229.5t-232 -147.5l-10 -3q-11 -3 -19 1.5t-8 15.5v784q0 24 23 24h4q23 0 23 -24zM100 332v-290q39 15 78.5 39t82 61.5t69 91t26.5 113.5q0 55 -25 90.5t-79 35.5q-61 0 -105.5 -44.5t-46.5 -96.5z" />
<glyph unicode="&#x266f;" horiz-adv-x="465" d="M40 404l79 63v259q0 24 23 24h4q23 0 23 -24v-219l127 102v217q0 24 23 24h4q23 0 23 -24v-177l66 53q11 8 20 3t9 -17v-30q0 -20 -16 -33l-79 -63v-192l66 53q11 8 20 3t9 -17v-30q0 -20 -16 -33l-79 -64v-258q0 -24 -23 -24h-4q-23 0 -23 24v218l-127 -101v-217 q0 -24 -23 -24h-4q-23 0 -23 24v177l-66 -53q-11 -8 -20 -3t-9 17v30q0 20 16 33l79 63v192l-66 -53q-11 -8 -20 -3t-9 17v30q0 20 16 33zM296 522l-127 -102v-192l127 102v192z" />
<glyph unicode="&#x267b;" horiz-adv-x="864" d="M585 244v-37h120q25 0 47.5 12.5t33.5 24.5l10 13l1 -2l-92 -160q-9 -16 -17.5 -26t-26 -19t-41.5 -9h-35v-37q0 -8 -6 -14t-14 -6t-16 8l-97 117q-7 7 -7 16q0 7 7 16l95 113q8 10 18 10q8 0 14 -6t6 -14zM709 232l-84 147q-26 46 18 72l53 30q46 27 73 -21l38 -65 q10 -16 10 -42q1 -46 -36.5 -83.5t-71.5 -37.5zM242 309l-32 18l-60 -104q-13 -22 -14 -48t4 -41l6 -15h-2l-92 161q-15 26 -17 44.5t14 54.5l17 31l-32 19q-17 10 -7 27q4 8 15 10l148 25q12 2 19 -2t10 -14l51 -139q4 -10 -1 -20q-4 -7 -12 -9.5t-15 2.5zM173 207h170 q53 0 53 -51v-62q0 -53 -55 -53h-75q-19 0 -42 13q-41 23 -55 75.5t4 77.5zM471 572l32 18l-60 104q-13 22 -35 36t-38 16l-15 3v1h186q31 0 51 -8t37 -37l18 -31l31 18q17 10 28 -7q5 -9 1 -18l-53 -143q-4 -10 -10 -14q-7 -4 -18 -2l-145 26q-13 2 -18 11q-9 17 8 27z M415 686l-85 -147q-27 -45 -72 -20l-54 31q-47 26 -18 73l38 67q10 17 34 30q46 22 93 9t64 -43z" />
<glyph unicode="&#x267c;" horiz-adv-x="864" d="M359 514l60 104q-12 23 -50.5 33t-72.5 -7q-18 -11 -25 -23l-24 -42q-26 -47 19 -73l21 -12q46 -26 72 20zM47 375q0 160 112.5 272.5t272.5 112.5t272.5 -112.5t112.5 -272.5t-112.5 -272.5t-272.5 -112.5t-272.5 112.5t-112.5 272.5zM588 369l60 -104q26 -1 55 28.5 t29 65.5q0 21 -8 33l-24 42q-27 47 -73 20l-21 -12q-45 -28 -18 -73zM440 181q0 -9 7 -16l74 -87q8 -8 16 -8t14 6t6 14v26h22q18 0 31.5 6.5t19.5 14t14 21.5l73 125l-1 1q-3 -4 -8.5 -10.5t-24.5 -17.5t-39 -11h-87v27q0 8 -6 14t-14 6q-10 0 -18 -10l-72 -85 q-7 -9 -7 -16zM347 245h-119q-15 -19 -4 -59t43 -60q16 -10 33 -10h47q54 0 54 53v24q-2 52 -54 52zM260 467q-8 4 -18 2l-112 -21q-10 -2 -15 -10q-9 -16 7 -27l23 -13l-11 -19q-13 -29 -11.5 -42t14.5 -35l72 -126h1q-19 43 3 82l44 76l23 -14q18 -9 27 7q5 8 1 21 l-38 105q-3 10 -10 14zM596 480q8 6 10 14l38 108q4 10 -1 18q-9 16 -27 7l-23 -13l-11 19q-13 23 -28 29t-41 6h-144l-1 -1q47 -4 69 -42l44 -76l-23 -13q-16 -11 -7 -27q5 -9 18 -11l109 -20q11 -2 18 2z" />
<glyph unicode="&#x267d;" horiz-adv-x="864" d="M797 375q0 151 -107 258t-258 107t-258 -107t-107 -258t107 -258t258 -107t258 107t107 258zM47 375q0 160 112.5 272.5t272.5 112.5t272.5 -112.5t112.5 -272.5t-112.5 -272.5t-272.5 -112.5t-272.5 112.5t-112.5 272.5zM419 618l-60 -104q-26 -46 -72 -20l-21 12 q-45 26 -19 73l24 42q7 12 25 23q34 17 72.5 7t50.5 -33zM648 265l-60 104q-27 45 18 73l21 12q46 27 73 -20l24 -42q8 -12 8 -33q0 -36 -29 -65.5t-55 -28.5zM440 181q0 7 7 16l72 85q8 10 18 10q8 0 14 -6t6 -14v-27h87q20 0 38 9.5t26 19.5l8 10l1 -1l-73 -125 q-8 -14 -14 -21.5t-19.5 -14t-31.5 -6.5h-22v-26q0 -8 -6 -14t-14 -6t-16 8l-74 87q-7 7 -7 16zM228 245h119q52 0 54 -52v-24q0 -53 -54 -53h-47q-17 0 -33 10q-32 20 -43 60t4 59zM260 467q7 -4 10 -14l38 -105q4 -13 -1 -21q-9 -16 -27 -7l-23 14l-44 -76 q-10 -17 -10.5 -37.5t3.5 -32.5l4 -12h-1l-72 126q-13 22 -14.5 35t11.5 42l11 19l-23 13q-16 11 -7 27q5 8 15 10l112 21q10 2 18 -2zM596 480q-7 -4 -18 -2l-109 20q-13 2 -18 11q-9 16 7 27l23 13l-44 76q-10 17 -27 27.5t-30 12.5l-12 2l1 1h144q17 0 26.5 -1.5 t21.5 -9.5t21 -24l11 -19l23 13q18 9 27 -7q5 -8 1 -18l-38 -108q-2 -8 -10 -14z" />
<glyph unicode="&#x26aa;" horiz-adv-x="630" d="M55 250q0 108 76 184t184 76t184 -76t76 -184t-76 -184t-184 -76t-184 76t-76 184zM508 250q0 82 -56.5 140t-136.5 58t-136.5 -58t-56.5 -140t56.5 -140t136.5 -58t136.5 58t56.5 140z" />
<glyph unicode="&#x26ab;" horiz-adv-x="630" d="M55 250q0 108 76 184t184 76t184 -76t76 -184t-76 -184t-184 -76t-184 76t-76 184z" />
<glyph unicode="&#x3008;" horiz-adv-x="280" d="M42 305q0 4 3 19l124 469q6 23 31 23h21q13 0 19 -7.5t3 -20.5l-125 -483l125 -483q3 -13 -3 -20.5t-19 -7.5h-21q-25 0 -31 23l-124 469q-3 15 -3 19z" />
<glyph unicode="&#x3009;" horiz-adv-x="280" d="M238 305q0 -4 -3 -19l-124 -469q-6 -23 -31 -23h-21q-13 0 -19 7.5t-3 20.5l125 483l-125 483q-3 13 3 20.5t19 7.5h21q25 0 31 -23l124 -469q3 -15 3 -19z" />
<glyph unicode="&#xe150;" horiz-adv-x="535" d="M423 21l-7 20q-80 -51 -156 -51q-205 0 -205 260t205 260q76 0 156 -51l6 16q5 14 10 19.5t15 5.5h2q21 0 21 -23v-454q0 -15 -11 -21q-31 -19 -63 -60.5t-32 -83.5q0 -57 54 -57q17 0 32 3q25 6 25 -16v-6q0 -22 -22 -27t-49 -5q-48 0 -74.5 26.5t-26.5 68.5q0 52 31 98 t89 78zM125 250q0 -34 2.5 -59t10.5 -53t22.5 -45.5t39.5 -29t60 -11.5q81 0 140 32v332q-59 32 -140 32q-35 0 -60 -11.5t-39.5 -29t-22.5 -45.5t-10.5 -53t-2.5 -59z" />
<glyph unicode="&#xe151;" horiz-adv-x="536" d="M55 250q0 260 205 260q76 0 156 -51l6 16q5 14 10 19.5t15 5.5h2q21 0 21 -23v-454q0 -23 -21 -23h-2q-10 0 -15 5.5t-10 19.5l-6 16q-80 -51 -156 -51q-205 0 -205 260zM125 250q0 -34 2.5 -59t10.5 -53t22.5 -45.5t39.5 -29t60 -11.5q81 0 140 32v332q-59 32 -140 32 q-35 0 -60 -11.5t-39.5 -29t-22.5 -45.5t-10.5 -53t-2.5 -59z" />
<glyph unicode="&#xe152;" horiz-adv-x="535" d="M247 723l37 -149q2 -10 -3 -17t-17 -7h-3q-21 0 -30 23l-56 141q-5 14 1 25t21 11h15q29 0 35 -27zM55 250q0 260 205 260q76 0 156 -51l6 16q5 14 10 19.5t15 5.5h2q21 0 21 -23v-454q0 -23 -21 -23h-2q-10 0 -15 5.5t-10 19.5l-6 16q-80 -51 -156 -51q-205 0 -205 260z M125 250q0 -34 2.5 -59t10.5 -53t22.5 -45.5t39.5 -29t60 -11.5q81 0 140 32v332q-59 32 -140 32q-35 0 -60 -11.5t-39.5 -29t-22.5 -45.5t-10.5 -53t-2.5 -59z" />
<glyph unicode="&#xe153;" horiz-adv-x="535" d="M246 574l37 149q6 27 35 27h15q15 0 21 -11t1 -25l-56 -141q-9 -23 -30 -23h-3q-12 0 -17 7t-3 17zM55 250q0 260 205 260q76 0 156 -51l6 16q5 14 10 19.5t15 5.5h2q21 0 21 -23v-454q0 -23 -21 -23h-2q-10 0 -15 5.5t-10 19.5l-6 16q-80 -51 -156 -51q-205 0 -205 260z M125 250q0 -34 2.5 -59t10.5 -53t22.5 -45.5t39.5 -29t60 -11.5q81 0 140 32v332q-59 32 -140 32q-35 0 -60 -11.5t-39.5 -29t-22.5 -45.5t-10.5 -53t-2.5 -59z" />
<glyph unicode="&#xe154;" horiz-adv-x="535" d="M318 731l114 -155q7 -9 3 -17.5t-14 -8.5h-6q-20 0 -36 17l-114 124l-114 -124q-16 -17 -36 -17h-6q-10 0 -14 8.5t3 17.5l114 155q13 19 35 19h36q22 0 35 -19zM55 250q0 260 205 260q76 0 156 -51l6 16q5 14 10 19.5t15 5.5h2q21 0 21 -23v-454q0 -23 -21 -23h-2 q-10 0 -15 5.5t-10 19.5l-6 16q-80 -51 -156 -51q-205 0 -205 260zM125 250q0 -34 2.5 -59t10.5 -53t22.5 -45.5t39.5 -29t60 -11.5q81 0 140 32v332q-59 32 -140 32q-35 0 -60 -11.5t-39.5 -29t-22.5 -45.5t-10.5 -53t-2.5 -59z" />
<glyph unicode="&#xe155;" horiz-adv-x="535" d="M120 650q0 21 14.5 35.5t35.5 14.5t35.5 -14.5t14.5 -35.5t-14.5 -35.5t-35.5 -14.5t-35.5 14.5t-14.5 35.5zM310 650q0 21 14.5 35.5t35.5 14.5t35.5 -14.5t14.5 -35.5t-14.5 -35.5t-35.5 -14.5t-35.5 14.5t-14.5 35.5zM55 250q0 260 205 260q76 0 156 -51l6 16 q5 14 10 19.5t15 5.5h2q21 0 21 -23v-454q0 -23 -21 -23h-2q-10 0 -15 5.5t-10 19.5l-6 16q-80 -51 -156 -51q-205 0 -205 260zM125 250q0 -34 2.5 -59t10.5 -53t22.5 -45.5t39.5 -29t60 -11.5q81 0 140 32v332q-59 32 -140 32q-35 0 -60 -11.5t-39.5 -29t-22.5 -45.5 t-10.5 -53t-2.5 -59z" />
<glyph unicode="&#xe156;" horiz-adv-x="535" d="M189 715q28 0 51 -11t36.5 -24.5t30.5 -24.5t34 -11q36 0 45 27q8 24 30 24h2q13 0 20.5 -9t5.5 -23q-4 -34 -31.5 -56t-71.5 -22q-28 0 -51 11t-36.5 24.5t-30.5 24.5t-34 11q-36 0 -45 -27q-8 -24 -30 -24h-2q-13 0 -20.5 9t-5.5 23q4 34 31.5 56t71.5 22zM55 250 q0 260 205 260q76 0 156 -51l6 16q5 14 10 19.5t15 5.5h2q21 0 21 -23v-454q0 -23 -21 -23h-2q-10 0 -15 5.5t-10 19.5l-6 16q-80 -51 -156 -51q-205 0 -205 260zM125 250q0 -34 2.5 -59t10.5 -53t22.5 -45.5t39.5 -29t60 -11.5q81 0 140 32v332q-59 32 -140 32 q-35 0 -60 -11.5t-39.5 -29t-22.5 -45.5t-10.5 -53t-2.5 -59z" />
<glyph unicode="&#xe157;" horiz-adv-x="535" d="M265 702q-54 0 -54 -52t54 -52t54 52t-54 52zM265 549q-47 0 -75.5 25.5t-28.5 75.5t28.5 75.5t75.5 25.5t75.5 -25.5t28.5 -75.5t-28.5 -75.5t-75.5 -25.5zM55 250q0 260 205 260q76 0 156 -51l6 16q5 14 10 19.5t15 5.5h2q21 0 21 -23v-454q0 -23 -21 -23h-2 q-10 0 -15 5.5t-10 19.5l-6 16q-80 -51 -156 -51q-205 0 -205 260zM125 250q0 -34 2.5 -59t10.5 -53t22.5 -45.5t39.5 -29t60 -11.5q81 0 140 32v332q-59 32 -140 32q-35 0 -60 -11.5t-39.5 -29t-22.5 -45.5t-10.5 -53t-2.5 -59z" />
<glyph unicode="&#xe159;" horiz-adv-x="535" d="M157 680h216q29 0 29 -28v-4q0 -28 -29 -28h-216q-29 0 -29 28v4q0 28 29 28zM55 250q0 260 205 260q76 0 156 -51l6 16q5 14 10 19.5t15 5.5h2q21 0 21 -23v-454q0 -23 -21 -23h-2q-10 0 -15 5.5t-10 19.5l-6 16q-80 -51 -156 -51q-205 0 -205 260zM125 250 q0 -34 2.5 -59t10.5 -53t22.5 -45.5t39.5 -29t60 -11.5q81 0 140 32v332q-59 32 -140 32q-35 0 -60 -11.5t-39.5 -29t-22.5 -45.5t-10.5 -53t-2.5 -59z" />
<glyph unicode="&#xe15a;" horiz-adv-x="535" d="M265 550q-90 0 -132 51.5t-42 122.5q0 26 24 26h3q22 0 24 -24q4 -58 31.5 -87t91.5 -29t91.5 29t31.5 87q2 24 24 24h3q24 0 24 -26q0 -71 -42 -122.5t-132 -51.5zM55 250q0 260 205 260q76 0 156 -51l6 16q5 14 10 19.5t15 5.5h2q21 0 21 -23v-454q0 -23 -21 -23h-2 q-10 0 -15 5.5t-10 19.5l-6 16q-80 -51 -156 -51q-205 0 -205 260zM125 250q0 -34 2.5 -59t10.5 -53t22.5 -45.5t39.5 -29t60 -11.5q81 0 140 32v332q-59 32 -140 32q-35 0 -60 -11.5t-39.5 -29t-22.5 -45.5t-10.5 -53t-2.5 -59z" />
<glyph unicode="&#xe161;" horiz-adv-x="535" d="M260 52q81 0 140 32v332q-59 32 -140 32q-35 0 -60 -11.5t-39.5 -29t-22.5 -45.5t-10.5 -53t-2.5 -59t2.5 -59t10.5 -53t22.5 -45.5t39.5 -29t60 -11.5zM470 477v-517q0 -52 -7 -87.5t-27.5 -68.5t-63 -49t-107.5 -16q-105 0 -179 32q-24 11 -24 31v15q0 13 9.5 19 t23.5 0q86 -38 170 -38q38 0 65 11t40 24.5t20.5 40t8.5 41.5t1 45v71q-63 -41 -140 -41q-205 0 -205 260t205 260q76 0 156 -51l6 16q5 14 10 19.5t15 5.5h2q21 0 21 -23z" />
<glyph unicode="&#xe163;" horiz-adv-x="535" d="M313 731l114 -155q7 -9 3 -17.5t-14 -8.5h-6q-20 0 -36 17l-114 124l-114 -124q-16 -17 -36 -17h-6q-10 0 -14 8.5t3 17.5l114 155q13 19 35 19h36q22 0 35 -19zM260 52q81 0 140 32v332q-59 32 -140 32q-35 0 -60 -11.5t-39.5 -29t-22.5 -45.5t-10.5 -53t-2.5 -59 t2.5 -59t10.5 -53t22.5 -45.5t39.5 -29t60 -11.5zM470 477v-517q0 -52 -7 -87.5t-27.5 -68.5t-63 -49t-107.5 -16q-105 0 -179 32q-24 11 -24 31v15q0 13 9.5 19t23.5 0q86 -38 170 -38q38 0 65 11t40 24.5t20.5 40t8.5 41.5t1 45v71q-63 -41 -140 -41q-205 0 -205 260 t205 260q76 0 156 -51l6 16q5 14 10 19.5t15 5.5h2q21 0 21 -23z" />
<glyph unicode="&#xe166;" horiz-adv-x="535" d="M260 550q-90 0 -132 51.5t-42 122.5q0 26 24 26h3q22 0 24 -24q4 -58 31.5 -87t91.5 -29t91.5 29t31.5 87q2 24 24 24h3q24 0 24 -26q0 -71 -42 -122.5t-132 -51.5zM260 52q81 0 140 32v332q-59 32 -140 32q-35 0 -60 -11.5t-39.5 -29t-22.5 -45.5t-10.5 -53t-2.5 -59 t2.5 -59t10.5 -53t22.5 -45.5t39.5 -29t60 -11.5zM470 477v-517q0 -52 -7 -87.5t-27.5 -68.5t-63 -49t-107.5 -16q-105 0 -179 32q-24 11 -24 31v15q0 13 9.5 19t23.5 0q86 -38 170 -38q38 0 65 11t40 24.5t20.5 40t8.5 41.5t1 45v71q-63 -41 -140 -41q-205 0 -205 260 t205 260q76 0 156 -51l6 16q5 14 10 19.5t15 5.5h2q21 0 21 -23z" />
<glyph unicode="&#xe167;" horiz-adv-x="535" d="M210 650q0 21 14.5 35.5t35.5 14.5t35.5 -14.5t14.5 -35.5t-14.5 -35.5t-35.5 -14.5t-35.5 14.5t-14.5 35.5zM260 52q81 0 140 32v332q-59 32 -140 32q-35 0 -60 -11.5t-39.5 -29t-22.5 -45.5t-10.5 -53t-2.5 -59t2.5 -59t10.5 -53t22.5 -45.5t39.5 -29t60 -11.5z M470 477v-517q0 -52 -7 -87.5t-27.5 -68.5t-63 -49t-107.5 -16q-105 0 -179 32q-24 11 -24 31v15q0 13 9.5 19t23.5 0q86 -38 170 -38q38 0 65 11t40 24.5t20.5 40t8.5 41.5t1 45v71q-63 -41 -140 -41q-205 0 -205 260t205 260q76 0 156 -51l6 16q5 14 10 19.5t15 5.5h2 q21 0 21 -23z" />
<glyph unicode="&#xe168;" horiz-adv-x="535" d="M260 52q81 0 140 32v332q-59 32 -140 32q-35 0 -60 -11.5t-39.5 -29t-22.5 -45.5t-10.5 -53t-2.5 -59t2.5 -59t10.5 -53t22.5 -45.5t39.5 -29t60 -11.5zM470 477v-517q0 -52 -7 -87.5t-27.5 -68.5t-63 -49t-107.5 -16q-105 0 -179 32q-24 11 -24 31v15q0 13 9.5 19 t23.5 0q86 -38 170 -38q38 0 65 11t40 24.5t20.5 40t8.5 41.5t1 45v71q-63 -41 -140 -41q-205 0 -205 260t205 260q76 0 156 -51l6 16q5 14 10 19.5t15 5.5h2q21 0 21 -23zM322 726l-19 -149q-3 -27 -35 -27h-16q-15 0 -21.5 10t-2.5 23l41 144q6 23 28 23h5q23 0 20 -24z " />
<glyph unicode="&#xe16b;" horiz-adv-x="500" d="M230 -200q38 0 65 11t40 24t20.5 39t8.5 41t1 45v70q-64 -40 -135 -40q-170 0 -170 150v328q0 32 30 32h10q30 0 30 -32v-331q0 -47 25.5 -66t74.5 -19q77 0 135 32v384q0 32 30 32h10q30 0 30 -32v-508q0 -52 -7 -87.5t-27.5 -68.5t-63 -49t-107.5 -16q-73 0 -136 22 q-22 7 -22 28v11q0 11 8 18t22 3q84 -21 128 -21z" />
<glyph unicode="&#xe16d;" horiz-adv-x="500" d="M228 574l37 149q6 27 35 27h15q15 0 21 -11t1 -25l-56 -141q-9 -23 -30 -23h-3q-12 0 -17 7t-3 17zM230 -200q38 0 65 11t40 24t20.5 39t8.5 41t1 45v70q-64 -40 -135 -40q-170 0 -170 150v328q0 32 30 32h10q30 0 30 -32v-331q0 -47 25.5 -66t74.5 -19q77 0 135 32v384 q0 32 30 32h10q30 0 30 -32v-508q0 -52 -7 -87.5t-27.5 -68.5t-63 -49t-107.5 -16q-73 0 -136 22q-22 7 -22 28v11q0 11 8 18t22 3q84 -21 128 -21z" />
<glyph unicode="&#xe16e;" horiz-adv-x="500" d="M300 731l114 -155q7 -9 3 -17.5t-14 -8.5h-6q-20 0 -36 17l-114 124l-114 -124q-16 -17 -36 -17h-6q-10 0 -14 8.5t3 17.5l114 155q13 19 35 19h36q22 0 35 -19zM230 -200q38 0 65 11t40 24t20.5 39t8.5 41t1 45v70q-64 -40 -135 -40q-170 0 -170 150v328q0 32 30 32h10 q30 0 30 -32v-331q0 -47 25.5 -66t74.5 -19q77 0 135 32v384q0 32 30 32h10q30 0 30 -32v-508q0 -52 -7 -87.5t-27.5 -68.5t-63 -49t-107.5 -16q-73 0 -136 22q-22 7 -22 28v11q0 11 8 18t22 3q84 -21 128 -21z" />
<glyph unicode="&#xe16f;" horiz-adv-x="500" d="M102 650q0 21 14.5 35.5t35.5 14.5t35.5 -14.5t14.5 -35.5t-14.5 -35.5t-35.5 -14.5t-35.5 14.5t-14.5 35.5zM292 650q0 21 14.5 35.5t35.5 14.5t35.5 -14.5t14.5 -35.5t-14.5 -35.5t-35.5 -14.5t-35.5 14.5t-14.5 35.5zM230 -200q38 0 65 11t40 24t20.5 39t8.5 41t1 45 v70q-64 -40 -135 -40q-170 0 -170 150v328q0 32 30 32h10q30 0 30 -32v-331q0 -47 25.5 -66t74.5 -19q77 0 135 32v384q0 32 30 32h10q30 0 30 -32v-508q0 -52 -7 -87.5t-27.5 -68.5t-63 -49t-107.5 -16q-73 0 -136 22q-22 7 -22 28v11q0 11 8 18t22 3q84 -21 128 -21z" />
<glyph unicode="&#xe181;" horiz-adv-x="336" d="M35 563q0 197 176 197q48 0 83 -7q20 -4 20 -25v-15q0 -24 -33 -17q-30 6 -70 6q-58 0 -86 -33t-28 -106t28 -106.5t86 -33.5q40 0 70 6q33 7 33 -17v-15q0 -21 -20 -25q-35 -7 -83 -7q-176 0 -176 198z" />
<glyph unicode="&#xe182;" horiz-adv-x="411" d="M317 399q-47 -34 -108 -34q-174 0 -174 198t174 198q61 0 108 -34q6 14 10.5 19t14.5 5h3q21 0 21 -23v-330q0 -23 -21 -23h-3q-10 0 -14.5 5t-10.5 19zM302 679q-41 26 -89 26q-115 0 -115 -142t115 -142q48 0 89 26v232z" />
<glyph unicode="&#xe220;" horiz-adv-x="530" d="M425 26l-160 401l-160 -401q-10 -26 -36 -26h-12q-15 0 -21.5 11t-0.5 25l192 447q12 27 32 27h12q20 0 32 -27l192 -447q6 -14 -0.5 -25t-21.5 -11h-12q-26 0 -36 26z" />
<glyph unicode="&#xe279;" d="M209 715q28 0 51 -11t36.5 -24.5t30.5 -24.5t34 -11q36 0 45 27q8 24 30 24h2q13 0 20.5 -9t5.5 -23q-4 -34 -31.5 -56t-71.5 -22q-28 0 -51 11t-36.5 24.5t-30.5 24.5t-34 11q-36 0 -45 -27q-8 -24 -30 -24h-2q-13 0 -20.5 9t-5.5 23q4 34 31.5 56t71.5 22zM495 468 v-436q0 -32 -27 -32h-3q-14 0 -28 17l-297 361l1 -346q0 -32 -30 -32h-6q-30 0 -30 32v436q0 32 27 32h3q14 0 28 -17l297 -361l-1 346q0 32 30 32h6q30 0 30 -32z" />
<glyph unicode="&#xe351;" horiz-adv-x="370" d="M182 760h6q21 0 33 -27l141 -319q6 -14 -0.5 -25t-21.5 -11h-10q-26 0 -36 26l-31 77h-157l-30 -77q-10 -26 -36 -26h-10q-15 0 -21.5 11t-0.5 25l141 319q12 27 33 27zM185 677l-58 -144h115z" />
<glyph unicode="&#xe352;" horiz-adv-x="439" d="M45 565q0 98 41 146.5t130 48.5q178 0 178 -195t-178 -195q-89 0 -130 48.5t-41 146.5zM109 565q0 -74 25 -104.5t82 -30.5q59 0 87 31.5t28 103.5t-28 103.5t-87 31.5q-57 0 -82 -30.5t-25 -104.5z" />
<glyph unicode="&#xe353;" horiz-adv-x="366" d="M45 565q0 98 41 146.5t130 48.5q55 0 84 -7q21 -5 21 -25v-16q0 -10 -9 -15.5t-25 -1.5q-25 5 -71 5q-57 0 -82 -30.5t-25 -104.5t25 -104.5t82 -30.5q46 0 71 5q16 4 25 -1.5t9 -15.5v-16q0 -20 -21 -25q-29 -7 -84 -7q-89 0 -130 48.5t-41 146.5z" />
<glyph unicode="&#xe360;" horiz-adv-x="293" d="M211 570l3 5q5 15 18 15h5q16 0 16 -17v-338q0 -20 -19 -20h-18q-19 0 -19 20v118q-31 -19 -67 -19q-100 0 -100 131t100 131q45 0 81 -26zM143 381q29 0 54 15v138q-28 14 -54 14q-34 0 -45 -21.5t-11 -61.5q0 -41 11 -62.5t45 -21.5z" />
<glyph unicode="&#xe361;" horiz-adv-x="269" d="M229 507v-151q0 -16 -16 -16h-6q-11 0 -18 14l-2 6q-31 -26 -76 -26t-65.5 23t-20.5 57q0 75 92 81l56 5v12q0 20 -11 28t-38 8q-30 0 -60 -10q-8 -3 -13 1t-5 10v19q0 14 14 18q32 10 68 10q58 0 79.5 -22.5t21.5 -66.5zM173 461l-53 -6q-39 -5 -39 -38q0 -37 38 -37 q28 0 54 16v65z" />
<glyph unicode="&#xe362;" horiz-adv-x="293" d="M82 360l-2 -6q-7 -14 -18 -14h-6q-16 0 -16 16v339q0 20 19 20h18q19 0 19 -20v-119q30 20 67 20q100 0 100 -131t-100 -131q-45 0 -81 26zM150 548q-26 0 -54 -14v-138q25 -15 54 -15q34 0 45.5 21.5t11.5 62.5q0 40 -11.5 61.5t-45.5 21.5z" />
<glyph unicode="&#xe363;" horiz-adv-x="235" d="M30 465q0 63 26.5 97t89.5 34q27 0 55 -8q14 -4 14 -18v-19q0 -7 -5 -10.5t-13 -0.5q-20 6 -48 6q-62 0 -62 -81q0 -82 62 -82q25 0 48 7q8 2 13 -1.5t5 -9.5v-19q0 -15 -14 -19q-24 -7 -55 -7q-63 0 -89.5 34t-26.5 97z" />
<glyph unicode="&#xe364;" horiz-adv-x="293" d="M214 354l-3 6q-36 -26 -81 -26q-100 0 -100 131t100 131q37 0 67 -20v119q0 20 19 20h18q19 0 19 -20v-339q0 -16 -16 -16h-5q-12 0 -18 14zM143 548q-34 0 -45 -21.5t-11 -61.5q0 -41 11 -62.5t45 -21.5q29 0 54 15v138q-28 14 -54 14z" />
<glyph unicode="&#xe365;" horiz-adv-x="273" d="M141 547q-51 0 -54 -64h100q0 21 -2 32.5t-12.5 21.5t-31.5 10zM224 444h-137q1 -30 15 -46t50 -16q31 0 64 11q18 5 18 -12v-18q0 -14 -14 -19q-35 -10 -76 -10q-114 0 -114 131t111 131q60 0 81 -33t21 -94v-5q0 -20 -19 -20z" />
<glyph unicode="&#xe366;" horiz-adv-x="194" d="M152 672q-45 0 -45 -38v-44h51q19 0 19 -20v-8q0 -20 -19 -20h-51v-182q0 -20 -19 -20h-18q-19 0 -19 20v182h-29q-17 0 -17 16v5q0 14 15 18l31 9v49q0 82 97 82q15 0 27 -3q14 -3 14 -18v-19q0 -16 -18 -11q-12 2 -19 2z" />
<glyph unicode="&#xe367;" horiz-adv-x="272" d="M170 590h70q17 0 17 -16v-6q0 -14 -15 -18l-21 -6q8 -21 8 -43q0 -95 -105 -95q-20 0 -29 2q-7 -7 -7 -15q0 -13 15 -14l91 -11q67 -8 67 -70q0 -46 -40 -67.5t-101 -21.5q-115 0 -115 73q0 47 52 62q-20 11 -20 35q0 23 23 40q-40 22 -40 82q0 95 104 95q26 0 46 -6z M178 323l-71 9q-49 -8 -49 -40q0 -39 66 -39q36 0 59.5 11t23.5 32q0 24 -29 27zM73 501q0 -51 51 -51q52 0 52 51q0 50 -52 50q-29 0 -40 -13t-11 -37z" />
<glyph unicode="&#xe368;" horiz-adv-x="285" d="M193 360v151q0 37 -39 37q-30 0 -58 -14v-174q0 -20 -19 -20h-18q-19 0 -19 20v335q0 20 19 20h18q19 0 19 -20v-118q32 19 67 19q86 0 86 -80v-156q0 -20 -19 -20h-18q-19 0 -19 20z" />
<glyph unicode="&#xe369;" horiz-adv-x="140" d="M38 391v179q0 20 19 20h18q19 0 19 -20v-171q0 -12 12 -15t12 -15v-15q0 -18 -23 -18q-25 0 -41 14t-16 41zM30 664q0 15 10.5 25.5t25.5 10.5t26 -10.5t11 -25.5t-11 -26t-26 -11t-25.5 11t-10.5 26z" />
<glyph unicode="&#xe36a;" horiz-adv-x="138" d="M35 664q0 15 10.5 25.5t25.5 10.5t26 -10.5t11 -25.5t-11 -26t-26 -11t-25.5 11t-10.5 26zM99 570v-275q0 -42 -26 -63.5t-65 -21.5q-23 0 -23 18v18q0 18 19 18q39 0 39 40v266q0 20 19 20h18q19 0 19 -20z" />
<glyph unicode="&#xe36b;" horiz-adv-x="273" d="M96 425v-65q0 -20 -19 -20h-18q-19 0 -19 20v335q0 20 19 20h18q19 0 19 -20v-205l89 85q14 15 30 15h22q11 0 14.5 -9.5t-4.5 -16.5l-85 -78l99 -120q7 -8 3 -17t-15 -9h-22q-16 0 -28 15l-75 95z" />
<glyph unicode="&#xe36c;" horiz-adv-x="140" d="M39 391v304q0 20 19 20h18q19 0 19 -20v-296q0 -12 12 -15t12 -15v-15q0 -18 -23 -18q-25 0 -41 14t-16 41z" />
<glyph unicode="&#xe36d;" horiz-adv-x="419" d="M240 505v-145q0 -20 -19 -20h-18q-19 0 -19 20v156q0 32 -35 32q-27 0 -53 -14v-174q0 -20 -19 -20h-18q-19 0 -19 20v213q0 17 16 17h6q11 0 18 -15l2 -5q34 26 76 26q46 0 64 -25q34 25 80 25q82 0 82 -80v-156q0 -20 -19 -20h-18q-19 0 -19 20v156q0 32 -35 32 q-30 0 -54 -15q1 -9 1 -28z" />
<glyph unicode="&#xe36e;" horiz-adv-x="282" d="M141 381q34 0 44.5 19.5t10.5 64.5q0 44 -10.5 64t-44.5 20q-33 0 -43.5 -20t-10.5 -64q0 -45 10.5 -64.5t43.5 -19.5zM141 334q-63 0 -87 33.5t-24 97.5t24 97.5t87 33.5t87 -33.5t24 -97.5t-24 -97.5t-87 -33.5z" />
<glyph unicode="&#xe36f;" horiz-adv-x="293" d="M80 575l2 -5q36 26 81 26q100 0 100 -131t-100 -131q-36 0 -67 19v-118q0 -20 -19 -20h-18q-19 0 -19 20v338q0 17 16 17h6q11 0 18 -15zM150 381q34 0 45.5 22t11.5 62t-11.5 61.5t-45.5 21.5q-26 0 -54 -14v-138q25 -15 54 -15z" />
<glyph unicode="&#xe371;" horiz-adv-x="197" d="M160 548q-40 0 -64 -15v-173q0 -20 -19 -20h-18q-19 0 -19 20v213q0 17 16 17h6q11 0 18 -15l2 -5q33 26 79 26q1 0 6 -0.5t6 -0.5q15 -3 15 -16v-21q0 -14 -15 -11q-3 0 -7 0.5t-6 0.5z" />
<glyph unicode="&#xe372;" horiz-adv-x="245" d="M129 549q-48 0 -48 -31q0 -14 9 -20t33 -8q54 -5 74 -22t20 -54q0 -80 -106 -80q-43 0 -70 9q-15 4 -15 20v12q0 8 5.5 13t15.5 2q33 -9 56 -9q59 0 59 31q0 15 -8.5 22t-32.5 9q-55 5 -74.5 22t-19.5 51q0 35 24.5 57.5t76.5 22.5q36 0 64 -8q16 -4 16 -21v-11 q0 -9 -6.5 -13.5t-16.5 -1.5q-36 8 -56 8z" />
<glyph unicode="&#xe373;" horiz-adv-x="177" d="M101 648v-58h51q19 0 19 -20v-8q0 -20 -19 -20h-51v-124q0 -37 41 -37q3 0 8 1q15 2 15 -12v-19q0 -12 -15 -16q-5 -1 -17 -1q-88 0 -88 78v130h-29q-17 0 -17 16v5q0 14 15 18l31 9v45q0 14 14 18l24 7q18 5 18 -12z" />
<glyph unicode="&#xe374;" horiz-adv-x="285" d="M244 570v-214q0 -16 -16 -16h-5q-12 0 -18 14l-3 6q-36 -26 -81 -26q-86 0 -86 79v157q0 20 19 20h18q19 0 19 -20v-152q0 -37 40 -37q33 0 57 15v174q0 20 19 20h18q19 0 19 -20z" />
<glyph unicode="&#xe375;" horiz-adv-x="258" d="M134 335h-10q-19 0 -26 19l-83 209q-4 11 0.5 19t15.5 8h16q17 0 24 -17l58 -164l58 164q5 17 23 17h16q11 0 16 -8t1 -19l-84 -209q-7 -19 -25 -19z" />
<glyph unicode="&#xe376;" horiz-adv-x="360" d="M173 590h13q19 0 25 -20l43 -152l35 153q4 19 22 19h16q10 0 15.5 -7t1.5 -19l-59 -209q-5 -20 -23 -20h-10q-20 0 -26 21l-46 168l-47 -168q-5 -21 -25 -21h-10q-17 0 -24 20l-59 209q-3 12 2.5 19t14.5 7h17q18 0 22 -19l35 -153l43 152q4 20 24 20z" />
<glyph unicode="&#xe378;" horiz-adv-x="258" d="M243 563l-132 -331q-8 -17 -25 -17h-24q-11 0 -15.5 8.5t0.5 19.5l53 106l-85 214q-4 11 0.5 19t15.5 8h16q17 0 24 -17l58 -164l58 164q5 17 23 17h16q11 0 16 -8t1 -19z" />
<glyph unicode="&#xe379;" horiz-adv-x="245" d="M29 390l118 151h-99q-19 0 -19 20v9q0 20 19 20h153q18 0 18 -18v-12q0 -9 -9 -21l-118 -150h114q19 0 19 -20v-9q0 -20 -19 -20h-168q-18 0 -18 18v12q0 10 9 20z" />
<glyph unicode="&#xe411;" d="M285 750q90 0 132 -51.5t42 -122.5q0 -26 -24 -26h-3q-22 0 -24 24q-4 58 -31.5 87t-91.5 29t-91.5 -29t-31.5 -87q-2 -24 -24 -24h-3q-24 0 -24 26q0 71 42 122.5t132 51.5z" />
<glyph unicode="&#xe412;" d="M207 723l37 -149q2 -10 -3 -17t-17 -7h-3q-21 0 -30 23l-56 141q-5 14 1 25t21 11h15q29 0 35 -27zM327 723l37 -149q2 -10 -3 -17t-17 -7h-3q-21 0 -30 23l-56 141q-5 14 1 25t21 11h15q29 0 35 -27z" />
<glyph unicode="&#xe413;" d="M337 574l12 148q3 28 31 28h13q16 0 24 -10.5t4 -25.5l-34 -141q-7 -23 -26 -23h-3q-11 0 -17 7t-4 17z" />
<glyph unicode="&#xe415;" d="M235 -150q0 21 14.5 35.5t35.5 14.5t35.5 -14.5t14.5 -35.5t-14.5 -35.5t-35.5 -14.5t-35.5 14.5t-14.5 35.5z" />
<glyph unicode="&#xe416;" d="M271 -53q54 -8 89 -35.5t35 -72.5q0 -41 -29.5 -65t-81.5 -24q-42 0 -72 9q-22 7 -22 27v5q0 9 6.5 14t18.5 2q27 -6 52 -6q67 0 67 36q0 49 -67 64q-22 5 -20 23l1 8q2 18 23 15z" />
<glyph unicode="&#xe421;" d="M272 876l25 -49q5 -10 0.5 -18.5t-15.5 -8.5h-9q-13 0 -28 17l-42 47q-10 11 -4.5 23.5t18.5 12.5h19q24 0 36 -24z" />
<glyph unicode="&#xe422;" d="M273 827l25 49q12 24 36 24h19q13 0 18.5 -12.5t-4.5 -23.5l-42 -47q-15 -17 -28 -17h-9q-11 0 -15.5 8.5t0.5 18.5z" />
<glyph unicode="&#xe423;" d="M351 878l60 -53q8 -7 5.5 -16t-11.5 -9h-5q-15 0 -37 12l-78 44l-78 -44q-22 -12 -37 -12h-5q-9 0 -11.5 9t5.5 16l60 53q26 22 47 22h38q21 0 47 -22z" />
<glyph unicode="&#xe424;" d="M209 910q35 0 62 -15t48 -30.5t42 -15.5q36 0 45 27q8 24 30 24h2q13 0 20.5 -9t5.5 -23q-4 -34 -31.5 -56t-71.5 -22q-35 0 -62 15t-48 30.5t-42 15.5q-36 0 -45 -27q-8 -24 -30 -24h-2q-13 0 -20.5 9t-5.5 23q4 34 31.5 56t71.5 22z" />
<glyph unicode="&#xe425;" d="M177 880h216q29 0 29 -28v-4q0 -28 -29 -28h-216q-29 0 -29 28v4q0 28 29 28z" />
<glyph unicode="&#xe426;" d="M285 790q-117 0 -140 77q-4 14 2.5 23.5t18.5 9.5h3q19 0 28 -23q11 -32 88 -32t88 32q9 23 28 23h3q12 0 18.5 -9.5t2.5 -23.5q-23 -77 -140 -77z" />
<glyph unicode="&#xe427;" d="M285 910q117 0 140 -77q4 -14 -2.5 -23.5t-18.5 -9.5h-3q-19 0 -28 23q-11 32 -88 32t-88 -32q-9 -23 -28 -23h-3q-12 0 -18.5 9.5t-2.5 23.5q23 77 140 77z" />
<glyph unicode="&#xe428;" d="M235 850q0 21 14.5 35.5t35.5 14.5t35.5 -14.5t14.5 -35.5t-14.5 -35.5t-35.5 -14.5t-35.5 14.5t-14.5 35.5z" />
<glyph unicode="&#xe429;" d="M140 850q0 21 14.5 35.5t35.5 14.5t35.5 -14.5t14.5 -35.5t-14.5 -35.5t-35.5 -14.5t-35.5 14.5t-14.5 35.5zM330 850q0 21 14.5 35.5t35.5 14.5t35.5 -14.5t14.5 -35.5t-14.5 -35.5t-35.5 -14.5t-35.5 14.5t-14.5 35.5z" />
<glyph unicode="&#xe42a;" d="M285 921q94 0 94 -71t-94 -71t-94 71t94 71zM285 828q44 0 44 22t-44 22t-44 -22t44 -22z" />
<glyph unicode="&#xe42b;" d="M213 827l25 49q12 24 36 24h19q13 0 18.5 -12.5t-4.5 -23.5l-42 -47q-15 -17 -28 -17h-9q-11 0 -15.5 8.5t0.5 18.5zM333 827l25 49q12 24 36 24h19q13 0 18.5 -12.5t-4.5 -23.5l-42 -47q-15 -17 -28 -17h-9q-11 0 -15.5 8.5t0.5 18.5z" />
<glyph unicode="&#xe42c;" d="M212 876l25 -49q5 -10 0.5 -18.5t-15.5 -8.5h-9q-13 0 -28 17l-42 47q-10 11 -4.5 23.5t18.5 12.5h19q24 0 36 -24zM332 876l25 -49q5 -10 0.5 -18.5t-15.5 -8.5h-9q-13 0 -28 17l-42 47q-10 11 -4.5 23.5t18.5 12.5h19q24 0 36 -24z" />
<glyph unicode="&#xe42d;" d="M219 822l-60 53q-8 7 -5.5 16t11.5 9h5q15 0 37 -12l78 -44l78 44q22 12 37 12h5q9 0 11.5 -9t-5.5 -16l-60 -53q-26 -22 -47 -22h-38q-21 0 -47 22z" />
<glyph unicode="&#xe441;" horiz-adv-x="190" d="M97 540q17 0 19 -18l27 -490q1 -14 -7 -23t-23 -9h-36q-15 0 -23 9t-7 23l27 490q2 18 19 18h4zM145 710q0 -21 -14.5 -35.5t-35.5 -14.5t-35.5 14.5t-14.5 35.5t14.5 35.5t35.5 14.5t35.5 -14.5t14.5 -35.5z" />
<glyph unicode="&#xe444;" horiz-adv-x="470" d="M291 -10q-75 0 -126 16t-76 45.5t-34.5 61.5t-9.5 75q0 46 12 78.5t40 56.5t55.5 38.5t76.5 34.5q26 11 41 23t22 30.5t8.5 31.5t2.5 41q0 18 20 18h1q17 0 20 -20q4 -22 4 -44q0 -47 -21.5 -79.5t-83.5 -56.5q-28 -11 -40 -16t-34 -18t-31 -26.5t-17.5 -37t-8.5 -53.5 q0 -69 37 -103t141 -34q69 0 125 14q15 3 22.5 -3t7.5 -17v-10q0 -21 -22 -28q-52 -18 -132 -18zM352 710q0 -21 -14.5 -35.5t-35.5 -14.5t-35.5 14.5t-14.5 35.5t14.5 35.5t35.5 14.5t35.5 -14.5t14.5 -35.5z" />
<glyph unicode="&#xe451;" horiz-adv-x="275" d="M201 223l-137 101q-24 17 -24 41v20q0 24 24 41l137 101q11 8 20 4t9 -17v-13q0 -18 -24 -39l-102 -87l102 -87q24 -21 24 -39v-13q0 -13 -9 -17t-20 4z" />
<glyph unicode="&#xe452;" horiz-adv-x="275" d="M211 324l-137 -101q-10 -8 -19.5 -4t-9.5 17v13q0 18 24 39l102 87l-102 87q-24 21 -24 39v13q0 13 9.5 17t19.5 -4l137 -101q24 -17 24 -41v-20q0 -24 -24 -41z" />
<glyph unicode="&#xe453;" horiz-adv-x="465" d="M201 223l-137 101q-24 17 -24 41v20q0 24 24 41l137 101q11 8 20 4t9 -17v-13q0 -18 -24 -39l-102 -87l102 -87q24 -21 24 -39v-13q0 -13 -9 -17t-20 4zM391 223l-137 101q-24 17 -24 41v20q0 24 24 41l137 101q11 8 20 4t9 -17v-13q0 -18 -24 -39l-102 -87l102 -87 q24 -21 24 -39v-13q0 -13 -9 -17t-20 4z" />
<glyph unicode="&#xe454;" horiz-adv-x="465" d="M401 324l-137 -101q-10 -8 -19.5 -4t-9.5 17v13q0 18 24 39l102 87l-102 87q-24 21 -24 39v13q0 13 9.5 17t19.5 -4l137 -101q24 -17 24 -41v-20q0 -24 -24 -41zM211 324l-137 -101q-10 -8 -19.5 -4t-9.5 17v13q0 18 24 39l102 87l-102 87q-24 21 -24 39v13q0 13 9.5 17 t19.5 -4l137 -101q24 -17 24 -41v-20q0 -24 -24 -41z" />
<glyph unicode="&#xe471;" horiz-adv-x="333" d="M75 338h183q30 0 30 -29v-8q0 -29 -30 -29h-183q-30 0 -30 29v8q0 29 30 29z" />
<glyph unicode="&#xe472;" horiz-adv-x="750" d="M75 338h600q30 0 30 -29v-8q0 -29 -30 -29h-600q-30 0 -30 29v8q0 29 30 29z" />
<glyph unicode="&#xe481;" horiz-adv-x="160" d="M45 375q0 21 14.5 35.5t35.5 14.5t35.5 -14.5t14.5 -35.5t-14.5 -35.5t-35.5 -14.5t-35.5 14.5t-14.5 35.5z" />
<glyph unicode="&#xe482;" horiz-adv-x="310" d="M60 408h190q30 0 30 -29v-8q0 -29 -30 -29h-190q-30 0 -30 29v8q0 29 30 29z" />
<glyph unicode="&#xe483;" horiz-adv-x="333" d="M75 408h183q30 0 30 -29v-8q0 -29 -30 -29h-183q-30 0 -30 29v8q0 29 30 29z" />
<glyph unicode="&#xe484;" horiz-adv-x="500" d="M75 408h350q30 0 30 -29v-8q0 -29 -30 -29h-350q-30 0 -30 29v8q0 29 30 29z" />
<glyph unicode="&#xe485;" horiz-adv-x="750" d="M75 408h600q30 0 30 -29v-8q0 -29 -30 -29h-600q-30 0 -30 29v8q0 29 30 29z" />
<glyph unicode="&#xe486;" horiz-adv-x="1000" d="M75 408h850q30 0 30 -29v-8q0 -29 -30 -29h-850q-30 0 -30 29v8q0 29 30 29z" />
<glyph unicode="&#xe487;" d="M75 408h420q30 0 30 -29v-8q0 -29 -30 -29h-420q-30 0 -30 29v8q0 29 30 29z" />
<glyph unicode="&#xe488;" horiz-adv-x="1140" d="M75 408h990q30 0 30 -29v-8q0 -29 -30 -29h-990q-30 0 -30 29v8q0 29 30 29z" />
<glyph unicode="&#xe491;" horiz-adv-x="280" d="M50 375q0 282 111 489q12 22 30 22h20q12 0 19.5 -9.5t-0.5 -23.5q-106 -207 -106 -478t106 -478q8 -14 0.5 -23.5t-19.5 -9.5h-20q-18 0 -30 22q-111 207 -111 489z" />
<glyph unicode="&#xe492;" horiz-adv-x="280" d="M230 375q0 -282 -111 -489q-12 -22 -30 -22h-20q-12 0 -19.5 9.5t0.5 23.5q106 207 106 478t-106 478q-8 14 -0.5 23.5t19.5 9.5h20q18 0 30 -22q111 -207 111 -489z" />
<glyph unicode="&#xe493;" horiz-adv-x="230" d="M136 820v-890h34q30 0 30 -29v-8q0 -29 -30 -29h-75q-30 0 -30 32v958q0 32 30 32h75q30 0 30 -29v-8q0 -29 -30 -29h-34z" />
<glyph unicode="&#xe494;" horiz-adv-x="230" d="M94 -70v890h-34q-30 0 -30 29v8q0 29 30 29h75q30 0 30 -32v-958q0 -32 -30 -32h-75q-30 0 -30 29v8q0 29 30 29h34z" />
<glyph unicode="&#xe495;" horiz-adv-x="210" d="M18 381q0 24 30 29q23 4 22 37l-18 330q-3 54 26 81.5t72 27.5q30 0 30 -29v-8q0 -27 -30 -30q-28 -4 -27 -38l18 -330q1 -46 -33 -76q34 -30 33 -76l-18 -330q-1 -34 27 -38q30 -3 30 -30v-8q0 -29 -30 -29q-43 0 -72 27.5t-26 81.5l18 330q1 33 -22 37q-30 5 -30 29v12 z" />
<glyph unicode="&#xe496;" horiz-adv-x="210" d="M192 369q0 -24 -30 -29q-23 -4 -22 -37l18 -330q3 -54 -26 -81.5t-72 -27.5q-30 0 -30 29v8q0 27 30 30q28 4 27 38l-18 330q-1 46 33 76q-34 30 -33 76l18 330q1 34 -27 38q-30 3 -30 30v8q0 29 30 29q43 0 72 -27.5t26 -81.5l-18 -330q-1 -33 22 -37q30 -5 30 -29v-12z " />
<glyph unicode="&#xe497;" horiz-adv-x="280" d="M42 375q0 4 3 19l124 469q6 23 31 23h21q13 0 19 -7.5t3 -20.5l-125 -483l125 -483q3 -13 -3 -20.5t-19 -7.5h-21q-25 0 -31 23l-124 469q-3 15 -3 19z" />
<glyph unicode="&#xe498;" horiz-adv-x="280" d="M238 375q0 -4 -3 -19l-124 -469q-6 -23 -31 -23h-21q-13 0 -19 7.5t-3 20.5l125 483l-125 483q-3 13 3 20.5t19 7.5h21q25 0 31 -23l124 -469q3 -15 3 -19z" />
<glyph unicode="&#xe511;" horiz-adv-x="360" d="M70 60h220q30 0 30 -28v-4q0 -28 -30 -28h-220q-30 0 -30 28v4q0 28 30 28z" />
<glyph unicode="&#xe513;" horiz-adv-x="1010" d="M510 -135q-116 0 -202 28t-136.5 73.5t-81 114t-40.5 137.5t-10 157t10 157t40.5 137.5t81 114t136.5 73.5t202 28q84 0 151 -10.5t115 -29t83 -48t56 -62t33.5 -77t17 -88.5t4.5 -100q0 -85 -12 -144.5t-41.5 -107t-84.5 -70.5t-137 -23h-23q-10 0 -15 5.5t-10 19.5 l-6 16q-80 -51 -156 -51q-205 0 -205 260t205 260q76 0 156 -51l6 16q5 14 10 19.5t15 5.5h2q21 0 21 -23v-420q117 0 161.5 71.5t44.5 216.5q0 50 -3.5 86.5t-13.5 76t-27 67t-46.5 52.5t-70.5 40.5t-98.5 24.5t-131.5 9q-101 0 -175.5 -25.5t-117 -65.5t-67.5 -101.5 t-33 -121t-8 -137.5t8 -137.5t33 -121t67.5 -101.5t117 -65.5t175.5 -25.5q140 0 226 32q13 5 21.5 -1.5t8.5 -18.5v-13q0 -20 -22 -29q-28 -10 -93 -19.5t-141 -9.5zM350 375q0 -34 2.5 -59t10.5 -53t22.5 -45.5t39.5 -29t60 -11.5q81 0 140 32v332q-59 32 -140 32 q-35 0 -60 -11.5t-39.5 -29t-22.5 -45.5t-10.5 -53t-2.5 -59z" />
<glyph unicode="&#xe515;" horiz-adv-x="600" d="M530 375q0 -68 -2 -111t-9.5 -92.5t-22.5 -78.5t-40 -54.5t-64 -37t-92 -11.5t-91.5 11.5t-63.5 37t-40.5 55t-22.5 78t-9.5 92.5t-2.5 111t2.5 111t9.5 92.5t22.5 78t40.5 55t63.5 37t91.5 11.5t92 -11.5t64 -37t40 -54.5t22.5 -78.5t9.5 -92.5t2 -111zM140 375 q0 -174 19 -230l239 523q-36 30 -98 30q-26 0 -47 -5.5t-37 -13t-28 -23t-20 -29.5t-13.5 -39t-8.5 -43.5t-4 -52t-1.5 -55.5t-0.5 -62zM460 375q0 169 -20 229l-239 -523q35 -29 99 -29q29 0 51.5 5.5t39 18.5t28.5 27t19.5 39t12 46t6.5 56.5t2.5 61t0.5 69.5z" />
<glyph unicode="&#xe521;" d="M75 332h30v86h-30q-30 0 -30 29v8q0 29 30 29h34q11 138 67.5 207t183.5 69q78 0 135 -19q24 -8 24 -31v-9q0 -11 -9.5 -17t-24.5 -2q-57 16 -125 16q-90 0 -130.5 -54t-50.5 -160h253q12 0 17 -9t0 -20l-5 -13q-8 -24 -33 -24h-236v-86h184q12 0 17 -9t0 -20l-5 -13 q-8 -24 -33 -24h-159q10 -106 50.5 -160t130.5 -54q68 0 125 16q15 4 24.5 -2t9.5 -17v-9q0 -23 -24 -31q-57 -19 -135 -19q-127 0 -183.5 69t-67.5 207h-34q-30 0 -30 29v8q0 29 30 29z" />
<glyph unicode="&#xe522;" d="M465 557q-83 18 -170 18q-90 0 -135.5 -19.5t-45.5 -72.5q0 -21 11 -34t33.5 -20t49 -10t64.5 -6q11 -1 17 -1q127 -11 179 -37.5t52 -103.5t-65.5 -116.5t-190.5 -39.5h-20l-31 -90q-8 -24 -33 -24h-22q-12 0 -17 9t0 20l35 91q-57 7 -96 17q-20 5 -20 27v12q0 25 28 18 q86 -20 177 -20q189 0 189 95q0 24 -11 39.5t-36 24.5t-51 13t-72 7q-53 4 -84 8.5t-63.5 13t-49 21.5t-27 34.5t-10.5 51.5q0 152 246 152q19 0 30 -1l31 92q8 24 33 24h22q12 0 17 -9t0 -20l-35 -92q47 -6 81 -15q20 -5 20 -27v-12q0 -25 -30 -18z" />
<glyph unicode="&#xe523;" d="M196 29l37 97q-85 23 -131.5 86.5t-46.5 162.5q0 126 73.5 193t202.5 67l31 91q8 24 33 24h22q12 0 17 -9t0 -20l-35 -91q43 -6 82 -18q19 -6 19 -28v-12q0 -11 -7.5 -16.5t-22.5 -1.5q-71 19 -140 19q-95 0 -150 -52t-55 -146t55 -146t150 -52q69 0 140 19 q15 4 22.5 -1.5t7.5 -16.5v-13q0 -21 -21 -28q-73 -22 -148 -22q-22 0 -32 1l-31 -92q-8 -24 -33 -24h-22q-12 0 -17 9t0 20z" />
<glyph unicode="&#xe524;" horiz-adv-x="579" d="M65 422h50v140q0 90 57.5 144t173.5 54q91 0 163 -23q25 -8 25 -31v-10q0 -11 -8 -17t-23 -2q-84 21 -157 21q-86 0 -123.5 -31.5t-37.5 -103.5v-141h249q30 0 30 -28v-5q0 -28 -30 -28h-249v-300h339q30 0 30 -28v-5q0 -28 -30 -28h-459q-30 0 -30 28v5q0 28 30 28h50 v300h-50q-30 0 -30 28v5q0 28 30 28z" />
<glyph unicode="&#xe525;" horiz-adv-x="520" d="M202 445v-417q0 -28 -30 -28h-7q-30 0 -30 28v417h-82q-18 0 -18 18q0 13 17 18l83 24v90q0 78 44.5 121.5t135.5 43.5q75 0 128 -17q22 -7 22 -27v-14q0 -25 -30 -18q-56 14 -120 14q-51 0 -82 -27t-31 -76v-95h211q27 0 27 -26v-3q0 -26 -27 -26h-211z" />
<glyph unicode="&#xe526;" d="M70 484h82l-122 228q-8 13 -3 25.5t21 12.5h19q28 0 40 -24l178 -361l178 361q12 24 40 24h19q16 0 21 -12.5t-3 -25.5l-122 -228h82q30 0 30 -28v-10q0 -28 -30 -28h-118l-46 -86h164q30 0 30 -28v-10q0 -28 -30 -28h-180v-234q0 -32 -30 -32h-10q-30 0 -30 32v234h-180 q-30 0 -30 28v10q0 28 30 28h163l-46 86h-117q-30 0 -30 28v10q0 28 30 28z" />
<glyph unicode="&#xe533;" d="M73 529l4 13q7 24 33 24h74l36 160q6 24 31 24h9q13 0 19.5 -9t3.5 -20l-35 -155h157l36 160q6 24 31 24h9q13 0 19.5 -9t3.5 -20l-35 -155h61q13 0 19 -9t2 -20l-4 -13q-7 -24 -33 -24h-59l-55 -250h76q13 0 19 -9t2 -20l-4 -13q-7 -24 -33 -24h-75l-35 -160 q-6 -24 -31 -24h-9q-13 0 -19.5 9t-3.5 20l34 155h-157l-35 -160q-6 -24 -31 -24h-9q-13 0 -19.5 9t-3.5 20l34 155h-60q-13 0 -19 9t-2 20l4 13q8 24 33 24h58l56 250h-76q-13 0 -19 9t-2 20zM234 500l-55 -250h156l56 250h-157z" />
<glyph unicode="&#xe534;" d="M515 375q0 -68 -2 -111t-9.5 -92.5t-22.5 -78.5t-40 -54.5t-64 -37t-92 -11.5t-91.5 11.5t-63.5 37t-40.5 55t-22.5 78t-9.5 92.5t-2.5 111t2.5 111t9.5 92.5t22.5 78t40.5 55t63.5 37t91.5 11.5t92 -11.5t64 -37t40 -54.5t22.5 -78.5t9.5 -92.5t2 -111zM445 375 q0 44 -0.5 69.5t-2.5 61t-6.5 56.5t-12 46t-19.5 39t-28.5 27t-39 18.5t-51.5 5.5q-26 0 -47 -5.5t-37 -13t-28 -23t-20 -29.5t-13.5 -39t-8.5 -43.5t-4 -52t-1.5 -55.5t-0.5 -62t0.5 -62t1.5 -55.5t4 -52t8.5 -43.5t13.5 -39t20 -29.5t28 -23t37 -13t47 -5.5q29 0 51.5 5.5 t39 18.5t28.5 27t19.5 39t12 46t6.5 56.5t2.5 61t0.5 69.5z" />
<glyph unicode="&#xe536;" horiz-adv-x="330" d="M145 688l-120 -4q-15 0 -15 13v3q0 10 13 14l130 37q30 9 39 9h3q21 0 21 -21v-707q0 -32 -30 -32h-11q-30 0 -30 32v656z" />
<glyph unicode="&#xe537;" d="M281 760q240 0 240 -200q0 -67 -31.5 -128t-116 -147t-248.5 -222l366 2q30 0 30 -29v-7q0 -29 -30 -29h-426q-30 0 -30 29v8q0 12 12 24q116 97 195 172.5t119.5 121.5t61 88.5t24 63t3.5 54.5q0 65 -35.5 100t-132.5 35q-75 0 -158 -27q-12 -4 -21 3t-9 18v17 q0 18 22 27q69 26 165 26z" />
<glyph unicode="&#xe538;" d="M245 -10q-104 0 -173 26q-22 9 -22 27v17q0 11 9 18t21 3q83 -27 166 -27q116 0 161 42.5t45 114.5q0 78 -43.5 111.5t-137.5 33.5h-106q-30 0 -30 29v8q0 29 30 29h106q79 0 117.5 40t38.5 96q0 65 -41 101.5t-148 36.5q-75 0 -158 -27q-12 -4 -21 3t-9 18v17 q0 18 22 27q69 26 165 26q264 0 264 -202q0 -53 -31.5 -99.5t-80.5 -64.5q63 -14 100 -65t37 -118q0 -221 -281 -221z" />
<glyph unicode="&#xe539;" d="M365 281l2 361l-248 -363zM365 32v187h-298q-27 0 -27 26v5q0 12 15 34l312 454q14 22 33 22h3q30 0 30 -32v-447h80q27 0 27 -26v-10q0 -26 -27 -26h-80v-187q0 -32 -30 -32h-8q-30 0 -30 32z" />
<glyph unicode="&#xe53a;" d="M223 -10q-78 0 -142 23q-22 7 -22 27v13q0 11 8.5 18t21.5 3q73 -22 135 -22q203 0 203 181q0 44 -12.5 74t-28 44.5t-47.5 22t-51 8.5t-59 1h-110q-30 0 -30 32v303q0 32 30 32h335q30 0 30 -29v-4q0 -29 -30 -29h-297v-245q52 5 95 5q41 0 72.5 -4t66 -17t57 -35.5 t37 -63t14.5 -95.5q0 -243 -276 -243z" />
<glyph unicode="&#xe53b;" d="M129 231q0 -179 170 -179q48 0 81 17.5t48.5 47t21 57t5.5 57.5q0 179 -156 179q-50 0 -85.5 -16.5t-53 -44.5t-24.5 -56.5t-7 -61.5zM330 696q-211 0 -211 -322q21 40 66.5 69t113.5 29q59 0 102 -16t66.5 -39t37 -58t17 -63.5t3.5 -64.5q0 -241 -226 -241 q-63 0 -108 17.5t-71 45.5t-41 76t-19.5 96.5t-4.5 119.5q0 98 12.5 169.5t42 129t85 87t135.5 29.5q88 0 152 -23q23 -8 23 -28v-15q0 -11 -8.5 -18t-21.5 -3q-75 23 -145 23z" />
<glyph unicode="&#xe53c;" d="M119 35l346 653h-403q-27 0 -27 26v10q0 26 27 26h446q27 0 27 -26v-9q0 -14 -14 -42l-320 -647q-14 -26 -40 -26h-24q-14 0 -19.5 11.5t1.5 23.5z" />
<glyph unicode="&#xe53d;" d="M285 -10q-131 0 -192 62t-61 159q0 62 31.5 114t92.5 70q-47 22 -73 64.5t-26 92.5q0 91 54.5 149.5t173.5 58.5t173.5 -58.5t54.5 -149.5q0 -50 -26 -92.5t-73 -64.5q61 -18 92.5 -70t31.5 -114q0 -97 -61 -159t-192 -62zM285 358q-179 0 -179 -147q0 -65 41.5 -112 t137.5 -47t137.5 47t41.5 112q0 147 -179 147zM285 420q78 0 116 39t38 93q0 61 -34 103.5t-120 42.5t-120 -42.5t-34 -103.5q0 -54 38 -93t116 -39z" />
<glyph unicode="&#xe53e;" d="M451 519q0 179 -170 179q-48 0 -81 -17.5t-48.5 -47t-21 -57t-5.5 -57.5q0 -179 156 -179q50 0 85.5 16.5t53 44.5t24.5 56.5t7 61.5zM250 54q211 0 211 322q-21 -40 -66.5 -69t-113.5 -29q-59 0 -102 16t-66.5 39t-37 58t-17 63.5t-3.5 64.5q0 241 226 241 q63 0 108 -17.5t71 -45.5t41 -76t19.5 -96.5t4.5 -119.5q0 -98 -12.5 -169.5t-42 -129t-85 -87t-135.5 -29.5q-88 0 -152 23q-23 8 -23 28v15q0 11 8.5 18t21.5 3q75 -23 145 -23z" />
<glyph unicode="&#xe53f;" horiz-adv-x="600" d="M530 375q0 -68 -2 -111t-9.5 -92.5t-22.5 -78.5t-40 -54.5t-64 -37t-92 -11.5t-91.5 11.5t-63.5 37t-40.5 55t-22.5 78t-9.5 92.5t-2.5 111t2.5 111t9.5 92.5t22.5 78t40.5 55t63.5 37t91.5 11.5t92 -11.5t64 -37t40 -54.5t22.5 -78.5t9.5 -92.5t2 -111zM460 375 q0 44 -0.5 69.5t-2.5 61t-6.5 56.5t-12 46t-19.5 39t-28.5 27t-39 18.5t-51.5 5.5q-26 0 -47 -5.5t-37 -13t-28 -23t-20 -29.5t-13.5 -39t-8.5 -43.5t-4 -52t-1.5 -55.5t-0.5 -62t0.5 -62t1.5 -55.5t4 -52t8.5 -43.5t13.5 -39t20 -29.5t28 -23t37 -13t47 -5.5q29 0 51.5 5.5 t39 18.5t28.5 27t19.5 39t12 46t6.5 56.5t2.5 61t0.5 69.5z" />
<glyph unicode="&#xe540;" horiz-adv-x="500" d="M203 -260q-78 0 -142 23q-22 7 -22 27v13q0 11 8.5 18t21.5 3q73 -22 135 -22q203 0 203 181q0 44 -12.5 74t-28 44.5t-47.5 22t-51 8.5t-59 1h-110q-30 0 -30 32v303q0 32 30 32h335q30 0 30 -29v-4q0 -29 -30 -29h-297v-245q52 5 95 5q41 0 72.5 -4t66 -17t57 -35.5 t37 -63t14.5 -95.5q0 -243 -276 -243z" />
<glyph unicode="&#xe541;" horiz-adv-x="600" d="M489 0h-360q-19 0 -19 18v4q0 17 20 19l145 9v638l-155 -14q-15 -2 -15 13v3q0 10 14 14l164 47q30 9 39 9h1q20 0 20 -21v-689l145 -9q20 -2 20 -19v-4q0 -18 -19 -18z" />
<glyph unicode="&#xe542;" horiz-adv-x="600" d="M303 760q240 0 240 -200q0 -67 -31.5 -128t-116 -147t-248.5 -222l366 2q30 0 30 -29v-7q0 -29 -30 -29h-426q-30 0 -30 29v8q0 12 12 24q116 97 195 172.5t119.5 121.5t61 88.5t24 63t3.5 54.5q0 65 -35.5 100t-132.5 35q-75 0 -158 -27q-12 -4 -21 3t-9 18v17 q0 18 22 27q69 26 165 26z" />
<glyph unicode="&#xe543;" horiz-adv-x="600" d="M257 -10q-104 0 -173 26q-22 9 -22 27v17q0 11 9 18t21 3q83 -27 166 -27q116 0 161 42.5t45 114.5q0 78 -43.5 111.5t-137.5 33.5h-106q-30 0 -30 29v8q0 29 30 29h106q79 0 117.5 40t38.5 96q0 65 -41 101.5t-148 36.5q-75 0 -158 -27q-12 -4 -21 3t-9 18v17 q0 18 22 27q69 26 165 26q264 0 264 -202q0 -53 -31.5 -99.5t-80.5 -64.5q63 -14 100 -65t37 -118q0 -221 -281 -221z" />
<glyph unicode="&#xe544;" horiz-adv-x="600" d="M375 281l2 361l-248 -363zM375 32v187h-298q-27 0 -27 26v5q0 12 15 34l312 454q14 22 33 22h3q30 0 30 -32v-447h80q27 0 27 -26v-10q0 -26 -27 -26h-80v-187q0 -32 -30 -32h-8q-30 0 -30 32z" />
<glyph unicode="&#xe545;" horiz-adv-x="600" d="M244 -10q-78 0 -142 23q-22 7 -22 27v13q0 11 8.5 18t21.5 3q73 -22 135 -22q203 0 203 181q0 44 -12.5 74t-28 44.5t-47.5 22t-51 8.5t-59 1h-110q-30 0 -30 32v303q0 32 30 32h335q30 0 30 -29v-4q0 -29 -30 -29h-297v-245q52 5 95 5q41 0 72.5 -4t66 -17t57 -35.5 t37 -63t14.5 -95.5q0 -243 -276 -243z" />
<glyph unicode="&#xe546;" horiz-adv-x="600" d="M139 231q0 -179 170 -179q48 0 81 17.5t48.5 47t21 57t5.5 57.5q0 179 -156 179q-50 0 -85.5 -16.5t-53 -44.5t-24.5 -56.5t-7 -61.5zM340 696q-211 0 -211 -322q21 40 66.5 69t113.5 29q59 0 102 -16t66.5 -39t37 -58t17 -63.5t3.5 -64.5q0 -241 -226 -241 q-63 0 -108 17.5t-71 45.5t-41 76t-19.5 96.5t-4.5 119.5q0 98 12.5 169.5t42 129t85 87t135.5 29.5q88 0 152 -23q23 -8 23 -28v-15q0 -11 -8.5 -18t-21.5 -3q-75 23 -145 23z" />
<glyph unicode="&#xe547;" horiz-adv-x="600" d="M134 35l346 653h-403q-27 0 -27 26v10q0 26 27 26h446q27 0 27 -26v-9q0 -14 -14 -42l-320 -647q-14 -26 -40 -26h-24q-14 0 -19.5 11.5t1.5 23.5z" />
<glyph unicode="&#xe548;" horiz-adv-x="600" d="M300 -10q-131 0 -192 62t-61 159q0 62 31.5 114t92.5 70q-47 22 -73 64.5t-26 92.5q0 91 54.5 149.5t173.5 58.5t173.5 -58.5t54.5 -149.5q0 -50 -26 -92.5t-73 -64.5q61 -18 92.5 -70t31.5 -114q0 -97 -61 -159t-192 -62zM300 358q-179 0 -179 -147q0 -65 41.5 -112 t137.5 -47t137.5 47t41.5 112q0 147 -179 147zM300 420q78 0 116 39t38 93q0 61 -34 103.5t-120 42.5t-120 -42.5t-34 -103.5q0 -54 38 -93t116 -39z" />
<glyph unicode="&#xe549;" horiz-adv-x="600" d="M461 519q0 179 -170 179q-48 0 -81 -17.5t-48.5 -47t-21 -57t-5.5 -57.5q0 -179 156 -179q50 0 85.5 16.5t53 44.5t24.5 56.5t7 61.5zM260 54q211 0 211 322q-21 -40 -66.5 -69t-113.5 -29q-59 0 -102 16t-66.5 39t-37 58t-17 63.5t-3.5 64.5q0 241 226 241 q63 0 108 -17.5t71 -45.5t41 -76t19.5 -96.5t4.5 -119.5q0 -98 -12.5 -169.5t-42 -129t-85 -87t-135.5 -29.5q-88 0 -152 23q-23 8 -23 28v15q0 11 8.5 18t21.5 3q75 -23 145 -23z" />
<glyph unicode="&#xe54a;" d="M280 510q235 0 235 -260t-235 -260q-114 0 -169.5 63.5t-55.5 196.5t55.5 196.5t169.5 63.5zM280 448q-79 0 -116 -46.5t-37 -151.5t37 -151.5t116 -46.5q80 0 121.5 47t41.5 151q0 198 -163 198z" />
<glyph unicode="&#xe54c;" horiz-adv-x="330" d="M146 438l-120 -4q-15 0 -15 13v3q0 10 13 14l130 37q30 9 39 9h2q21 0 21 -21v-457q0 -32 -30 -32h-10q-30 0 -30 32v406z" />
<glyph unicode="&#xe54d;" horiz-adv-x="500" d="M234 448q-59 0 -129 -20q-14 -4 -22 3t-8 18v14q0 20 22 27q63 20 138 20q204 0 204 -161q0 -63 -57.5 -119.5t-238.5 -167.5h286q30 0 30 -29v-4q0 -29 -30 -29h-358q-30 0 -30 29v4q0 11 14 22q204 138 260 190.5t56 104.5q0 53 -33.5 75.5t-103.5 22.5z" />
<glyph unicode="&#xe54e;" horiz-adv-x="505" d="M215 -198q177 0 177 159q0 76 -39.5 110.5t-131.5 34.5h-81q-30 0 -30 29v8q0 29 30 29h81q78 0 112 40t34 96q0 65 -34 102.5t-125 37.5q-54 0 -128 -21q-14 -4 -22 3t-8 18v14q0 20 22 27q66 21 136 21q123 0 178 -56t55 -146q0 -51 -27.5 -97.5t-74.5 -66.5 q61 -16 94 -67.5t33 -115.5q0 -97 -60 -159t-191 -62q-79 0 -143 23q-22 7 -22 27v13q0 11 8.5 18t21.5 3q73 -22 135 -22z" />
<glyph unicode="&#xe54f;" d="M365 31l2 361l-248 -363zM365 -218v187h-298q-27 0 -27 26v5q0 11 15 34l312 454q14 22 33 22h3q30 0 30 -32v-447h80q27 0 27 -26v-10q0 -26 -27 -26h-80v-187q0 -32 -30 -32h-8q-30 0 -30 32z" />
<glyph unicode="&#xe551;" horiz-adv-x="575" d="M129 231q0 -179 170 -179q48 0 81 17.5t48.5 47t21 57t5.5 57.5q0 179 -156 179q-50 0 -85.5 -16.5t-53 -44.5t-24.5 -56.5t-7 -61.5zM330 696q-211 0 -211 -322q21 40 66.5 69t113.5 29q59 0 102 -16t66.5 -39t37 -58t17 -63.5t3.5 -64.5q0 -241 -226 -241 q-63 0 -108 17.5t-71 45.5t-41 76t-19.5 96.5t-4.5 119.5q0 98 12.5 169.5t42 129t85 87t135.5 29.5q88 0 152 -23q23 -8 23 -28v-15q0 -11 -8.5 -18t-21.5 -3q-75 23 -145 23z" />
<glyph unicode="&#xe552;" horiz-adv-x="435" d="M80 -217l278 655h-321q-27 0 -27 26v10q0 26 27 26h361q27 0 27 -26v-5q0 -16 -9 -39l-262 -653q-11 -27 -35 -27h-20q-12 0 -18 10t-1 23z" />
<glyph unicode="&#xe553;" d="M285 -10q-131 0 -192 62t-61 159q0 62 31.5 114t92.5 70q-47 22 -73 64.5t-26 92.5q0 91 54.5 149.5t173.5 58.5t173.5 -58.5t54.5 -149.5q0 -50 -26 -92.5t-73 -64.5q61 -18 92.5 -70t31.5 -114q0 -97 -61 -159t-192 -62zM285 358q-179 0 -179 -147q0 -65 41.5 -112 t137.5 -47t137.5 47t41.5 112q0 147 -179 147zM285 420q78 0 116 39t38 93q0 61 -34 103.5t-120 42.5t-120 -42.5t-34 -103.5q0 -54 38 -93t116 -39z" />
<glyph unicode="&#xe554;" horiz-adv-x="575" d="M451 269q0 179 -170 179q-48 0 -81 -17.5t-48.5 -47t-21 -57t-5.5 -57.5q0 -179 156 -179q50 0 85.5 16.5t53 44.5t24.5 56.5t7 61.5zM250 -196q211 0 211 322q-21 -40 -66.5 -69t-113.5 -29q-59 0 -102 16t-66.5 39t-37 58t-17 63.5t-3.5 64.5q0 241 226 241 q63 0 108 -17.5t71 -45.5t41 -76t19.5 -96.5t4.5 -119.5q0 -98 -12.5 -169.5t-42 -129t-85 -87t-135.5 -29.5q-88 0 -152 23q-23 8 -23 28v15q0 11 8.5 18t21.5 3q75 -23 145 -23z" />
<glyph unicode="&#xe555;" horiz-adv-x="600" d="M295 510q235 0 235 -260t-235 -260q-114 0 -169.5 63.5t-55.5 196.5t55.5 196.5t169.5 63.5zM295 448q-79 0 -116 -46.5t-37 -151.5t37 -151.5t116 -46.5q80 0 121.5 47t41.5 151q0 198 -163 198z" />
<glyph unicode="&#xe557;" horiz-adv-x="600" d="M489 0h-360q-19 0 -19 18v4q0 17 20 19l145 9v388l-155 -14q-15 -2 -15 13v3q0 10 14 14l164 47q30 9 39 9h1q20 0 20 -21v-439l145 -9q20 -2 20 -19v-4q0 -18 -19 -18z" />
<glyph unicode="&#xe558;" horiz-adv-x="600" d="M288 448q-109 0 -178 -22q-12 -4 -21 3t-9 18v15q0 20 22 27q63 21 185 21q229 0 229 -161q0 -47 -29.5 -85t-106 -84.5t-228.5 -117.5h354q30 0 30 -29v-4q0 -29 -30 -29h-426q-30 0 -30 29v8q0 17 14 24q171 91 247.5 137.5t106.5 79.5t30 72q0 53 -37 75.5t-123 22.5z " />
<glyph unicode="&#xe559;" horiz-adv-x="600" d="M260 -260q-104 0 -173 26q-22 9 -22 27v17q0 11 9 18t21 3q83 -27 166 -27q116 0 161 42.5t45 114.5q0 78 -43.5 111.5t-137.5 33.5h-106q-30 0 -30 29v8q0 29 30 29h106q79 0 117.5 40t38.5 96q0 65 -41 101.5t-148 36.5q-75 0 -158 -27q-12 -4 -21 3t-9 18v17 q0 18 22 27q69 26 165 26q264 0 264 -202q0 -53 -31.5 -99.5t-80.5 -64.5q63 -14 100 -65t37 -118q0 -221 -281 -221z" />
<glyph unicode="&#xe55a;" horiz-adv-x="600" d="M380 31l2 361l-248 -363zM380 -218v187h-298q-27 0 -27 26v5q0 11 15 34l312 454q14 22 33 22h3q30 0 30 -32v-447h80q27 0 27 -26v-10q0 -26 -27 -26h-80v-187q0 -32 -30 -32h-8q-30 0 -30 32z" />
<glyph unicode="&#xe55b;" horiz-adv-x="600" d="M248 -260q-78 0 -142 23q-22 7 -22 27v13q0 11 8.5 18t21.5 3q73 -22 135 -22q203 0 203 181q0 44 -12.5 74t-28 44.5t-47.5 22t-51 8.5t-59 1h-110q-30 0 -30 32v303q0 32 30 32h335q30 0 30 -29v-4q0 -29 -30 -29h-297v-245q52 5 95 5q41 0 72.5 -4t66 -17t57 -35.5 t37 -63t14.5 -95.5q0 -243 -276 -243z" />
<glyph unicode="&#xe55c;" horiz-adv-x="600" d="M144 231q0 -179 170 -179q48 0 81 17.5t48.5 47t21 57t5.5 57.5q0 179 -156 179q-50 0 -85.5 -16.5t-53 -44.5t-24.5 -56.5t-7 -61.5zM345 696q-211 0 -211 -322q21 40 66.5 69t113.5 29q59 0 102 -16t66.5 -39t37 -58t17 -63.5t3.5 -64.5q0 -241 -226 -241 q-63 0 -108 17.5t-71 45.5t-41 76t-19.5 96.5t-4.5 119.5q0 98 12.5 169.5t42 129t85 87t135.5 29.5q88 0 152 -23q23 -8 23 -28v-15q0 -11 -8.5 -18t-21.5 -3q-75 23 -145 23z" />
<glyph unicode="&#xe55d;" horiz-adv-x="600" d="M134 -215l346 653h-403q-27 0 -27 26v10q0 26 27 26h446q27 0 27 -26v-9q0 -14 -14 -42l-320 -647q-14 -26 -40 -26h-24q-14 0 -19.5 11.5t1.5 23.5z" />
<glyph unicode="&#xe55e;" horiz-adv-x="600" d="M300 -10q-131 0 -192 62t-61 159q0 62 31.5 114t92.5 70q-47 22 -73 64.5t-26 92.5q0 91 54.5 149.5t173.5 58.5t173.5 -58.5t54.5 -149.5q0 -50 -26 -92.5t-73 -64.5q61 -18 92.5 -70t31.5 -114q0 -97 -61 -159t-192 -62zM300 358q-179 0 -179 -147q0 -65 41.5 -112 t137.5 -47t137.5 47t41.5 112q0 147 -179 147zM300 420q78 0 116 39t38 93q0 61 -34 103.5t-120 42.5t-120 -42.5t-34 -103.5q0 -54 38 -93t116 -39z" />
<glyph unicode="&#xe55f;" horiz-adv-x="600" d="M466 269q0 179 -170 179q-48 0 -81 -17.5t-48.5 -47t-21 -57t-5.5 -57.5q0 -179 156 -179q50 0 85.5 16.5t53 44.5t24.5 56.5t7 61.5zM265 -196q211 0 211 322q-21 -40 -66.5 -69t-113.5 -29q-59 0 -102 16t-66.5 39t-37 58t-17 63.5t-3.5 64.5q0 241 226 241 q63 0 108 -17.5t71 -45.5t41 -76t19.5 -96.5t4.5 -119.5q0 -98 -12.5 -169.5t-42 -129t-85 -87t-135.5 -29.5q-88 0 -152 23q-23 8 -23 28v15q0 11 8.5 18t21.5 3q75 -23 145 -23z" />
<glyph unicode="&#xe571;" horiz-adv-x="466" d="M233 -198q125 0 125 153q0 152 -125 152q-124 0 -124 -152q0 -153 124 -153zM233 -260q-193 0 -193 215q0 214 193 214t193 -214q0 -215 -193 -215z" />
<glyph unicode="&#xe572;" horiz-adv-x="290" d="M145 98l-91 -3q-17 0 -17 15v4q0 12 14 17l102 30q27 8 37 8h2q21 0 21 -22v-365q0 -32 -30 -32h-8q-30 0 -30 32v316z" />
<glyph unicode="&#xe573;" horiz-adv-x="416" d="M191 106q-56 0 -105 -14q-14 -4 -22 3t-8 18v12q0 20 22 27q55 17 112 17q89 0 129.5 -36.5t40.5 -96.5q0 -63 -87 -131q-34 -27 -141 -95h214q30 0 30 -29v-2q0 -29 -30 -29h-281q-30 0 -30 29v4q0 18 21 31q151 99 194.5 138.5t43.5 84.5q0 69 -103 69z" />
<glyph unicode="&#xe574;" horiz-adv-x="430" d="M208 -199q58 0 88.5 18t30.5 50q0 37 -19 51.5t-71 14.5h-88q-29 0 -29 28v2q0 28 29 28h87q42 0 58.5 14t16.5 45q0 55 -105 55q-81 0 -124 -13q-13 -4 -21.5 2.5t-8.5 17.5v13q0 22 22 28q54 14 131 14q171 0 171 -117q0 -30 -12.5 -51t-30.5 -29q62 -23 62 -104 q0 -59 -47.5 -93.5t-140.5 -34.5q-77 0 -140 15q-22 5 -22 28v13q0 11 8 17.5t22 2.5q58 -15 133 -15z" />
<glyph unicode="&#xe575;" horiz-adv-x="423" d="M118 -71h135v139zM318 -71h53q32 0 32 -29v-3q0 -29 -32 -29h-53v-91q0 -27 -26 -27h-13q-26 0 -26 27v91h-201q-32 0 -32 27v2q0 11 24 37l206 214q21 21 37 21h5q26 0 26 -27v-213z" />
<glyph unicode="&#xe576;" horiz-adv-x="414" d="M206 -63h-127q-30 0 -30 32v158q0 32 30 32h261q30 0 30 -29v-3q0 -29 -30 -29h-226v-102q33 3 95 3q96 0 135.5 -31t39.5 -97q0 -131 -187 -131q-79 0 -140 15q-22 5 -22 28v13q0 11 8 17.5t22 2.5q53 -15 134 -15q117 0 117 70q0 37 -23.5 51.5t-86.5 14.5z" />
<glyph unicode="&#xe577;" horiz-adv-x="437" d="M341 -122q0 71 -105 71q-93 0 -118 -61q20 -87 115 -87q108 0 108 77zM248 107q-65 0 -99 -33t-37 -106q42 44 127 44q168 0 168 -134q0 -65 -43.5 -101.5t-130.5 -36.5q-188 0 -188 212q0 217 203 217q65 0 123 -15q21 -6 21 -28v-13q0 -11 -8.5 -17.5t-21.5 -2.5 q-47 14 -114 14z" />
<glyph unicode="&#xe578;" horiz-adv-x="375" d="M113 -216l173 314h-244q-27 0 -27 26v9q0 26 27 26h291q27 0 27 -26v-5q0 -14 -16 -46l-156 -305q-14 -27 -40 -27h-17q-14 0 -19.5 11t1.5 23z" />
<glyph unicode="&#xe579;" horiz-adv-x="411" d="M206 -5q50 0 68 15t18 41q0 56 -86 56q-87 0 -87 -56t87 -56zM206 -260q-171 0 -171 128q0 36 16.5 64.5t43.5 39.5q-17 9 -29 30.5t-12 48.5q0 57 35 87.5t117 30.5q81 0 116 -30.5t35 -87.5q0 -27 -11.5 -48.5t-29.5 -30.5q27 -11 43.5 -39.5t16.5 -64.5 q0 -128 -170 -128zM206 -199q102 0 102 69q0 67 -102 67q-103 0 -103 -67q0 -69 103 -69z" />
<glyph unicode="&#xe57a;" horiz-adv-x="437" d="M111 31q0 -71 105 -71q93 0 118 61q-20 87 -115 87q-108 0 -108 -77zM204 -198q65 0 99 33t37 106q-42 -44 -127 -44q-168 0 -168 134q0 65 43.5 101.5t130.5 36.5q188 0 188 -212q0 -217 -203 -217q-65 0 -123 15q-21 6 -21 28v13q0 11 8.5 17.5t21.5 2.5 q47 -14 114 -14z" />
<glyph unicode="&#xe57b;" horiz-adv-x="390" d="M75 -12h87v87q0 30 29 30h8q29 0 29 -30v-87h87q30 0 30 -29v-8q0 -29 -30 -29h-87v-87q0 -30 -29 -30h-8q-29 0 -29 30v87h-87q-30 0 -30 29v8q0 29 30 29z" />
<glyph unicode="&#xe57c;" horiz-adv-x="390" d="M75 -12h240q30 0 30 -29v-8q0 -29 -30 -29h-240q-30 0 -30 29v8q0 29 30 29z" />
<glyph unicode="&#xe57d;" horiz-adv-x="390" d="M75 54h240q30 0 30 -29v-8q0 -29 -30 -29h-240q-30 0 -30 29v8q0 29 30 29zM75 -78h240q30 0 30 -29v-8q0 -29 -30 -29h-240q-30 0 -30 29v8q0 29 30 29z" />
<glyph unicode="&#xe57e;" horiz-adv-x="160" d="M89 -45q0 -95 45 -195q6 -13 -1.5 -21.5t-19.5 -8.5h-15q-19 0 -30 21q-48 91 -48 204t48 204q11 21 30 21h15q12 0 19.5 -8.5t1.5 -21.5q-45 -100 -45 -195z" />
<glyph unicode="&#xe57f;" horiz-adv-x="160" d="M71 -45q0 95 -45 195q-6 13 1.5 21.5t19.5 8.5h15q19 0 30 -21q48 -91 48 -204t-48 -204q-11 -21 -30 -21h-15q-12 0 -19.5 8.5t-1.5 21.5q45 100 45 195z" />
<glyph unicode="&#xe591;" horiz-adv-x="880" d="M407 30v312h-312q-30 0 -30 29v8q0 29 30 29h312v312q0 30 29 30h8q29 0 29 -30v-312h312q30 0 30 -29v-8q0 -29 -30 -29h-312v-312q0 -30 -29 -30h-8q-29 0 -29 30z" />
<glyph unicode="&#xe592;" horiz-adv-x="880" d="M95 408h690q30 0 30 -29v-8q0 -29 -30 -29h-690q-30 0 -30 29v8q0 29 30 29z" />
<glyph unicode="&#xe593;" horiz-adv-x="880" d="M76 57l318 318l-318 318q-23 21 -1 41l6 6q20 22 41 -1l318 -318l318 318q21 23 41 1l6 -6q22 -20 -1 -41l-318 -318l318 -318q23 -21 1 -41l-6 -6q-20 -22 -41 1l-318 318l-318 -318q-21 -23 -41 -1l-6 6q-22 20 1 41z" />
<glyph unicode="&#xe594;" horiz-adv-x="880" d="M390 710q0 21 14.5 35.5t35.5 14.5t35.5 -14.5t14.5 -35.5t-14.5 -35.5t-35.5 -14.5t-35.5 14.5t-14.5 35.5zM390 40q0 21 14.5 35.5t35.5 14.5t35.5 -14.5t14.5 -35.5t-14.5 -35.5t-35.5 -14.5t-35.5 14.5t-14.5 35.5zM95 408h690q30 0 30 -29v-8q0 -29 -30 -29h-690 q-30 0 -30 29v8q0 29 30 29z" />
<glyph unicode="&#xe595;" horiz-adv-x="880" d="M95 508h690q30 0 30 -29v-8q0 -29 -30 -29h-690q-30 0 -30 29v8q0 29 30 29zM95 308h690q30 0 30 -29v-8q0 -29 -30 -29h-690q-30 0 -30 29v8q0 29 30 29z" />
<glyph unicode="&#xe596;" horiz-adv-x="880" d="M785 4l-695 326q-25 11 -25 38v14q0 27 25 38l695 326q11 6 20.5 1t9.5 -17v-22q0 -21 -24 -32l-657 -301l657 -301q24 -11 24 -32v-22q0 -12 -9.5 -17t-20.5 1z" />
<glyph unicode="&#xe597;" horiz-adv-x="880" d="M790 330l-695 -326q-11 -6 -20.5 -1t-9.5 17v22q0 21 24 32l657 301l-657 301q-24 11 -24 32v22q0 12 9.5 17t20.5 -1l695 -326q25 -11 25 -38v-14q0 -27 -25 -38z" />
<glyph unicode="&#xf628;" horiz-adv-x="505" d="M339 731l114 -155q7 -9 3 -17.5t-14 -8.5h-6q-20 0 -36 17l-114 124l-114 -124q-16 -17 -36 -17h-6q-10 0 -14 8.5t3 17.5l114 155q13 19 35 19h36q22 0 35 -19zM60 250q0 116 58 188t178 72q77 0 131 -18q22 -7 22 -28v-14q0 -11 -8.5 -17t-24.5 -1q-60 16 -121 16 q-87 0 -126 -56.5t-39 -141.5t39 -141.5t126 -56.5q61 0 121 16q16 5 24.5 -1t8.5 -17v-14q0 -21 -22 -28q-54 -18 -131 -18q-120 0 -178 72t-58 188z" />
</font>
</defs>
</svg>
